<?xml version="1.0" encoding="UTF-8" standalone="no"?>
<svg
   xmlns:dc="http://purl.org/dc/elements/1.1/"
   xmlns:cc="http://creativecommons.org/ns#"
   xmlns:rdf="http://www.w3.org/1999/02/22-rdf-syntax-ns#"
   xmlns:svg="http://www.w3.org/2000/svg"
   xmlns="http://www.w3.org/2000/svg"
   viewBox="0 0 113.38587 126.99213"
   height="126.99213"
   width="113.38587"
   xml:space="preserve"
   id="svg2"
   version="1.1"><metadata
     id="metadata8"><rdf:RDF><cc:Work
         rdf:about=""><dc:format>image/svg+xml</dc:format><dc:type
           rdf:resource="http://purl.org/dc/dcmitype/StillImage" /></cc:Work></rdf:RDF></metadata><defs
     id="defs6" /><g
     transform="matrix(1.3333333,0,0,-1.3333333,0,126.99213)"
     id="g10"><path
       id="path12"
       style="fill:#165b9f;fill-opacity:1;fill-rule:evenodd;stroke:none"
       d="M 85.0558,95.2656 V 0.0215 H 0.0164 v 95.2441 z" /><path
       id="path14"
       style="fill:#fdbb3a;fill-opacity:1;fill-rule:evenodd;stroke:none"
       d="m 16.3726,22.5643 v 3.621 h 0.6387 c 1.3416,0 3.0532,0.1358 3.0532,-1.7439 0,-1.7433 -1.5095,-1.8771 -2.852,-1.8771 z M 7.8494,7.0013 h 12.5175 c 4.43,0 9.2617,1.7776 9.2617,6.9758 0,3.0189 -1.7439,5.0323 -4.4958,6.004 v 0.2016 c 2.2147,0.7044 3.3219,2.8848 3.3219,5.0978 0,5.8357 -4.9997,7.0101 -9.8997,7.0101 H 7.8494 Z m 8.5232,10.2299 h 0.9065 c 1.4766,0 3.8263,0.0338 3.8263,-2.0795 0,-2.0794 -2.1816,-2.1132 -3.6916,-2.1132 h -1.0412 z" /><path
       id="path16"
       style="fill:#fdbb3a;fill-opacity:1;fill-rule:evenodd;stroke:none"
       d="M 30.8653,32.2682 H 50.1942 V 24.0729 L 45.127,24.3082 V 7.0013 h -9.1947 v 17.3069 l -5.067,-0.2353 z" /><path
       id="path18"
       style="fill:#fdbb3a;fill-opacity:1;fill-rule:evenodd;stroke:none"
       d="m 62.8237,24.2016 c 2.5291,1.0474 5.432,-0.1556 6.4794,-2.6861 l 7.4089,3.0665 c -2.7439,6.6212 -10.3357,9.7654 -16.9571,7.0209 -4.9986,-2.0696 -8.0118,-6.9007 -8.0101,-11.9906 h 8.0175 c -0.0023,1.9463 1.1486,3.7951 3.0614,4.5893" /><path
       id="path20"
       style="fill:#95a5cf;fill-opacity:1;fill-rule:evenodd;stroke:none"
       d="m 51.8964,34.0756 v 9.1896 h 25.3038 v -9.1896 z" /><path
       id="path22"
       style="fill:#95a5cf;fill-opacity:1;fill-rule:evenodd;stroke:none"
       d="m 51.8964,44.9158 v 19.319 h 8.2213 L 59.8836,59.1707 H 77.2002 V 49.9799 H 59.8836 l 0.2341,-5.0641 z" /><path
       id="path24"
       style="fill:#95a5cf;fill-opacity:1;fill-rule:evenodd;stroke:none"
       d="m 51.8964,74.6371 6.6113,2.8185 v 0.2675 c -0.8065,0.2679 -1.611,0.5032 -2.3828,0.8388 l -4.2285,1.8108 V 90.7038 L 66.293,82.0497 H 77.2002 V 73.061 H 66.293 L 51.8964,64.2404 Z" /><path
       id="path26"
       style="fill:#95a5cf;fill-opacity:1;fill-rule:evenodd;stroke:none"
       d="m 69.3023,17.7256 c -0.7424,-1.7991 -2.5135,-3.0674 -4.5851,-3.0693 -2.7382,0 -4.9595,2.2212 -4.9586,4.96 H 51.7425 C 51.7408,12.4498 57.5504,6.643 64.7172,6.645 c 5.4117,0 10.0466,3.3106 11.9937,8.0144 z" /></g></svg>