<?xml version="1.0" encoding="UTF-8" standalone="no"?>
<svg
   version="1.1"
   width="300.0817pt"
   height="313.68042pt"
   viewBox="0 0 300.08169 313.68042"
   id="svg78"
   sodipodi:docname="BTC-logo.svg"
   inkscape:version="1.1.2 (b8e25be8, 2022-02-05)"
   xmlns:inkscape="http://www.inkscape.org/namespaces/inkscape"
   xmlns:sodipodi="http://sodipodi.sourceforge.net/DTD/sodipodi-0.dtd"
   xmlns="http://www.w3.org/2000/svg"
   xmlns:svg="http://www.w3.org/2000/svg">
  <defs
     id="defs82" />
  <sodipodi:namedview
     id="namedview80"
     pagecolor="#ffffff"
     bordercolor="#666666"
     borderopacity="1.0"
     inkscape:pageshadow="2"
     inkscape:pageopacity="0.0"
     inkscape:pagecheckerboard="0"
     inkscape:document-units="pt"
     showgrid="false"
     inkscape:zoom="0.57326349"
     inkscape:cx="215.43322"
     inkscape:cy="231.13281"
     inkscape:window-width="1280"
     inkscape:window-height="677"
     inkscape:window-x="20"
     inkscape:window-y="147"
     inkscape:window-maximized="0"
     inkscape:current-layer="svg78" />
  <g
     enable-background="new"
     id="g76"
     transform="translate(-270.9042,-140.79781)">
    <g
       id="Layer-1"
       data-name="Layer 1">
      <path
         transform="matrix(1,0,0,-1,319.7061,208.64942)"
         d="M 0,0 -40.417,-17.461 -12.883,-81.193 0,-59.896 Z"
         fill="#65cad8"
         id="path2" />
      <path
         transform="matrix(1,0,0,-1,478.6709,175.96192)"
         d="M 0,0 -13.104,30.329 -48.449,15.058 -23.557,0 Z"
         fill="#65cad8"
         id="path4" />
      <path
         transform="matrix(1,0,0,-1,362.8096,419.4336)"
         d="m 0,0 13.07,-30.252 35.646,15.4 L 24.163,0 Z"
         fill="#65cad8"
         id="path6" />
      <path
         transform="matrix(1,0,0,-1,534.7979,305.8789)"
         d="m 0,0 -12.172,-20.121 v -60.287 l 39.531,17.079 z"
         fill="#65cad8"
         id="path8" />
      <path
         transform="matrix(1,0,0,-1,430.2217,160.90381)"
         d="M 0,0 -33.238,20.106 -46.296,-1.48 -19.581,-8.459 Z"
         fill="#fdbd4b"
         id="path10" />
      <path
         transform="matrix(1,0,0,-1,306.8232,289.84233)"
         d="m 0,0 -35.919,-59.378 27.21,-16.46 15.628,59.822 z"
         fill="#fdbd4b"
         id="path12" />
      <path
         transform="matrix(1,0,0,-1,534.7979,305.8789)"
         d="M 0,0 36.188,59.823 8.649,76.482 -7.062,16.345 Z"
         fill="#fdbd4b"
         id="path14" />
      <path
         transform="matrix(1,0,0,-1,411.5254,434.28523)"
         d="M 0,0 33.381,-20.193 46.255,1.088 18.999,8.208 Z"
         fill="#fdbd4b"
         id="path16" />
      <path
         transform="matrix(1,0,0,-1,522.626,309.0947)"
         d="M 0,0 V -16.905 L 12.172,3.216 5.11,19.561 Z"
         fill="#51c6d8"
         id="path18" />
      <path
         transform="matrix(1,0,0,-1,522.626,309.0947)"
         d="M 0,0 V -16.905 L 12.172,3.216 5.11,19.561 Z"
         fill="#35ad52"
         id="path20" />
      <path
         transform="matrix(1,0,0,-1,319.7061,283.0312)"
         d="m 0,0 v 14.485 l -12.883,-21.296 6.92,-16.016 z"
         fill="#51c6d8"
         id="path22" />
      <path
         transform="matrix(1,0,0,-1,319.7061,283.0312)"
         d="m 0,0 v 14.485 l -12.883,-21.296 6.92,-16.016 z"
         fill="#35ad52"
         id="path24" />
      <path
         transform="matrix(1,0,0,-1,405.0923,419.4336)"
         d="M 0,0 H -18.12 L 6.433,-14.852 25.432,-6.644 Z"
         fill="#51c6d8"
         id="path26" />
      <path
         transform="matrix(1,0,0,-1,405.0923,419.4336)"
         d="M 0,0 H -18.12 L 6.433,-14.852 25.432,-6.644 Z"
         fill="#35ad52"
         id="path28" />
      <path
         transform="matrix(1,0,0,-1,435.8994,175.96192)"
         d="M 0,0 H 19.215 L -5.678,15.058 -25.259,6.599 Z"
         fill="#51c6d8"
         id="path30" />
      <path
         transform="matrix(1,0,0,-1,435.8994,175.96192)"
         d="M 0,0 H 19.215 L -5.678,15.058 -25.259,6.599 Z"
         fill="#35ad52"
         id="path32" />
      <path
         transform="matrix(1,0,0,-1,383.9253,162.38379)"
         d="m 0,0 -30.612,7.997 -5.636,-21.575 h 28.035 z"
         fill="#f17db1"
         id="path34" />
      <path
         transform="matrix(1,0,0,-1,298.1143,365.6807)"
         d="m 0,0 -6.311,-24.156 27.903,-7.289 v 18.383 z"
         fill="#f17db1"
         id="path36" />
      <path
         transform="matrix(1,0,0,-1,457.7803,433.1973)"
         d="m 0,0 30.354,-7.93 5.667,21.694 H 8.326 Z"
         fill="#f17db1"
         id="path38" />
      <path
         transform="matrix(1,0,0,-1,543.4473,229.39652)"
         d="m 0,0 6.196,23.72 -27.017,7.058 V 12.595 Z"
         fill="#f17db1"
         id="path40" />
      <path
         transform="matrix(1,0,0,-1,445.9033,419.4336)"
         d="M 0,0 -15.379,-6.644 11.877,-13.764 20.203,0 Z"
         fill="#e24b4b"
         id="path42" />
      <path
         transform="matrix(1,0,0,-1,395.3672,175.96192)"
         d="M 0,0 15.273,6.599 -11.442,13.578 -19.655,0 Z"
         fill="#e24b4b"
         id="path44" />
      <path
         transform="matrix(1,0,0,-1,522.626,277.7051)"
         d="M 0,0 5.11,-11.829 20.821,48.309 0,60.904 Z"
         fill="#e24b4b"
         id="path46" />
      <path
         transform="matrix(1,0,0,-1,319.7061,319.6621)"
         d="M 0,0 -5.963,13.804 -21.592,-46.019 0,-59.08 Z"
         fill="#e24b4b"
         id="path48" />
      <path
         transform="matrix(1,0,0,-1,313.7427,305.8584)"
         d="M 0,0 5.963,-13.804 V 22.827 Z"
         fill="#634449"
         id="path50" />
      <path
         transform="matrix(1,0,0,-1,410.6406,169.36331)"
         d="M 0,0 -15.273,-6.599 H 25.259 Z"
         fill="#634449"
         id="path52" />
      <path
         transform="matrix(1,0,0,-1,430.5244,426.0771)"
         d="M 0,0 15.379,6.644 H -25.432 Z"
         fill="#634449"
         id="path54" />
      <path
         transform="matrix(1,0,0,-1,527.7363,289.5342)"
         d="m 0,0 -5.11,11.829 v -31.39 z"
         fill="#634449"
         id="path56" />
      <path
         transform="matrix(1,0,0,-1,478.6709,175.96192)"
         d="m 0,0 h -23.557 -19.214 -40.533 -19.655 -28.035 -27.971 v -32.688 -59.896 -14.485 -36.631 -59.08 -18.384 -22.308 h 43.104 24.163 18.119 40.811 20.204 27.694 28.825 v 33.147 60.287 16.905 31.39 60.904 18.182 V 0 Z"
         fill="#015189"
         id="path58" />
      <clipPath
         id="cp0">
        <path
           transform="matrix(1,0,0,-1,0,595.276)"
           d="M 0,595.276 H 841.89 V 0 H 0 Z"
           id="path60" />
      </clipPath>
      <g
         clip-path="url(#cp0)"
         id="g73">
        <path
           transform="matrix(1,0,0,-1,464.1396,339.458)"
           d="M 0,0 C -12.162,-5.038 -19.492,-16.799 -19.492,-29.192 H 0.013 c -0.003,4.737 2.793,9.237 7.454,11.172 6.157,2.549 13.216,-0.379 15.767,-6.54 l 18.026,7.467 C 34.588,-0.975 16.116,6.682 0,0"
           fill="#ffffff"
           id="path63" />
        <path
           transform="matrix(1,0,0,-1,360.7422,361.6748)"
           d="m 0,0 v 8.694 h 1.555 c 3.276,0 7.447,0.33 7.447,-4.184 C 9.002,0.319 5.323,0 2.045,0 Z M -20.803,-37.389 H 9.739 c 10.814,0 22.602,4.267 22.602,16.76 0,7.245 -4.261,12.085 -10.972,14.418 v 0.487 c 5.402,1.694 8.111,6.93 8.111,12.247 0,14.023 -12.202,16.839 -24.157,16.839 H -20.803 Z M 0,-12.817 h 2.209 c 3.604,0 9.338,0.086 9.338,-4.992 0,-4.998 -5.322,-5.077 -9.005,-5.077 H 0 Z"
           fill="#ffffff"
           id="path65" />
        <path
           transform="matrix(1,0,0,-1,394.896,338.3652)"
           d="M 0,0 H 47.157 V -19.686 L 34.8,-19.122 V -60.698 H 12.353 v 41.576 L 0,-19.686 Z"
           fill="#ffffff"
           id="path67" />
        <path
           transform="matrix(1,0,0,-1,476.0537,214.40482)"
           d="M 0,0 -34.326,20.645 V -4 l 10.083,-4.32 c 1.838,-0.8 3.756,-1.361 5.681,-2.002 v -0.638 l -15.764,-6.725 V -42.489 L 0,-21.447 H 26.009 V 0 Z m -14.723,-43.731 h -19.603 v -46.096 h 19.603 l -0.561,12.083 h 41.293 v 21.928 h -41.293 z m -19.604,-72.57 h 60.335 v 21.924 h -60.335 z"
           fill="#65cad8"
           id="path69" />
        <path
           transform="matrix(1,0,0,-1,476.21,380.7178)"
           d="m 0,0 c -6.663,0 -12.071,5.407 -12.064,12.074 h -19.509 c 0,-17.444 14.138,-31.586 31.573,-31.58 13.174,0.003 24.451,8.058 29.191,19.512 L 11.16,7.473 C 9.357,3.093 5.044,0.003 0,0"
           fill="#65cad8"
           id="path71" />
      </g>
    </g>
  </g>
</svg>
