<?xml version="1.0" encoding="UTF-8" standalone="no"?>
<svg
   xmlns:dc="http://purl.org/dc/elements/1.1/"
   xmlns:cc="http://creativecommons.org/ns#"
   xmlns:rdf="http://www.w3.org/1999/02/22-rdf-syntax-ns#"
   xmlns:svg="http://www.w3.org/2000/svg"
   xmlns="http://www.w3.org/2000/svg"
   viewBox="0 0 158.74001 75.591202"
   height="75.591202"
   width="158.74001"
   xml:space="preserve"
   id="svg2"
   version="1.1"><metadata
     id="metadata8"><rdf:RDF><cc:Work
         rdf:about=""><dc:format>image/svg+xml</dc:format><dc:type
           rdf:resource="http://purl.org/dc/dcmitype/StillImage" /></cc:Work></rdf:RDF></metadata><defs
     id="defs6"><clipPath
       id="clipPath18"
       clipPathUnits="userSpaceOnUse"><path
         id="path16"
         d="M 0,56.693 H 119.055 V 0 H 0 Z" /></clipPath></defs><g
     transform="matrix(1.3333333,0,0,-1.3333333,0,75.5912)"
     id="g10"><g
       id="g12"><g
         clip-path="url(#clipPath18)"
         id="g14"><g
           transform="translate(48.2383,35.9785)"
           id="g20"><path
             id="path22"
             style="fill:#231f20;fill-opacity:1;fill-rule:nonzero;stroke:none"
             d="M 0,0 C 0.057,1.016 0.592,1.58 1.404,1.58 2.289,1.58 2.797,1.031 2.809,0 Z M 4.916,-2.176 2.92,-2.012 c -0.191,-0.674 -0.717,-1.06 -1.406,-1.06 -0.975,0 -1.539,0.677 -1.539,1.914 h 4.982 v 0.289 c 0,2.383 -1.32,3.801 -3.428,3.801 -2.215,0 -3.759,-1.569 -3.759,-3.746 0,-2.215 1.447,-3.721 3.664,-3.721 1.748,0 3.015,0.857 3.482,2.359 m 0.916,-2.162 h 2.037 v 4.172 c 0,0.99 0.537,1.596 1.268,1.596 0.646,0 0.963,-0.453 0.963,-1.323 v -4.445 h 2.05 v 4.586 c 0,1.815 -0.728,2.684 -2.3,2.684 -0.936,0 -1.662,-0.457 -2.118,-1.323 v 1.129 h -1.9 z M 15.174,0 c 0.056,1.016 0.592,1.58 1.404,1.58 0.881,0 1.391,-0.549 1.406,-1.58 z m 4.916,-2.176 -1.998,0.164 c -0.192,-0.674 -0.717,-1.06 -1.403,-1.06 -0.978,0 -1.543,0.677 -1.543,1.914 h 4.983 v 0.289 c 0,2.383 -1.32,3.801 -3.424,3.801 -2.219,0 -3.76,-1.569 -3.76,-3.746 0,-2.215 1.446,-3.721 3.662,-3.721 1.748,0 3.012,0.857 3.483,2.359 m 1.055,-2.162 h 2.05 v 3.469 c 0,1.183 0.619,1.885 1.664,1.885 0.137,0 0.276,-0.014 0.428,-0.026 v 1.914 c -0.152,0.014 -0.275,0.028 -0.357,0.028 -1.02,0 -1.639,-0.551 -1.955,-1.68 v 1.486 h -1.83 z m 5.718,3.209 c -0.84,-0.291 -1.25,-0.771 -1.25,-1.461 0,-0.455 0.233,-0.824 0.688,-1.074 -0.688,-0.231 -1.074,-0.744 -1.074,-1.363 0,-1.268 1.281,-1.846 3.896,-1.846 2.408,0 3.674,0.84 3.674,2.203 0,1.102 -0.877,1.9 -2.451,1.971 l -2.16,0.097 c -0.467,0.028 -0.702,0.178 -0.702,0.524 0,0.203 0.139,0.371 0.44,0.494 0.346,-0.082 0.717,-0.109 1.101,-0.109 1.914,0 3.002,0.894 3.002,2.242 0,0.592 -0.248,1.129 -0.744,1.611 0.098,0.371 0.387,0.51 0.922,0.51 0.139,0 0.303,-0.016 0.496,-0.029 L 32.742,4.1 c -0.287,0.015 -0.521,0.027 -0.687,0.027 -1.045,0 -1.596,-0.482 -1.709,-1.498 -0.481,0.178 -0.961,0.262 -1.455,0.262 -1.944,0 -3.116,-1.004 -3.116,-2.327 0,-0.716 0.373,-1.308 1.088,-1.693 m 2.067,2.891 c 0.703,0 1.154,-0.471 1.154,-1.172 0,-0.729 -0.439,-1.17 -1.154,-1.17 -0.717,0 -1.157,0.441 -1.157,1.17 0,0.701 0.469,1.172 1.157,1.172 m -1.446,-5.877 2.465,-0.139 c 0.66,-0.041 0.99,-0.236 0.99,-0.621 0,-0.607 -0.593,-0.801 -1.845,-0.801 -1.405,0 -2.08,0.246 -2.08,0.869 0,0.287 0.152,0.524 0.47,0.692 M 35.049,0 c 0.058,1.016 0.594,1.58 1.406,1.58 0.881,0 1.389,-0.549 1.402,-1.58 z m 4.916,-2.176 -1.998,0.164 c -0.192,-0.674 -0.713,-1.06 -1.401,-1.06 -0.978,0 -1.543,0.677 -1.543,1.914 h 4.985 v 0.289 c 0,2.383 -1.322,3.801 -3.428,3.801 -2.215,0 -3.758,-1.569 -3.758,-3.746 0,-2.215 1.444,-3.721 3.66,-3.721 1.748,0 3.016,0.857 3.483,2.359 m 1.414,0.139 c 0,-1.734 0.66,-2.498 2.324,-2.498 0.426,0 0.881,0.056 1.35,0.154 v 1.545 c -0.289,-0.068 -0.551,-0.098 -0.772,-0.098 -0.701,0 -0.853,0.319 -0.853,1.118 v 3.179 h 1.474 V 2.738 H 43.428 V 4.83 L 41.543,4.707 41.434,2.738 h -1.2 V 1.363 h 1.145 z m 4.51,5.682 h 2.121 v 1.572 h -2.121 z m 0,-7.983 h 2.121 v 7.076 h -2.121 z m 3.463,0 h 2.05 v 2.149 l 1.02,1.142 1.68,-3.291 h 2.173 l -2.462,4.709 2.173,2.367 h -1.941 l -2.643,-3.027 v 5.506 h -2.05 z m 11.82,3.469 v -0.635 c 0,-0.961 -0.662,-1.65 -1.529,-1.65 -0.69,0 -1.071,0.345 -1.071,0.924 0,0.839 0.877,1.335 2.6,1.361 m 0.178,-3.469 h 2.05 c -0.15,0.33 -0.207,0.783 -0.207,1.363 v 3.139 c 0,1.941 -0.863,2.768 -3.095,2.768 -1.994,0 -3.18,-0.717 -3.51,-2.108 l 1.926,-0.205 c 0.109,0.647 0.607,0.99 1.474,0.99 0.783,0 1.184,-0.371 1.184,-1.088 V 0.219 c -3.18,-0.028 -4.777,-0.908 -4.777,-2.574 0,-1.309 0.937,-2.165 2.478,-2.165 1.047,0 1.859,0.471 2.34,1.325 0.016,-0.426 0.057,-0.813 0.137,-1.143" /></g><g
           transform="translate(46.0078,18.1699)"
           id="g24"><path
             id="path26"
             style="fill:#231f20;fill-opacity:1;fill-rule:nonzero;stroke:none"
             d="M 0,0 H 1.035 L 2.729,9.553 H 1.666 Z M 4.131,8.219 H 5.506 L 5.74,9.553 H 4.377 Z M 2.875,0 C 2.654,-1.24 2.311,-1.816 1.334,-1.816 c -0.193,0 -0.414,0.025 -0.676,0.082 L 0.549,-2.549 c 0.316,-0.055 0.592,-0.082 0.84,-0.082 1.572,0 2.203,0.815 2.521,2.631 L 5.162,7.076 H 4.117 Z m 9.592,7.076 H 11.463 L 10.832,3.539 C 10.514,1.723 9.51,0.66 8.434,0.66 7.58,0.66 7.07,1.199 7.07,2.162 c 0,0.221 0.032,0.442 0.071,0.672 L 7.885,7.076 H 6.879 L 6.109,2.67 C 6.068,2.41 6.039,2.135 6.039,1.889 c 0,-1.295 0.785,-2.084 2.022,-2.084 1.023,0 1.873,0.58 2.521,1.724 L 10.309,0 h 0.908 z m 4.484,-0.717 c 0.867,0 1.445,-0.728 1.445,-1.98 0,-2.203 -1.031,-3.649 -2.257,-3.649 -0.934,0 -1.61,0.745 -1.61,1.94 0,0.853 0.235,1.723 0.498,2.189 0.549,1.004 1.194,1.5 1.924,1.5 m -3.949,-6.402 h 0.482 l 0.745,1.297 c 0.371,-0.897 1.113,-1.379 2.037,-1.379 0.826,0 1.623,0.4 2.214,1.17 0.704,0.912 1.088,2.053 1.088,3.291 0,1.762 -0.964,2.92 -2.271,2.92 -0.811,0 -1.625,-0.467 -2.244,-1.377 l 0.662,3.674 H 14.709 Z M 20.197,0 h 1.032 l 1.693,9.553 h -1.061 z m 4.127,8.219 h 1.375 l 0.237,1.334 H 24.572 Z M 23.072,0 c -0.222,-1.24 -0.568,-1.816 -1.545,-1.816 -0.191,0 -0.414,0.025 -0.673,0.082 l -0.112,-0.815 c 0.319,-0.055 0.594,-0.082 0.84,-0.082 1.572,0 2.205,0.815 2.523,2.631 l 1.252,7.076 h -1.046 z m 7.815,3.635 C 30.596,1.928 29.318,0.799 28.215,0.799 c -0.84,0 -1.32,0.467 -1.32,1.24 0,1.088 0.976,1.666 2.849,1.666 0.371,0 0.742,-0.016 1.143,-0.07 M 30.516,1.459 C 30.445,1.02 30.42,0.701 30.42,0.48 c 0,-0.136 0,-0.3 0.025,-0.48 h 1.034 c -0.042,0.332 -0.042,0.523 -0.042,0.578 0,0.346 0.028,0.578 0.042,0.688 l 0.537,3.031 c 0.056,0.303 0.068,0.576 0.068,0.822 0,1.434 -0.867,2.164 -2.602,2.164 -1.404,0 -2.437,-0.578 -2.947,-1.556 L 27.541,5.34 c 0.305,0.676 0.992,1.076 1.898,1.076 1.061,0 1.653,-0.498 1.653,-1.322 0,-0.192 -0.028,-0.414 -0.069,-0.676 -0.466,0.047 -0.894,0.07 -1.265,0.07 -2.643,0 -4.018,-0.935 -4.018,-2.545 0,-1.117 0.92,-2.027 2.256,-2.027 0.979,0 1.885,0.539 2.52,1.543 M 32.811,0 h 1.003 l 0.633,3.539 c 0.319,1.815 1.311,2.877 2.397,2.877 0.853,0 1.363,-0.553 1.363,-1.514 0,-0.193 -0.027,-0.427 -0.068,-0.689 L 37.395,0 h 1.003 l 0.772,4.393 c 0.055,0.3 0.068,0.605 0.068,0.906 0,1.172 -0.797,1.969 -2.021,1.969 -1.022,0 -1.873,-0.577 -2.52,-1.719 l 0.276,1.527 H 34.064 Z M 45.088,3.635 C 44.795,1.928 43.52,0.799 42.414,0.799 c -0.84,0 -1.32,0.467 -1.32,1.24 0,1.088 0.976,1.666 2.849,1.666 0.373,0 0.745,-0.016 1.145,-0.07 M 44.715,1.459 C 44.645,1.02 44.617,0.701 44.617,0.48 c 0,-0.136 0,-0.3 0.028,-0.48 h 1.033 c -0.041,0.332 -0.041,0.523 -0.041,0.578 0,0.346 0.027,0.578 0.041,0.688 l 0.539,3.031 c 0.054,0.303 0.066,0.576 0.066,0.822 0,1.434 -0.865,2.164 -2.601,2.164 -1.405,0 -2.438,-0.578 -2.946,-1.556 L 41.74,5.34 c 0.303,0.676 0.99,1.076 1.901,1.076 1.058,0 1.652,-0.498 1.652,-1.322 0,-0.192 -0.029,-0.414 -0.068,-0.676 -0.467,0.047 -0.895,0.07 -1.268,0.07 -2.643,0 -4.018,-0.935 -4.018,-2.545 0,-1.117 0.92,-2.027 2.256,-2.027 0.977,0 1.885,0.539 2.52,1.543" /></g><g
           transform="translate(42.5957,36.668)"
           id="g28"><path
             id="path30"
             style="fill:#ffffff;fill-opacity:1;fill-rule:nonzero;stroke:none"
             d="m 0,0 v -16.636 h -21.834 c -4.583,0 -8.322,3.734 -8.322,8.323 0,4.58 3.739,8.313 8.322,8.313 z" /></g><g
           transform="translate(20.7617,20.0322)"
           id="g32"><path
             id="path34"
             style="fill:#1c63b7;fill-opacity:1;fill-rule:nonzero;stroke:none"
             d="M 0,0 H 21.834 V -5.034 L 0,-5.033 c -7.352,0 -13.348,6.002 -13.348,13.355 0,7.352 5.996,13.345 13.348,13.345 H 21.834 V 16.636 H 0 c -4.583,0 -8.322,-3.734 -8.322,-8.314 C -8.322,3.734 -4.583,0 0,0" /></g><g
           transform="translate(42.5957,36.668)"
           id="g36"><path
             id="path38"
             style="fill:#fcd205;fill-opacity:1;fill-rule:nonzero;stroke:none"
             d="m 0,0 v -5.024 h -19.807 c -0.589,0.362 -1.284,0.576 -2.027,0.576 -2.128,0 -3.866,-1.737 -3.866,-3.865 0,-2.131 1.738,-3.868 3.866,-3.868 0.743,0 1.436,0.209 2.025,0.575 H 0 v -5.03 h -21.834 c -4.583,0 -8.322,3.734 -8.322,8.323 0,4.58 3.739,8.313 8.322,8.313 z" /></g><g
           transform="translate(20.7617,30.2861)"
           id="g40"><path
             id="path42"
             style="fill:#231f20;fill-opacity:1;fill-rule:nonzero;stroke:none"
             d="M 0,0 C 0.792,0 1.473,-0.479 1.772,-1.16 H 21.834 V -2.707 H 1.772 C 1.471,-3.389 0.792,-3.866 0,-3.866 c -1.064,0 -1.932,0.87 -1.932,1.934 C -1.932,-0.867 -1.064,0 0,0" /></g></g></g></g></svg>