<?xml version="1.0" encoding="UTF-8" standalone="no"?>
<svg
   xmlns:dc="http://purl.org/dc/elements/1.1/"
   xmlns:cc="http://creativecommons.org/ns#"
   xmlns:rdf="http://www.w3.org/1999/02/22-rdf-syntax-ns#"
   xmlns:svg="http://www.w3.org/2000/svg"
   xmlns="http://www.w3.org/2000/svg"
   viewBox="0 0 377.94666 377.94666"
   height="377.94666"
   width="377.94666"
   xml:space="preserve"
   id="svg2"
   version="1.1"><metadata
     id="metadata8"><rdf:RDF><cc:Work
         rdf:about=""><dc:format>image/svg+xml</dc:format><dc:type
           rdf:resource="http://purl.org/dc/dcmitype/StillImage" /></cc:Work></rdf:RDF></metadata><defs
     id="defs6"><clipPath
       id="clipPath18"
       clipPathUnits="userSpaceOnUse"><path
         id="path16"
         d="M 0,283.46 H 283.46 V 0 H 0 Z" /></clipPath></defs><g
     transform="matrix(1.3333333,0,0,-1.3333333,0,377.94667)"
     id="g10"><g
       id="g12"><g
         clip-path="url(#clipPath18)"
         id="g14"><g
           transform="translate(161.2666,149.8916)"
           id="g20"><path
             id="path22"
             style="fill:#231f20;fill-opacity:1;fill-rule:nonzero;stroke:none"
             d="M 0,0 -5.364,-26.361 H 5.122 L 10.485,0 Z m -12.606,0 h -10.72 l -22.385,-26.361 h 34.43 l 0.988,4.975 H -30.78 Z m -41.32,0 -5.362,-26.361 h 10.484 L -43.442,0 Z m 90.005,0 2.312,-11.036 H 24.621 L 31.223,0 H 23.894 L 7.997,-26.361 h 7.224 l 5.751,9.515 h 18.41 l 2.076,-9.515 H 51.945 L 46.588,0 Z m 50.01,-25.904 H 96.232 L 102.009,0 H 91.891 Z m -31.701,0 H 67.995 L 73.731,0 H 60.228 Z M 102.34,6.145 c -1.214,4.068 -5.272,6.115 -12.185,6.115 -2.664,0 -5.056,-0.246 -7.174,-0.728 C 80.86,11.051 79.175,10.52 77.926,9.932 76.676,9.35 75.969,9.019 75.804,8.949 l 0.747,3.085 H 62.941 L 61.611,6.145 H 80.9 c 0.948,0.24 2.007,0.416 3.175,0.522 2.037,0 3.657,-0.176 4.886,-0.522 z M 43.829,13.554 H 32.062 L 27.597,6.145 h 17.737 z m -30.586,0 H 2.755 L 1.249,6.145 h 10.485 z m -49.265,0 -0.988,-4.976 h 20.968 l -2.062,-2.433 h 10.72 l 6.296,7.409 z M -76.319,8.578 h 20.899 l 0.987,4.976 h -31.382 l -1.51,-7.409 h 10.51 z M -78.064,0 h -10.51 l -5.363,-26.361 h 10.488 l 3.769,18.34 h 17.417 l 0.991,4.951 h -17.419 z m 37.376,13.554 h -10.483 l -1.506,-7.409 h 10.485 z" /></g><g
           transform="translate(35.0313,131.7061)"
           id="g24"><path
             id="path26"
             style="fill:#231f20;fill-opacity:1;fill-rule:nonzero;stroke:none"
             d="m 0,0 c -3.378,-6.601 -10.421,-11.487 -9.584,-16.458 0.844,-4.966 5.381,0.347 6.053,0.517 0.672,0.17 15.634,16.795 14.121,27.425 C 9.077,22.113 3.364,13.54 3.196,10.796 3.025,8.057 2.021,3.943 0,0" /></g><g
           transform="translate(48.3135,122.2803)"
           id="g28"><path
             id="path30"
             style="fill:#fff200;fill-opacity:1;fill-rule:nonzero;stroke:none"
             d="m 0,0 8.908,9.768 c 0,0 5.549,6.511 -1.176,13.714 -6.724,7.2 -8.912,4.284 -2.356,13.881 4.355,5.102 0.342,8.744 -3.189,9.255 -3.532,0.517 -22.695,-12.511 -20.507,-8.738 2.181,3.772 10.254,4.625 13.78,3.255 3.531,-1.369 6.391,-1.716 2.523,-6.17 C -5.885,30.506 -6.893,29.994 -2.692,25.363 1.51,20.739 8.239,18.165 1.68,11.313 -4.879,4.455 -3.868,5.996 -3.868,5.996 -3.868,5.996 -12.441,-4.459 0,0" /></g><g
           transform="translate(64.957,161.8706)"
           id="g32"><path
             id="path34"
             style="fill:#231f20;fill-opacity:1;fill-rule:nonzero;stroke:none"
             d="M 0,0 C 5.568,5.684 13.449,18.34 10.761,4.971 8.066,-8.397 -2.353,-6.17 -8.07,-5.825 c -5.715,0.342 0,7.541 4.037,5.654 C 0,-2.052 -1.007,-1.029 0,0" /></g><g
           transform="translate(65.1025,171.0659)"
           id="g36"><path
             id="path38"
             style="fill:#231f20;fill-opacity:1;fill-rule:nonzero;stroke:none"
             d="m 0,0 c 0,-3.166 -2.563,-5.739 -5.729,-5.739 -3.161,0 -5.727,2.569 -5.727,5.739 0,3.175 2.566,5.743 5.727,5.743 C -2.563,5.743 0,3.175 0,0" /></g><g
           transform="translate(67.7285,105.6191)"
           id="g40"><path
             id="path42"
             style="fill:#231f20;fill-opacity:1;fill-rule:nonzero;stroke:none"
             d="m 0,0 4.121,5.363 c 0.395,0.49 0.772,0.923 1.187,1.411 V 6.813 H 0.376 V 8.148 H 7.321 L 7.302,7.113 3.237,1.825 C 2.86,1.317 2.484,0.865 2.07,0.396 V 0.356 H 7.396 V -0.96 H 0 Z" /></g><g
           transform="translate(81.6167,109.3076)"
           id="g44"><path
             id="path46"
             style="fill:#231f20;fill-opacity:1;fill-rule:nonzero;stroke:none"
             d="m 0,0 c -1.807,0.037 -3.858,-0.282 -3.858,-2.052 0,-1.073 0.715,-1.58 1.562,-1.58 1.185,0 1.938,0.753 2.202,1.524 C -0.038,-1.938 0,-1.75 0,-1.581 Z M 0.245,-4.648 0.113,-3.501 H 0.057 c -0.509,-0.714 -1.488,-1.354 -2.786,-1.354 -1.844,0 -2.785,1.298 -2.785,2.615 0,2.202 1.957,3.406 5.476,3.387 v 0.189 c 0,0.753 -0.207,2.107 -2.07,2.107 -0.847,0 -1.731,-0.262 -2.371,-0.677 l -0.377,1.091 c 0.753,0.491 1.845,0.81 2.993,0.81 C 0.922,4.667 1.6,2.766 1.6,0.94 v -3.406 c 0,-0.79 0.037,-1.561 0.15,-2.182 z" /></g><g
           transform="translate(94.6768,109.3076)"
           id="g48"><path
             id="path50"
             style="fill:#231f20;fill-opacity:1;fill-rule:nonzero;stroke:none"
             d="m 0,0 c -1.807,0.037 -3.859,-0.282 -3.859,-2.052 0,-1.073 0.716,-1.58 1.563,-1.58 1.185,0 1.938,0.753 2.201,1.524 C -0.038,-1.938 0,-1.75 0,-1.581 Z M 0.244,-4.648 0.113,-3.501 H 0.056 c -0.509,-0.714 -1.487,-1.354 -2.785,-1.354 -1.844,0 -2.786,1.298 -2.786,2.615 0,2.202 1.958,3.406 5.477,3.387 v 0.189 c 0,0.753 -0.207,2.107 -2.07,2.107 -0.847,0 -1.731,-0.262 -2.371,-0.677 l -0.377,1.091 c 0.753,0.491 1.845,0.81 2.993,0.81 C 0.922,4.667 1.6,2.766 1.6,0.94 v -3.406 c 0,-0.79 0.037,-1.561 0.15,-2.182 z" /></g><g
           transform="translate(100.5854,109.5889)"
           id="g52"><path
             id="path54"
             style="fill:#231f20;fill-opacity:1;fill-rule:nonzero;stroke:none"
             d="m 0,0 h 0.037 c 0.226,0.321 0.546,0.717 0.81,1.036 L 3.519,4.179 H 5.515 L 1.995,0.434 6.003,-4.93 H 3.989 L 0.847,-0.563 0,-1.505 V -4.93 H -1.638 V 8.432 H 0 Z" /></g><g
           transform="translate(109.7695,116.3838)"
           id="g56"><path
             id="path58"
             style="fill:#231f20;fill-opacity:1;fill-rule:nonzero;stroke:none"
             d="M 0,0 V -2.616 H 2.371 V -3.877 H 0 v -4.912 c 0,-1.129 0.32,-1.769 1.242,-1.769 0.433,0 0.753,0.057 0.96,0.113 l 0.075,-1.243 c -0.32,-0.131 -0.828,-0.225 -1.467,-0.225 -0.773,0 -1.394,0.244 -1.789,0.696 -0.471,0.489 -0.64,1.299 -0.64,2.371 v 4.969 H -3.03 v 1.261 h 1.411 v 2.182 z" /></g><path
           id="path60"
           style="fill:#231f20;fill-opacity:1;fill-rule:nonzero;stroke:none"
           d="m 114.002,113.768 h 1.657 v -9.108 h -1.657 z m 1.845,2.559 c 0.019,-0.564 -0.395,-1.016 -1.054,-1.016 -0.584,0 -0.997,0.452 -0.997,1.016 0,0.583 0.433,1.035 1.035,1.035 0.621,0 1.016,-0.452 1.016,-1.035" /><g
           transform="translate(119.0464,113.7676)"
           id="g62"><path
             id="path64"
             style="fill:#231f20;fill-opacity:1;fill-rule:nonzero;stroke:none"
             d="M 0,0 1.788,-5.119 C 2.089,-5.946 2.333,-6.7 2.521,-7.453 h 0.057 c 0.207,0.753 0.47,1.507 0.772,2.334 L 5.118,0 H 6.851 L 3.274,-9.108 H 1.694 L -1.77,0 Z" /></g><g
           transform="translate(133.0474,110.0977)"
           id="g66"><path
             id="path68"
             style="fill:#231f20;fill-opacity:1;fill-rule:nonzero;stroke:none"
             d="M 0,0 C 0.019,1.054 -0.433,2.69 -2.296,2.69 -3.972,2.69 -4.706,1.148 -4.837,0 Z m -4.855,-1.186 c 0.037,-2.239 1.468,-3.161 3.124,-3.161 1.185,0 1.901,0.207 2.521,0.471 l 0.283,-1.187 c -0.584,-0.263 -1.581,-0.564 -3.031,-0.564 -2.804,0 -4.479,1.844 -4.479,4.592 0,2.748 1.619,4.912 4.272,4.912 2.974,0 3.765,-2.616 3.765,-4.291 0,-0.339 -0.038,-0.602 -0.057,-0.772 z" /></g><g
           transform="translate(136.6968,111.3027)"
           id="g70"><path
             id="path72"
             style="fill:#231f20;fill-opacity:1;fill-rule:nonzero;stroke:none"
             d="M 0,0 C 0,0.94 -0.018,1.712 -0.075,2.465 H 1.394 L 1.487,0.959 h 0.038 c 0.452,0.865 1.505,1.713 3.011,1.713 1.261,0 3.218,-0.753 3.218,-3.877 V -6.644 H 6.098 v 5.251 C 6.098,0.075 5.553,1.298 3.99,1.298 2.898,1.298 2.052,0.526 1.77,-0.396 1.694,-0.603 1.657,-0.885 1.657,-1.167 V -6.644 H 0 Z" /></g><g
           transform="translate(151.7705,113.7676)"
           id="g74"><path
             id="path76"
             style="fill:#231f20;fill-opacity:1;fill-rule:nonzero;stroke:none"
             d="M 0,0 1.787,-5.119 C 2.089,-5.946 2.333,-6.7 2.521,-7.453 H 2.577 C 2.785,-6.7 3.048,-5.946 3.35,-5.119 L 5.118,0 H 6.851 L 3.274,-9.108 H 1.694 L -1.77,0 Z" /></g><g
           transform="translate(159.8438,106.3535)"
           id="g78"><path
             id="path80"
             style="fill:#231f20;fill-opacity:1;fill-rule:nonzero;stroke:none"
             d="m 0,0 c 0.489,-0.321 1.355,-0.659 2.183,-0.659 1.204,0 1.769,0.602 1.769,1.354 0,0.79 -0.471,1.224 -1.694,1.675 -1.637,0.584 -2.409,1.487 -2.409,2.579 0,1.468 1.185,2.672 3.143,2.672 0.922,0 1.731,-0.263 2.239,-0.564 L 4.817,5.852 C 4.46,6.078 3.801,6.379 2.955,6.379 1.976,6.379 1.43,5.814 1.43,5.137 c 0,-0.753 0.546,-1.092 1.732,-1.543 1.58,-0.603 2.39,-1.393 2.39,-2.748 0,-1.6 -1.243,-2.729 -3.406,-2.729 -0.998,0 -1.921,0.244 -2.56,0.622 z" /></g><g
           transform="translate(172.3203,109.3076)"
           id="g82"><path
             id="path84"
             style="fill:#231f20;fill-opacity:1;fill-rule:nonzero;stroke:none"
             d="m 0,0 c -1.807,0.037 -3.858,-0.282 -3.858,-2.052 0,-1.073 0.715,-1.58 1.562,-1.58 1.185,0 1.939,0.753 2.201,1.524 C -0.038,-1.938 0,-1.75 0,-1.581 Z M 0.244,-4.648 0.112,-3.501 H 0.057 c -0.509,-0.714 -1.488,-1.354 -2.786,-1.354 -1.844,0 -2.786,1.298 -2.786,2.615 0,2.202 1.958,3.406 5.477,3.387 v 0.189 c 0,0.753 -0.207,2.107 -2.07,2.107 -0.847,0 -1.732,-0.262 -2.371,-0.677 l -0.377,1.091 c 0.753,0.491 1.845,0.81 2.993,0.81 C 0.922,4.667 1.6,2.766 1.6,0.94 v -3.406 c 0,-0.79 0.037,-1.561 0.15,-2.182 z" /></g><g
           transform="translate(178.2285,109.5889)"
           id="g86"><path
             id="path88"
             style="fill:#231f20;fill-opacity:1;fill-rule:nonzero;stroke:none"
             d="M 0,0 H 0.038 C 0.264,0.321 0.584,0.717 0.847,1.036 L 3.52,4.179 H 5.515 L 1.995,0.434 6.004,-4.93 H 3.99 L 0.847,-0.563 0,-1.505 V -4.93 H -1.638 V 8.432 H 0 Z" /></g><g
           transform="translate(191.6289,110.0596)"
           id="g90"><path
             id="path92"
             style="fill:#231f20;fill-opacity:1;fill-rule:nonzero;stroke:none"
             d="m 0,0 c 0,0.207 -0.02,0.49 -0.075,0.697 -0.246,1.054 -1.149,1.919 -2.39,1.919 -1.714,0 -2.73,-1.505 -2.73,-3.518 0,-1.845 0.904,-3.369 2.691,-3.369 1.11,0 2.127,0.733 2.429,1.976 C -0.02,-2.069 0,-1.844 0,-1.58 Z M 1.655,7.961 V -3.048 c 0,-0.809 0.02,-1.731 0.076,-2.352 H 0.244 L 0.169,-3.82 H 0.132 c -0.509,-1.016 -1.619,-1.787 -3.106,-1.787 -2.202,0 -3.896,1.862 -3.896,4.629 -0.018,3.031 1.863,4.893 4.084,4.893 1.392,0 2.334,-0.658 2.748,-1.393 H 0 v 5.439 z" /></g><g
           transform="translate(200.8311,109.3076)"
           id="g94"><path
             id="path96"
             style="fill:#231f20;fill-opacity:1;fill-rule:nonzero;stroke:none"
             d="m 0,0 c -1.807,0.037 -3.858,-0.282 -3.858,-2.052 0,-1.073 0.715,-1.58 1.562,-1.58 1.185,0 1.938,0.753 2.201,1.524 C -0.038,-1.938 0,-1.75 0,-1.581 Z M 0.244,-4.648 0.112,-3.501 H 0.057 c -0.508,-0.714 -1.488,-1.354 -2.786,-1.354 -1.844,0 -2.786,1.298 -2.786,2.615 0,2.202 1.958,3.406 5.477,3.387 v 0.189 c 0,0.753 -0.207,2.107 -2.07,2.107 -0.847,0 -1.732,-0.262 -2.371,-0.677 l -0.377,1.091 c 0.753,0.491 1.845,0.81 2.993,0.81 C 0.922,4.667 1.6,2.766 1.6,0.94 v -3.406 c 0,-0.79 0.037,-1.561 0.15,-2.182 z" /></g><g
           transform="translate(205.1016,111.3027)"
           id="g98"><path
             id="path100"
             style="fill:#231f20;fill-opacity:1;fill-rule:nonzero;stroke:none"
             d="M 0,0 C 0,0.94 -0.018,1.712 -0.074,2.465 H 1.394 L 1.487,0.959 h 0.038 c 0.452,0.865 1.505,1.713 3.012,1.713 1.261,0 3.218,-0.753 3.218,-3.877 V -6.644 H 6.098 v 5.251 C 6.098,0.075 5.553,1.298 3.99,1.298 2.898,1.298 2.053,0.526 1.77,-0.396 1.694,-0.603 1.657,-0.885 1.657,-1.167 V -6.644 H 0 Z" /></g></g></g></g></svg>