<?xml version="1.0" encoding="UTF-8" standalone="no"?>
<!-- Created with Inkscape (http://www.inkscape.org/) -->

<svg
   width="64.542297mm"
   height="23.99489mm"
   viewBox="0 0 64.542297 23.99489"
   version="1.1"
   id="svg5"
   inkscape:version="1.1.2 (b8e25be8, 2022-02-05)"
   sodipodi:docname="Kempa-logo.svg"
   xmlns:inkscape="http://www.inkscape.org/namespaces/inkscape"
   xmlns:sodipodi="http://sodipodi.sourceforge.net/DTD/sodipodi-0.dtd"
   xmlns="http://www.w3.org/2000/svg"
   xmlns:svg="http://www.w3.org/2000/svg">
  <sodipodi:namedview
     id="namedview7"
     pagecolor="#ffffff"
     bordercolor="#666666"
     borderopacity="1.0"
     inkscape:pageshadow="2"
     inkscape:pageopacity="0.0"
     inkscape:pagecheckerboard="0"
     inkscape:document-units="mm"
     showgrid="false"
     fit-margin-top="0"
     fit-margin-left="0"
     fit-margin-right="0"
     fit-margin-bottom="0"
     inkscape:zoom="1.7140011"
     inkscape:cx="120.77005"
     inkscape:cy="-0.87514529"
     inkscape:window-width="1280"
     inkscape:window-height="677"
     inkscape:window-x="0"
     inkscape:window-y="25"
     inkscape:window-maximized="0"
     inkscape:current-layer="layer1" />
  <defs
     id="defs2" />
  <g
     inkscape:label="Layer 1"
     inkscape:groupmode="layer"
     id="layer1"
     transform="translate(-96.865173,-82.007309)">
    <g
       transform="matrix(0.26458333,0,0,0.26458333,38.335611,-33.548663)"
       id="layer1-3">
      <path
         id="path32"
         style="fill:#000000;fill-opacity:1;fill-rule:nonzero;stroke:none"
         d="M 220.56077,527.43631 H 465.15352 V 211.57381 H 220.56077 Z" />
      <path
         id="path36"
         d="m 229.96556,447.24872 v 54.33405 h 14.21205 v -21.29701 h 4.26219 l 14.84899,21.29701 h 17.61844 l -20.31773,-27.67491 18.75483,-26.65914 h -17.19475 l -13.70978,20.42999 h -4.26219 v -20.42999 z m 202.62187,15.8002 c -10.23244,0 -14.14189,4.63663 -14.14189,16.22669 v 8.69559 c 0,10.07441 5.11802,13.98475 14.14189,13.98475 5.32453,0 9.23825,-1.30666 10.65693,-6.44802 h 0.56679 l -0.28339,6.01029 h 12.21983 v -38.20835 h -12.21983 v 5.90087 h -0.56679 c -1.98975,-5.21858 -5.89842,-6.16182 -10.37354,-6.16182 z m -30.91013,0.0645 c -5.32812,0 -9.23365,1.30487 -10.65412,6.44803 h -0.57241 l 0.2862,-6.0131 h -12.21983 v 54.48276 h 12.21983 v -22.16967 h 0.56961 c 1.98975,5.21678 5.89381,6.15622 10.37072,6.15622 10.23065,0 14.1419,-4.63563 14.1419,-16.2239 v -8.69557 c 0,-10.07082 -5.12161,-13.98477 -14.1419,-13.98477 z m -105.63768,0.003 c -14.9913,0 -18.2582,4.85145 -18.2582,19.48718 0,14.20115 3.55064,19.41703 18.2582,19.41703 5.39996,0 9.94468,-0.43458 13.14299,-2.24474 3.1965,-1.88379 5.04225,-5.14697 5.04225,-10.87017 h -12.00378 c 0,3.98487 -2.41747,4.41934 -6.18146,4.41934 -5.04439,0 -6.03837,-1.95562 -6.03837,-8.61982 h 24.22361 v -2.10164 c 0,-15.5031 -4.1906,-19.48718 -18.18524,-19.48718 z m 43.90159,0 c -4.19139,0 -8.73711,1.30216 -10.22762,5.79704 h -0.49664 v -5.36213 h -11.86347 v 38.03439 h 12.21701 V 479.9969 c 0,-4.56312 0.92383,-7.31787 5.96822,-7.31787 4.26142,0 4.47389,2.39154 4.61576,5.86999 v 23.0367 H 352.3771 V 479.9969 c 0,-4.0585 0.92135,-7.31787 5.68201,-7.31787 4.75886,0 4.68826,2.89527 4.90196,6.88014 v 22.02655 h 12.21983 v -26.01098 c 0,-8.83531 -4.408,-12.45832 -13.00268,-12.45832 -4.68703,0 -9.73142,2.02509 -10.37072,7.46095 h -0.56961 c -0.63751,-6.52052 -6.03679,-7.46095 -11.29668,-7.46095 z m -44.11484,8.68992 c 4.12315,0 6.18146,0.36275 6.18146,6.01592 h -12.00658 c 0.14008,-4.9995 1.49186,-6.01592 5.82512,-6.01592 z m 141.59007,0.80811 c 5.68549,0 6.11132,3.47656 6.11132,9.85164 0,8.04157 -0.92506,9.92457 -6.11132,9.92457 -6.46486,0 -6.74826,-2.53667 -6.74826,-9.92457 0,-8.61982 1.70387,-9.85164 6.74826,-9.85164 z m -40.56815,0.0645 c 6.46307,0 6.74826,2.53667 6.74826,9.92457 0,8.62161 -1.70566,9.85162 -6.74826,9.85162 -5.68369,0 -6.11132,-3.47475 -6.11132,-9.85162 0,-8.04157 0.92507,-9.92457 6.11132,-9.92457 z"
         style="fill:#ffffff;fill-opacity:1;fill-rule:nonzero;stroke:none" />
    </g>
  </g>
</svg>
