<?xml version="1.0" encoding="UTF-8" standalone="no"?>
<!-- Created with Inkscape (http://www.inkscape.org/) -->

<svg
   version="1.1"
   id="svg2"
   xml:space="preserve"
   width="321.396"
   height="119.85794"
   viewBox="0 0 321.39599 119.85794"
   sodipodi:docname="LLGrosist-logo.svg"
   inkscape:version="1.1.2 (b8e25be8, 2022-02-05)"
   xmlns:inkscape="http://www.inkscape.org/namespaces/inkscape"
   xmlns:sodipodi="http://sodipodi.sourceforge.net/DTD/sodipodi-0.dtd"
   xmlns="http://www.w3.org/2000/svg"
   xmlns:svg="http://www.w3.org/2000/svg"><defs
     id="defs6"><clipPath
       clipPathUnits="userSpaceOnUse"
       id="clipPath16"><path
         d="M 0,841.89 H 595.276 V 0 H 0 Z"
         id="path14" /></clipPath></defs><sodipodi:namedview
     id="namedview4"
     pagecolor="#ffffff"
     bordercolor="#666666"
     borderopacity="1.0"
     inkscape:pageshadow="2"
     inkscape:pageopacity="0.0"
     inkscape:pagecheckerboard="0"
     showgrid="false"
     inkscape:zoom="0.42850015"
     inkscape:cx="248.54133"
     inkscape:cy="512.25186"
     inkscape:window-width="1280"
     inkscape:window-height="677"
     inkscape:window-x="0"
     inkscape:window-y="25"
     inkscape:window-maximized="0"
     inkscape:current-layer="g8" /><g
     id="g8"
     inkscape:groupmode="layer"
     inkscape:label="LLGrosist-logo"
     transform="matrix(1.3333333,0,0,-1.3333333,-149.75413,1074.5195)"><g
       id="g10"><g
         id="g12"
         clip-path="url(#clipPath16)"><g
           id="g18"
           transform="translate(129.8286,805.7852)"><path
             d="m 0,0 -0.737,-0.087 -0.001,-0.771 c 0,-0.697 0.238,-6.996 8.501,-13.483 1.582,-1.117 3.206,-2.021 4.866,-2.721 -7.244,-0.72 -30.142,-5.125 -30.142,-32.205 v -8.157 c 0,-0.324 0.371,-32.365 32.364,-32.365 h 176.317 c 0.325,0 32.366,0.371 32.366,32.365 v 8.157 c 0,0.324 -0.37,32.359 -32.366,32.359 H 24.057 C 23.671,-14.8 22.013,-8.466 15.409,-3.699 8.845,0.983 0.358,0.042 0,0"
             style="fill:#ffffff;fill-opacity:1;fill-rule:nonzero;stroke:none"
             id="path20" /></g><g
           id="g22"
           transform="translate(320.998,788.043)"><path
             d="m 0,0 h -167.82 c -0.042,0.415 -0.918,7.946 -8.43,13.366 -6.342,4.525 -14.737,3.557 -14.821,3.547 0,0 -0.001,-0.016 -0.001,-0.029 0,-0.525 0.18,-6.544 8.181,-12.826 3.656,-2.581 7.078,-3.652 9.744,-4.058 h -3.171 c -0.315,0 -31.53,-0.361 -31.53,-31.524 v -8.158 c 0,-0.316 0.361,-31.529 31.53,-31.529 H 0 c 0.316,0 31.53,0.361 31.53,31.529 v 8.158 C 31.53,-31.209 31.17,0 0,0"
             style="fill:#ffffff;fill-opacity:1;fill-rule:nonzero;stroke:none"
             id="path24" /></g><g
           id="g26"
           transform="translate(320.998,788.043)"><path
             d="m 0,0 h -167.82 c -0.042,0.415 -0.918,7.946 -8.43,13.366 -6.342,4.525 -14.737,3.557 -14.821,3.547 0,0 -0.001,-0.016 -0.001,-0.029 0,-0.525 0.18,-6.544 8.181,-12.826 3.656,-2.581 7.078,-3.652 9.744,-4.058 h -3.171 c -0.315,0 -31.53,-0.361 -31.53,-31.524 v -8.158 c 0,-0.316 0.361,-31.529 31.53,-31.529 H 0 c 0.316,0 31.53,0.361 31.53,31.529 v 8.158 C 31.53,-31.209 31.17,0 0,0"
             style="fill:#76b648;fill-opacity:1;fill-rule:nonzero;stroke:none"
             id="path28" /></g><g
           id="g30"
           transform="translate(129.8286,805.7852)"><path
             d="m 0,0 -0.737,-0.087 -0.001,-0.771 c 0,-0.697 0.238,-6.996 8.501,-13.483 1.582,-1.117 3.206,-2.021 4.866,-2.721 -7.244,-0.72 -30.142,-5.125 -30.142,-32.205 v -8.157 c 0,-0.324 0.371,-32.365 32.364,-32.365 h 176.317 c 0.325,0 32.366,0.371 32.366,32.365 v 8.157 c 0,0.324 -0.37,32.359 -32.366,32.359 H 24.057 C 23.671,-14.8 22.013,-8.466 15.409,-3.699 8.845,0.983 0.358,0.042 0,0"
             style="fill:#ffffff;fill-opacity:1;fill-rule:nonzero;stroke:none"
             id="path32" /></g><g
           id="g34"
           transform="translate(320.998,788.043)"><path
             d="m 0,0 h -167.82 c -0.042,0.415 -0.918,7.946 -8.43,13.366 -6.342,4.525 -14.737,3.557 -14.821,3.547 0,0 -0.001,-0.016 -0.001,-0.029 0,-0.525 0.18,-6.544 8.181,-12.826 3.656,-2.581 7.078,-3.652 9.744,-4.058 h -3.171 c -0.315,0 -31.53,-0.361 -31.53,-31.524 v -8.158 c 0,-0.316 0.361,-31.529 31.53,-31.529 H 0 c 0.316,0 31.53,0.361 31.53,31.529 v 8.158 C 31.53,-31.209 31.17,0 0,0"
             style="fill:#ffffff;fill-opacity:1;fill-rule:nonzero;stroke:none"
             id="path36" /></g><g
           id="g38"
           transform="translate(320.998,788.043)"><path
             d="m 0,0 h -167.82 c -0.042,0.415 -0.918,7.946 -8.43,13.366 -6.342,4.525 -14.737,3.557 -14.821,3.547 0,0 -0.001,-0.016 -0.001,-0.029 0,-0.525 0.18,-6.544 8.181,-12.826 3.656,-2.581 7.078,-3.652 9.744,-4.058 h -3.171 c -0.315,0 -31.53,-0.361 -31.53,-31.524 v -8.158 c 0,-0.316 0.361,-31.529 31.53,-31.529 H 0 c 0.316,0 31.53,0.361 31.53,31.529 v 8.158 C 31.53,-31.209 31.17,0 0,0"
             style="fill:#7ab51d;fill-opacity:1;fill-rule:nonzero;stroke:none"
             id="path40" /></g><g
           id="g42"
           transform="translate(188.1079,753.9063)"><path
             d="m 0,0 v 2.834 c 0,0 0,30.395 -30.397,30.395 h -4.463 -0.048 v -8.864 h 5.537 c 2.171,0 2.171,-2.172 2.171,-2.172 V 8.14 h 14.474 c 2.172,0 2.172,-2.17 2.172,-2.17 V 0 Z"
             style="fill:#ffffff;fill-opacity:1;fill-rule:nonzero;stroke:none"
             id="path44" /></g><g
           id="g46"
           transform="translate(149.8218,787.1357)"><path
             d="m 0,0 h -5.137 c 0,0 -30.396,0 -30.396,-30.396 v -2.833 H -25.1 v 5.97 c 0,2.17 2.172,2.17 2.172,2.17 h 14.594 v 14.052 c 0,2.172 2.171,2.172 2.171,2.172 H 0 Z"
             style="fill:#ffffff;fill-opacity:1;fill-rule:nonzero;stroke:none"
             id="path48" /></g><g
           id="g50"
           transform="translate(114.2881,750.5288)"><path
             d="m 0,0 v -2.473 c 0,0 0,-30.397 30.396,-30.397 h 5.137 v 8.745 h -6.162 c -2.171,0 -2.171,2.172 -2.171,2.172 V -7.9 H 12.605 c -2.171,0 -2.171,2.17 -2.171,2.17 V 0 Z"
             style="fill:#ffffff;fill-opacity:1;fill-rule:nonzero;stroke:none"
             id="path52" /></g><g
           id="g54"
           transform="translate(153.1992,717.6587)"><path
             d="m 0,0 h 4.512 c 0,0 30.396,0 30.396,30.397 V 32.87 H 24.354 v -5.731 c 0,-2.17 -2.171,-2.17 -2.171,-2.17 H 7.708 V 10.917 c 0,-2.172 -2.17,-2.172 -2.17,-2.172 H 0 Z"
             style="fill:#ffffff;fill-opacity:1;fill-rule:nonzero;stroke:none"
             id="path56" /></g><g
           id="g58"
           transform="translate(188.1079,753.9063)"><path
             d="m 0,0 v 2.834 c 0,0 0,30.395 -30.397,30.395 h -4.463 -0.048 v -8.864 h 5.537 c 2.171,0 2.171,-2.172 2.171,-2.172 V 8.14 h 14.474 c 2.172,0 2.172,-2.17 2.172,-2.17 V 0 Z"
             style="fill:#ffffff;fill-opacity:1;fill-rule:nonzero;stroke:none"
             id="path60" /></g><g
           id="g62"
           transform="translate(149.8218,787.1357)"><path
             d="m 0,0 h -5.137 c 0,0 -30.396,0 -30.396,-30.396 v -2.833 H -25.1 v 5.97 c 0,2.17 2.172,2.17 2.172,2.17 h 14.594 v 14.052 c 0,2.172 2.171,2.172 2.171,2.172 H 0 Z"
             style="fill:#ffffff;fill-opacity:1;fill-rule:nonzero;stroke:none"
             id="path64" /></g><g
           id="g66"
           transform="translate(114.2881,750.5288)"><path
             d="m 0,0 v -2.473 c 0,0 0,-30.397 30.396,-30.397 h 5.137 v 8.745 h -6.162 c -2.171,0 -2.171,2.172 -2.171,2.172 V -7.9 H 12.605 c -2.171,0 -2.171,2.17 -2.171,2.17 V 0 Z"
             style="fill:#ffffff;fill-opacity:1;fill-rule:nonzero;stroke:none"
             id="path68" /></g><g
           id="g70"
           transform="translate(153.1992,717.6587)"><path
             d="m 0,0 h 4.512 c 0,0 30.396,0 30.396,30.397 V 32.87 H 24.354 v -5.731 c 0,-2.17 -2.171,-2.17 -2.171,-2.17 H 7.708 V 10.917 c 0,-2.172 -2.17,-2.172 -2.17,-2.172 H 0 Z"
             style="fill:#ffffff;fill-opacity:1;fill-rule:nonzero;stroke:none"
             id="path72" /></g><g
           id="g74"
           transform="translate(202.2856,759.2295)"><path
             d="M 0,0 C 0,0.833 -0.51,1.351 -1.32,1.351 -2.13,1.351 -2.64,0.833 -2.64,0 v -17.905 c 0,-0.776 0.42,-1.38 1.41,-1.38 h 6.87 c 0.75,0 1.29,0.374 1.29,1.179 0,0.804 -0.54,1.178 -1.29,1.178 H 0 Z"
             style="fill:none;stroke:#ffffff;stroke-width:0.6;stroke-linecap:butt;stroke-linejoin:miter;stroke-miterlimit:4;stroke-dasharray:none;stroke-opacity:1"
             id="path76" /></g><g
           id="g78"
           transform="translate(214.8555,759.2295)"><path
             d="M 0,0 C 0,0.833 -0.51,1.351 -1.32,1.351 -2.13,1.351 -2.64,0.833 -2.64,0 v -17.905 c 0,-0.776 0.42,-1.38 1.41,-1.38 h 6.87 c 0.75,0 1.29,0.374 1.29,1.179 0,0.804 -0.54,1.178 -1.29,1.178 H 0 Z"
             style="fill:none;stroke:#ffffff;stroke-width:0.6;stroke-linecap:butt;stroke-linejoin:miter;stroke-miterlimit:4;stroke-dasharray:none;stroke-opacity:1"
             id="path80" /></g><g
           id="g82"
           transform="translate(248.2148,749.314)"><path
             d="m 0,0 v -1.207 c 0,-2.759 -2.01,-6.15 -6.15,-6.15 -4.98,0 -6.87,4.311 -6.87,8.219 0,3.909 1.95,8.22 6.75,8.22 3.84,0 4.92,-2.299 6.24,-2.299 0.75,0 1.26,0.546 1.26,1.207 0,1.092 -2.94,3.276 -7.32,3.276 -6.69,0 -9.75,-5.087 -9.75,-10.404 0,-5.317 3.21,-10.404 9.36,-10.404 7.26,0 9.12,4.886 9.12,9.829 0,1.581 -0.57,2.07 -1.92,2.07 H -3.72 C -4.47,2.357 -5.01,1.983 -5.01,1.178 -5.01,0.374 -4.47,0 -3.72,0 Z"
             style="fill:none;stroke:#ffffff;stroke-width:0.6;stroke-linecap:butt;stroke-linejoin:miter;stroke-miterlimit:4;stroke-dasharray:none;stroke-opacity:1"
             id="path84" /></g><g
           id="g86"
           transform="translate(256.7349,748.9116)"><path
             d="m 0,0 8.16,-8.565 c 0.3,-0.316 0.66,-0.574 1.2,-0.574 0.66,0 1.2,0.431 1.2,0.977 0,0.46 -0.15,0.776 -0.51,1.149 L 3.24,0.144 4.38,0.172 c 3.18,0.115 5.82,1.667 5.82,5.806 0,3.334 -3.18,5.518 -6.54,5.518 h -4.89 c -0.99,0 -1.41,-0.604 -1.41,-1.379 V -7.789 c 0,-0.833 0.51,-1.35 1.32,-1.35 0.81,0 1.32,0.517 1.32,1.35 z M 0,9.312 H 3.54 C 6,9.312 7.56,7.702 7.56,5.805 7.56,3.161 6.36,2.041 3.6,2.041 H 0 Z"
             style="fill:none;stroke:#ffffff;stroke-width:0.6;stroke-linecap:butt;stroke-linejoin:miter;stroke-miterlimit:4;stroke-dasharray:none;stroke-opacity:1"
             id="path88" /></g><g
           id="g90"
           transform="translate(272.5747,750.1763)"><path
             d="m 0,0 c 0,3.909 1.74,8.22 6.54,8.22 4.8,0 6.54,-4.311 6.54,-8.22 0,-3.909 -1.74,-8.22 -6.54,-8.22 C 1.74,-8.22 0,-3.909 0,0 Z m -2.82,0 c 0,-5.317 3.27,-10.404 9.36,-10.404 6.09,0 9.36,5.087 9.36,10.404 0,5.317 -3.27,10.404 -9.36,10.404 C 0.45,10.404 -2.82,5.317 -2.82,0 Z"
             style="fill:none;stroke:#ffffff;stroke-width:0.6;stroke-linecap:butt;stroke-linejoin:miter;stroke-miterlimit:4;stroke-dasharray:none;stroke-opacity:1"
             id="path92" /></g><g
           id="g94"
           transform="translate(297.4443,760.5801)"><path
             d="m 0,0 c -3.96,0 -6.3,-2.874 -6.3,-5.259 0,-6.697 10.14,-4.34 10.14,-9.197 0,-2.271 -1.65,-4.168 -4.38,-4.168 -2.7,0 -3.96,1.581 -4.86,1.581 -0.75,0 -1.11,-0.603 -1.11,-1.293 0,-1.437 3.12,-2.472 5.94,-2.472 4.65,0 7.23,3.075 7.23,6.467 0,6.897 -10.14,4.742 -10.14,9.254 0,1.724 1.44,2.903 3.39,2.903 2.64,0 3.03,-1.322 4.2,-1.322 0.661,0 1.14,0.517 1.14,1.121 C 5.25,-1.063 2.64,0 0,0 Z"
             style="fill:none;stroke:#ffffff;stroke-width:0.6;stroke-linecap:butt;stroke-linejoin:miter;stroke-miterlimit:4;stroke-dasharray:none;stroke-opacity:1"
             id="path96" /></g><g
           id="g98"
           transform="translate(310.0137,759.2295)"><path
             d="M 0,0 C 0,0.833 -0.51,1.351 -1.319,1.351 -2.13,1.351 -2.64,0.833 -2.64,0 v -18.106 c 0,-0.834 0.51,-1.351 1.321,-1.351 0.809,0 1.319,0.517 1.319,1.351 z"
             style="fill:none;stroke:#ffffff;stroke-width:0.6;stroke-linecap:butt;stroke-linejoin:miter;stroke-miterlimit:4;stroke-dasharray:none;stroke-opacity:1"
             id="path100" /></g><g
           id="g102"
           transform="translate(319.7939,760.5801)"><path
             d="m 0,0 c -3.96,0 -6.3,-2.874 -6.3,-5.259 0,-6.697 10.14,-4.34 10.14,-9.197 0,-2.271 -1.65,-4.168 -4.38,-4.168 -2.7,0 -3.96,1.581 -4.86,1.581 -0.75,0 -1.11,-0.603 -1.11,-1.293 0,-1.437 3.12,-2.472 5.94,-2.472 4.65,0 7.23,3.075 7.23,6.467 0,6.897 -10.14,4.742 -10.14,9.254 0,1.724 1.44,2.903 3.39,2.903 2.64,0 3.03,-1.322 4.2,-1.322 0.66,0 1.14,0.517 1.14,1.121 C 5.25,-1.063 2.64,0 0,0 Z"
             style="fill:none;stroke:#ffffff;stroke-width:0.6;stroke-linecap:butt;stroke-linejoin:miter;stroke-miterlimit:4;stroke-dasharray:none;stroke-opacity:1"
             id="path104" /></g><g
           id="g106"
           transform="translate(333.3232,741.123)"><path
             d="m 0,0 c 0,-0.833 0.511,-1.351 1.32,-1.351 0.81,0 1.321,0.518 1.321,1.351 V 16.928 H 6.63 c 0.75,0 1.29,0.373 1.29,1.178 0,0.805 -0.54,1.179 -1.29,1.179 H -3.989 c -0.75,0 -1.29,-0.374 -1.29,-1.179 0,-0.805 0.54,-1.178 1.29,-1.178 H 0 Z"
             style="fill:none;stroke:#ffffff;stroke-width:0.6;stroke-linecap:butt;stroke-linejoin:miter;stroke-miterlimit:4;stroke-dasharray:none;stroke-opacity:1"
             id="path108" /></g><g
           id="g110"
           transform="translate(202.2852,742.3022)"><path
             d="m 0,0 h 5.64 c 0.75,0 1.29,-0.374 1.29,-1.179 0,-0.805 -0.54,-1.178 -1.29,-1.178 h -6.87 c -0.99,0 -1.41,0.603 -1.41,1.379 v 17.91 c 0,0.834 0.51,1.351 1.32,1.351 0.81,0 1.32,-0.517 1.32,-1.351 z"
             style="fill:#ffffff;fill-opacity:1;fill-rule:nonzero;stroke:none"
             id="path112" /></g><g
           id="g114"
           transform="translate(214.855,742.3022)"><path
             d="m 0,0 h 5.64 c 0.75,0 1.29,-0.374 1.29,-1.179 0,-0.805 -0.54,-1.178 -1.29,-1.178 h -6.87 c -0.99,0 -1.41,0.603 -1.41,1.379 v 17.91 c 0,0.834 0.51,1.351 1.32,1.351 0.81,0 1.32,-0.517 1.32,-1.351 z"
             style="fill:#ffffff;fill-opacity:1;fill-rule:nonzero;stroke:none"
             id="path116" /></g><g
           id="g118"
           transform="translate(244.4644,749.3164)"><path
             d="m 0,0 c -0.75,0 -1.29,0.374 -1.29,1.179 0,0.805 0.54,1.178 1.29,1.178 h 4.44 c 1.35,0 1.92,-0.488 1.92,-2.069 0,-4.945 -1.86,-9.832 -9.12,-9.832 -6.15,0 -9.359,5.088 -9.359,10.406 0,5.319 3.059,10.407 9.749,10.407 4.38,0 7.32,-2.185 7.32,-3.277 0,-0.661 -0.51,-1.207 -1.26,-1.207 -1.32,0 -2.4,2.299 -6.24,2.299 -4.8,0 -6.749,-4.312 -6.749,-8.222 0,-3.909 1.889,-8.221 6.869,-8.221 4.14,0 6.15,3.392 6.15,6.152 L 3.72,0 Z"
             style="fill:#ffffff;fill-opacity:1;fill-rule:nonzero;stroke:none"
             id="path120" /></g><g
           id="g122"
           transform="translate(256.7046,750.9551)"><path
             d="M 0,0 H 3.6 C 6.36,0 7.56,1.121 7.56,3.766 7.56,5.663 6,7.273 3.54,7.273 H 0 Z m 0,-9.832 c 0,-0.833 -0.51,-1.351 -1.32,-1.351 -0.81,0 -1.32,0.518 -1.32,1.351 v 17.91 c 0,0.776 0.42,1.38 1.41,1.38 h 4.89 c 3.36,0 6.54,-2.185 6.54,-5.52 0,-4.139 -2.64,-5.691 -5.82,-5.807 l -1.14,-0.028 6.809,-7.159 c 0.361,-0.373 0.511,-0.689 0.511,-1.149 0,-0.546 -0.54,-0.978 -1.201,-0.978 -0.539,0 -0.9,0.259 -1.199,0.575 L 0,-2.041 Z"
             style="fill:#ffffff;fill-opacity:1;fill-rule:nonzero;stroke:none"
             id="path124" /></g><g
           id="g126"
           transform="translate(279.0542,741.957)"><path
             d="m 0,0 c 4.8,0 6.54,4.313 6.54,8.222 0,3.91 -1.74,8.222 -6.54,8.222 -4.8,0 -6.54,-4.312 -6.54,-8.222 C -6.54,4.313 -4.8,0 0,0 M 0,18.628 C 6.09,18.628 9.36,13.54 9.36,8.222 9.36,2.904 6.09,-2.185 0,-2.185 c -6.09,0 -9.359,5.089 -9.359,10.407 0,5.318 3.269,10.406 9.359,10.406"
             style="fill:#ffffff;fill-opacity:1;fill-rule:nonzero;stroke:none"
             id="path128" /></g><g
           id="g130"
           transform="translate(302.6338,758.1997)"><path
             d="m 0,0 c 0,-0.604 -0.48,-1.122 -1.14,-1.122 -1.17,0 -1.56,1.323 -4.2,1.323 -1.95,0 -3.39,-1.179 -3.39,-2.904 0,-4.513 10.14,-2.357 10.14,-9.256 0,-3.393 -2.58,-6.468 -7.23,-6.468 -2.82,0 -5.94,1.034 -5.94,2.472 0,0.69 0.36,1.293 1.11,1.293 0.9,0 2.16,-1.581 4.86,-1.581 2.73,0 4.38,1.898 4.38,4.169 0,4.858 -10.14,2.501 -10.14,9.199 0,2.386 2.34,5.261 6.3,5.261 C -2.61,2.386 0,1.322 0,0"
             style="fill:#ffffff;fill-opacity:1;fill-rule:nonzero;stroke:none"
             id="path132" /></g><g
           id="g134"
           transform="translate(309.9541,741.1235)"><path
             d="m 0,0 c 0,-0.833 -0.51,-1.351 -1.32,-1.351 -0.81,0 -1.32,0.518 -1.32,1.351 v 18.111 c 0,0.834 0.51,1.351 1.32,1.351 0.81,0 1.32,-0.517 1.32,-1.351 z"
             style="fill:#ffffff;fill-opacity:1;fill-rule:nonzero;stroke:none"
             id="path136" /></g><g
           id="g138"
           transform="translate(324.9834,758.1997)"><path
             d="m 0,0 c 0,-0.604 -0.48,-1.122 -1.14,-1.122 -1.17,0 -1.56,1.323 -4.2,1.323 -1.95,0 -3.389,-1.179 -3.389,-2.904 0,-4.513 10.139,-2.357 10.139,-9.256 0,-3.393 -2.58,-6.468 -7.23,-6.468 -2.82,0 -5.94,1.034 -5.94,2.472 0,0.69 0.361,1.293 1.111,1.293 0.899,0 2.159,-1.581 4.859,-1.581 2.73,0 4.38,1.898 4.38,4.169 0,4.858 -10.14,2.501 -10.14,9.199 0,2.386 2.34,5.261 6.3,5.261 C -2.61,2.386 0,1.322 0,0"
             style="fill:#ffffff;fill-opacity:1;fill-rule:nonzero;stroke:none"
             id="path140" /></g><g
           id="g142"
           transform="translate(333.2627,758.0557)"><path
             d="m 0,0 h -3.99 c -0.75,0 -1.29,0.374 -1.29,1.179 0,0.805 0.54,1.178 1.29,1.178 H 6.63 C 7.38,2.357 7.92,1.984 7.92,1.179 7.92,0.374 7.38,0 6.63,0 H 2.64 v -16.932 c 0,-0.834 -0.51,-1.351 -1.32,-1.351 -0.81,0 -1.32,0.517 -1.32,1.351 z"
             style="fill:#ffffff;fill-opacity:1;fill-rule:nonzero;stroke:none"
             id="path144" /></g></g></g></g></svg>
