<?xml version="1.0" encoding="UTF-8" standalone="no"?>
<svg
   width="464.31845pt"
   height="139.83545pt"
   viewBox="0 0 464.31847 139.83545"
   version="1.1"
   id="svg1181"
   sodipodi:docname="LPP-logo.svg"
   inkscape:version="1.1.2 (b8e25be8, 2022-02-05)"
   xmlns:inkscape="http://www.inkscape.org/namespaces/inkscape"
   xmlns:sodipodi="http://sodipodi.sourceforge.net/DTD/sodipodi-0.dtd"
   xmlns="http://www.w3.org/2000/svg"
   xmlns:svg="http://www.w3.org/2000/svg">
  <sodipodi:namedview
     id="namedview1183"
     pagecolor="#ffffff"
     bordercolor="#666666"
     borderopacity="1.0"
     inkscape:pageshadow="2"
     inkscape:pageopacity="0.0"
     inkscape:pagecheckerboard="0"
     inkscape:document-units="pt"
     showgrid="false"
     inkscape:zoom="1.4935731"
     inkscape:cx="149.97592"
     inkscape:cy="130.89417"
     inkscape:window-width="1280"
     inkscape:window-height="677"
     inkscape:window-x="0"
     inkscape:window-y="25"
     inkscape:window-maximized="0"
     inkscape:current-layer="svg1181" />
  <defs
     id="defs1124">
    <clipPath
       id="clip1">
      <path
         d="M 0,0 H 566.92969 V 187.08594 H 0 Z m 0,0"
         id="path1121" />
    </clipPath>
  </defs>
  <g
     id="surface1"
     transform="translate(-51.303078,-25.149385)">
    <g
       clip-path="url(#clip1)"
       clip-rule="nonzero"
       id="g1128">
      <path
         style="fill:#ffffff;fill-opacity:1;fill-rule:evenodd;stroke:none"
         d="M 0,0 H 566.92969 V 187.08594 H 0 Z m 0,0"
         id="path1126" />
    </g>
    <path
       style="fill:#00613a;fill-opacity:1;fill-rule:nonzero;stroke:none"
       d="M 227.51953,116.41016 V 27.730469 h 14.78125 v 76.367191 h 67.17969 v 12.3125 z m 0,0"
       id="path1130" />
    <path
       style="fill:#00613a;fill-opacity:1;fill-rule:nonzero;stroke:none"
       d="M 151.12109,116.63672 H 51.902344 L 109.01563,27.734375 h 98.80859 L 163.56641,96.882812 H 84.542969 L 116.33203,47.496094 h 59.27344 L 156.70312,77.132812 H 117.19531 L 123.21094,67.25 h 29.625 l 6.45312,-9.882812 H 119.75781 L 100.875,87.011719 h 59.26953 L 191.91797,37.609375 H 112.90234 L 68.222656,106.76563 H 157.125 Z m 0,0"
       id="path1132" />
    <path
       style="fill:#00613a;fill-opacity:1;fill-rule:nonzero;stroke:none"
       d="M 321.59766,116.41797 V 27.734375 h 71.67578 c 6.65625,0 11.45312,1.355469 14.39843,4.058594 2.92188,2.703125 4.39844,7.074219 4.39844,13.097656 v 19.910156 c 0,6 -1.47656,10.335938 -4.39844,13.054688 -2.94531,2.71875 -7.74218,4.066406 -14.39843,4.066406 h -56.89063 v 34.496095 z m 65.85546,-77.253908 h -51.07031 v 31.121094 h 51.07031 c 3.64844,0 6.16797,-0.699218 7.53907,-2.101562 1.375,-1.414063 2.07422,-3.828125 2.07422,-7.261719 v -12.40625 c 0,-3.421875 -0.69922,-5.835937 -2.07422,-7.242187 -1.3711,-1.410157 -3.89063,-2.109376 -7.53907,-2.109376"
       id="path1134" />
    <path
       style="fill:#00613a;fill-opacity:1;fill-rule:nonzero;stroke:none"
       d="M 423.87109,116.41797 V 27.734375 h 71.67578 c 6.67188,0 11.45313,1.355469 14.40625,4.058594 2.92579,2.703125 4.40625,7.074219 4.40625,13.097656 v 19.910156 c 0,6 -1.48046,10.335938 -4.40625,13.054688 -2.95312,2.71875 -7.73437,4.066406 -14.40625,4.066406 h -56.89062 v 34.496095 z m 65.85938,-77.253908 h -51.07422 v 31.121094 h 51.07422 c 3.66406,0 6.16406,-0.699218 7.54687,-2.101562 1.36328,-1.414063 2.07422,-3.828125 2.07422,-7.261719 v -12.40625 c 0,-3.421875 -0.71094,-5.835937 -2.07422,-7.242187 -1.38281,-1.410157 -3.88281,-2.109376 -7.54687,-2.109376"
       id="path1136" />
    <path
       style="fill:#00613a;fill-opacity:1;fill-rule:nonzero;stroke:none"
       d="m 227.53125,153.9375 v -0.64063 l 8.11719,-15.91015 h -7.99219 v -2.31641 h 11.53516 v 0.64453 l -8.14063,15.90625 h 8.42578 v 2.31641 z m 0,0"
       id="path1138" />
    <path
       style="fill:#00613a;fill-opacity:1;fill-rule:nonzero;stroke:none"
       d="m 250.05859,147.16797 c -0.76953,-0.17188 -1.3125,-0.26172 -1.61718,-0.26172 -1.23829,0 -2.24219,0.32422 -3.02735,0.95703 -0.78125,0.63672 -1.17187,1.39063 -1.17187,2.25391 0,1.4375 0.85156,2.14843 2.53906,2.14843 1.23437,0 2.33203,-0.58593 3.27734,-1.76562 z m 0.2461,5.19531 c -0.98438,1.22656 -2.48828,1.83984 -4.51172,1.83984 -1.07813,0 -2.01563,-0.39453 -2.8086,-1.18359 -0.79296,-0.78516 -1.1914,-1.75781 -1.1914,-2.92969 0,-1.39843 0.61328,-2.58203 1.83594,-3.54687 1.22265,-0.96875 2.78125,-1.44922 4.6875,-1.44922 0.50781,0 1.09375,0.10937 1.74218,0.33594 0,-2.23828 -0.98828,-3.35157 -2.98437,-3.35157 -1.52735,0 -2.70313,0.41016 -3.53125,1.23438 l -1.02344,-2.04688 c 0.45703,-0.3789 1.10156,-0.69921 1.91797,-0.97265 0.82031,-0.26953 1.60547,-0.40235 2.35937,-0.40235 1.9961,0 3.44532,0.45704 4.35547,1.35938 0.90625,0.91406 1.36328,2.36328 1.36328,4.33984 v 4.95313 c 0,1.20703 0.35938,2.01562 1.07422,2.42187 v 1.22266 c -0.98828,0 -1.73828,-0.14453 -2.23047,-0.42188 -0.49218,-0.28125 -0.84765,-0.7539 -1.05468,-1.40234"
       id="path1140" />
    <path
       style="fill:#00613a;fill-opacity:1;fill-rule:nonzero;stroke:none"
       d="m 258.80859,143.125 v 8.03125 c 0.16407,0.23437 0.48828,0.46094 0.98047,0.66797 0.5,0.21094 0.98438,0.3164 1.45703,0.3164 3.04688,0 4.5625,-1.71875 4.5625,-5.15234 0,-1.74609 -0.35937,-3.01953 -1.08203,-3.82812 -0.72656,-0.8086 -1.875,-1.21094 -3.46875,-1.21094 -0.34375,0 -0.76172,0.12109 -1.2539,0.35937 -0.5,0.2461 -0.89844,0.51172 -1.19532,0.81641 z m 0,10.0625 v 6.16797 h -2.4375 v -19.21094 h 2.4375 v 1.13672 c 0.9336,-0.92578 2.0586,-1.39063 3.36719,-1.39063 1.96484,0 3.47266,0.60547 4.57422,1.82813 1.09766,1.21875 1.63672,3.00781 1.63672,5.35547 0,2.09375 -0.54688,3.80859 -1.64453,5.14062 -1.10547,1.32032 -2.69532,1.98828 -4.77344,1.98828 -0.58594,0 -1.20703,-0.10546 -1.87109,-0.3125 -0.67188,-0.20312 -1.10157,-0.4414 -1.28907,-0.70312"
       id="path1142" />
    <path
       style="fill:#00613a;fill-opacity:1;fill-rule:nonzero;stroke:none"
       d="m 276.75,141.94922 c -1.09375,0 -2.00391,0.35156 -2.75391,1.05469 -0.69531,0.67187 -1.10156,1.50781 -1.19531,2.5 h 7.64453 c 0,-0.98829 -0.3164,-1.8086 -0.92969,-2.47266 -0.67968,-0.72266 -1.60546,-1.08203 -2.76562,-1.08203 z m 5.9375,5.33594 h -9.94531 c 0,1.60937 0.4414,2.85546 1.32812,3.72265 0.77344,0.75 1.78906,1.13281 3.01172,1.13281 1.40234,0 2.56641,-0.41015 3.50781,-1.22265 l 1.02735,1.76172 c -0.38672,0.38281 -0.96094,0.70703 -1.73828,0.97656 -0.98047,0.36719 -2.07032,0.54687 -3.27344,0.54687 -1.73828,0 -3.21094,-0.58984 -4.41797,-1.76953 -1.35156,-1.29297 -2.02344,-3.03515 -2.02344,-5.22656 0,-2.27734 0.69531,-4.10156 2.07422,-5.47656 1.23828,-1.23047 2.69922,-1.83985 4.38281,-1.83985 1.97266,0 3.51953,0.55079 4.63282,1.65625 1.08203,1.07032 1.625,2.48047 1.625,4.24219 0,0.54297 -0.0625,1.03516 -0.19141,1.4961"
       id="path1144" />
    <path
       style="fill:#00613a;fill-opacity:1;fill-rule:nonzero;stroke:none"
       d="m 285.65234,150.03906 v -15.55078 h 2.44141 v 15.14063 c 0,0.73828 0.22266,1.32031 0.64453,1.74609 0.42578,0.42578 0.98047,0.63281 1.66406,0.63281 v 2.19141 c -3.16797,0 -4.75,-1.38672 -4.75,-4.16016"
       id="path1146" />
    <path
       style="fill:#00613a;fill-opacity:1;fill-rule:nonzero;stroke:none"
       d="m 297.00781,134.92969 c 0.42969,0 0.78906,0.14453 1.07813,0.4375 0.29687,0.30078 0.4414,0.65625 0.4414,1.07031 0,0.41797 -0.14453,0.77344 -0.4414,1.07422 -0.28907,0.29297 -0.64844,0.4414 -1.07813,0.4414 -0.41406,0 -0.77344,-0.14843 -1.05859,-0.4414 -0.29688,-0.30078 -0.4375,-0.65625 -0.4375,-1.07422 0,-0.42188 0.14062,-0.78125 0.4375,-1.07031 0.28515,-0.29297 0.64453,-0.4375 1.05859,-0.4375 z m -5.27344,24.42578 v -2.19141 c 1.67579,0 2.83594,-0.25781 3.46094,-0.76953 0.61719,-0.50781 0.9336,-1.34766 0.9336,-2.51562 v -11.67579 h -2.74219 v -2.05859 h 5.18359 v 13.68359 c 0,1.89454 -0.55469,3.28907 -1.67187,4.1836 -1.1211,0.89062 -2.83985,1.34375 -5.16407,1.34375"
       id="path1148" />
    <path
       style="fill:#00613a;fill-opacity:1;fill-rule:nonzero;stroke:none"
       d="m 305.4375,134.92969 c 0.41797,0 0.78125,0.14453 1.08203,0.4375 0.28906,0.30078 0.44141,0.65625 0.44141,1.07031 0,0.41797 -0.15235,0.77344 -0.44141,1.07422 -0.30078,0.29297 -0.66406,0.4414 -1.08203,0.4414 -0.41406,0 -0.76172,-0.14843 -1.05859,-0.4414 -0.30469,-0.30078 -0.4375,-0.65625 -0.4375,-1.07422 0,-0.42188 0.13281,-0.78125 0.42968,-1.07031 0.29688,-0.29297 0.64844,-0.4375 1.06641,-0.4375 z m -1.33594,19.00781 v -11.73438 h -1.89844 v -2.05859 h 4.34375 v 13.79297 z m 0,0"
       id="path1150" />
    <path
       style="fill:#00613a;fill-opacity:1;fill-rule:nonzero;stroke:none"
       d="m 317.48828,153.11719 0.85547,-2.31641 c 1.37109,0.89063 2.46875,1.33984 3.29687,1.33984 1.51954,0 2.27735,-0.63671 2.27735,-1.90625 0,-0.91406 -0.73438,-1.6914 -2.19141,-2.34375 -1.125,-0.51562 -1.88281,-0.91015 -2.28125,-1.17578 -0.38672,-0.26172 -0.72265,-0.57031 -1.00781,-0.90625 -0.29688,-0.33984 -0.50781,-0.70312 -0.65234,-1.08203 -0.14454,-0.38281 -0.20704,-0.79297 -0.20704,-1.23437 0,-1.12891 0.41797,-2.01172 1.23829,-2.64844 0.82421,-0.63672 1.90234,-0.95313 3.23046,-0.95313 1.00391,0 2.26563,0.31641 3.80469,0.95313 l -0.69531,2.26562 c -0.96875,-0.77343 -1.95313,-1.16406 -2.9375,-1.16406 -0.58203,0 -1.07422,0.14063 -1.46484,0.41797 -0.40235,0.26953 -0.59766,0.62109 -0.59766,1.03906 0,0.88672 0.5,1.5586 1.5,2.01172 l 1.75391,0.80469 c 1.07421,0.48437 1.85937,1.04297 2.35156,1.67187 0.48437,0.625 0.73047,1.41016 0.73047,2.35157 0,1.23437 -0.4336,2.21093 -1.30078,2.91015 -0.86719,0.69922 -2.07032,1.04688 -3.61329,1.04688 -1.44531,0 -2.8125,-0.35938 -4.08984,-1.08203"
       id="path1152" />
    <path
       style="fill:#00613a;fill-opacity:1;fill-rule:nonzero;stroke:none"
       d="m 334.75,141.94922 c -1.09766,0 -2.00391,0.35156 -2.74219,1.05469 -0.70703,0.67187 -1.11328,1.50781 -1.19531,2.5 h 7.63281 c 0,-0.98829 -0.30469,-1.8086 -0.92187,-2.47266 -0.6836,-0.72266 -1.60157,-1.08203 -2.77344,-1.08203 z m 5.94141,5.33594 H 330.75 c 0,1.60937 0.44141,2.85546 1.32422,3.72265 0.77344,0.75 1.78515,1.13281 3.01172,1.13281 1.39062,0 2.57031,-0.41015 3.5039,-1.22265 l 1.03125,1.76172 c -0.375,0.38281 -0.95312,0.70703 -1.73828,0.97656 -0.97656,0.36719 -2.07422,0.54687 -3.27734,0.54687 -1.73047,0 -3.21094,-0.58984 -4.41797,-1.76953 -1.34375,-1.29297 -2.01953,-3.03515 -2.01953,-5.22656 0,-2.27734 0.69922,-4.10156 2.07031,-5.47656 1.23828,-1.23047 2.70313,-1.83985 4.39453,-1.83985 1.96485,0 3.50781,0.55079 4.63281,1.65625 1.07813,1.07032 1.61719,2.48047 1.61719,4.24219 0,0.54297 -0.0742,1.03516 -0.1914,1.4961"
       id="path1154" />
    <path
       style="fill:#00613a;fill-opacity:1;fill-rule:nonzero;stroke:none"
       d="m 359.89844,153.9375 v -8.01953 c 0,-1.46875 -0.22266,-2.4961 -0.66407,-3.08594 -0.4375,-0.58594 -1.18359,-0.88281 -2.22656,-0.88281 -0.55078,0 -1.1289,0.16797 -1.74219,0.5 -0.61718,0.33984 -1.08593,0.75 -1.40625,1.23828 v 10.25 h -2.44921 v -13.79297 h 1.66406 l 0.78515,1.77734 c 0.80079,-1.35546 2.1211,-2.03125 3.95313,-2.03125 3.01562,0 4.53906,1.83594 4.53906,5.51172 v 8.53516 z m 0,0"
       id="path1156" />
    <path
       style="fill:#00613a;fill-opacity:1;fill-rule:nonzero;stroke:none"
       d="m 373.38672,147.16797 c -0.76953,-0.17188 -1.31641,-0.26172 -1.61719,-0.26172 -1.23437,0 -2.24609,0.32422 -3.03125,0.95703 -0.78125,0.63672 -1.16406,1.39063 -1.16406,2.25391 0,1.4375 0.84375,2.14843 2.53515,2.14843 1.23047,0 2.32032,-0.58593 3.27735,-1.76562 z m 0.23437,5.19531 c -0.97656,1.22656 -2.46875,1.83984 -4.49218,1.83984 -1.08985,0 -2.02735,-0.39453 -2.82032,-1.18359 -0.79297,-0.78516 -1.1875,-1.75781 -1.1875,-2.92969 0,-1.39843 0.61328,-2.58203 1.82813,-3.54687 1.22656,-0.96875 2.79297,-1.44922 4.6875,-1.44922 0.51562,0 1.09765,0.10937 1.75,0.33594 0,-2.23828 -0.99219,-3.35157 -2.99219,-3.35157 -1.51953,0 -2.69531,0.41016 -3.52344,1.23438 l -1.03515,-2.04688 c 0.46875,-0.3789 1.10547,-0.69921 1.92968,-0.97265 0.82813,-0.26953 1.60547,-0.40235 2.34766,-0.40235 2,0 3.46094,0.45704 4.36719,1.35938 0.90234,0.91406 1.34765,2.36328 1.34765,4.33984 v 4.95313 c 0,1.20703 0.3711,2.01562 1.08985,2.42187 v 1.22266 c -0.9961,0 -1.73828,-0.14453 -2.23438,-0.42188 -0.5,-0.28125 -0.85156,-0.7539 -1.0625,-1.40234"
       id="path1158" />
    <path
       style="fill:#00613a;fill-opacity:1;fill-rule:nonzero;stroke:none"
       d="M 400.39453,154.19922 H 399.75 l -4.04688,-9.39063 -4.02734,9.39063 h -0.64844 l -4.9414,-14.08985 h 2.62109 l 2.95313,9.05469 3.66796,-9.05469 h 0.64454 l 3.78906,9.05469 3.17578,-9.05469 h 2.40625 z m 0,0"
       id="path1160" />
    <path
       style="fill:#00613a;fill-opacity:1;fill-rule:nonzero;stroke:none"
       d="m 420.02344,154.19922 h -0.64453 l -4.03907,-9.39063 -4.03515,9.39063 h -0.64063 l -4.92969,-14.08985 h 2.60547 l 2.95313,9.05469 3.67187,-9.05469 h 0.64453 l 3.78907,9.05469 3.16406,-9.05469 h 2.40625 z m 0,0"
       id="path1162" />
    <path
       style="fill:#00613a;fill-opacity:1;fill-rule:nonzero;stroke:none"
       d="m 439.66016,154.19922 h -0.64454 l -4.04296,-9.39063 -4.03516,9.39063 h -0.63672 l -4.94922,-14.08985 h 2.625 l 2.94531,9.05469 3.6836,-9.05469 h 0.6289 l 3.79297,9.05469 3.17578,-9.05469 h 2.41016 z m 0,0"
       id="path1164" />
    <path
       style="fill:#00613a;fill-opacity:1;fill-rule:nonzero;stroke:none"
       d="m 446.57031,150.32422 c 0.53125,0 0.98438,0.1875 1.36328,0.5664 0.375,0.375 0.5625,0.83204 0.5625,1.36719 0,0.53125 -0.1875,0.98828 -0.5625,1.3711 -0.3789,0.3789 -0.83203,0.57031 -1.36328,0.57031 -0.53906,0 -0.99219,-0.19141 -1.37109,-0.57031 -0.37891,-0.38282 -0.56641,-0.83985 -0.56641,-1.3711 0,-0.53515 0.1875,-0.99219 0.56641,-1.36719 0.3789,-0.3789 0.83203,-0.5664 1.37109,-0.5664"
       id="path1166" />
    <path
       style="fill:#00613a;fill-opacity:1;fill-rule:nonzero;stroke:none"
       d="m 453.62891,150.03906 v -15.55078 h 2.4375 v 15.14063 c 0,0.73828 0.21093,1.32031 0.64062,1.74609 0.42578,0.42578 0.98828,0.63281 1.67969,0.63281 v 2.19141 c -3.16797,0 -4.75781,-1.38672 -4.75781,-4.16016"
       id="path1168" />
    <path
       style="fill:#00613a;fill-opacity:1;fill-rule:nonzero;stroke:none"
       d="m 463.66016,143.125 v 8.03125 c 0.16406,0.23437 0.48828,0.46094 0.97656,0.66797 0.5039,0.21094 0.98828,0.3164 1.46094,0.3164 3.04296,0 4.55468,-1.71875 4.55468,-5.15234 0,-1.74609 -0.35156,-3.01953 -1.08203,-3.82812 -0.71094,-0.8086 -1.86719,-1.21094 -3.45703,-1.21094 -0.35547,0 -0.76562,0.12109 -1.26172,0.35937 -0.5,0.2461 -0.89844,0.51172 -1.1914,0.81641 z m 0,10.0625 v 6.16797 h -2.44922 v -19.21094 h 2.44922 v 1.13672 c 0.92578,-0.92578 2.05468,-1.39063 3.37109,-1.39063 1.95703,0 3.46875,0.60547 4.57031,1.82813 1.08985,1.21875 1.63672,3.00781 1.63672,5.35547 0,2.09375 -0.55469,3.80859 -1.65625,5.14062 -1.09375,1.32032 -2.6875,1.98828 -4.76172,1.98828 -0.58594,0 -1.21484,-0.10546 -1.875,-0.3125 -0.66406,-0.20312 -1.09765,-0.4414 -1.28515,-0.70312"
       id="path1170" />
    <path
       style="fill:#00613a;fill-opacity:1;fill-rule:nonzero;stroke:none"
       d="m 478.36328,143.125 v 8.03125 c 0.15234,0.23437 0.48047,0.46094 0.98047,0.66797 0.49609,0.21094 0.98047,0.3164 1.44922,0.3164 3.04297,0 4.5664,-1.71875 4.5664,-5.15234 0,-1.74609 -0.35546,-3.01953 -1.07812,-3.82812 -0.73047,-0.8086 -1.88672,-1.21094 -3.47266,-1.21094 -0.33984,0 -0.7539,0.12109 -1.26562,0.35937 -0.4961,0.2461 -0.88672,0.51172 -1.17969,0.81641 z m 0,10.0625 v 6.16797 h -2.44531 v -19.21094 h 2.44531 v 1.13672 c 0.92578,-0.92578 2.05469,-1.39063 3.36719,-1.39063 1.94531,0 3.47656,0.60547 4.5664,1.82813 1.08594,1.21875 1.63282,3.00781 1.63282,5.35547 0,2.09375 -0.54688,3.80859 -1.65235,5.14062 -1.08984,1.32032 -2.67578,1.98828 -4.75781,1.98828 -0.58203,0 -1.20703,-0.10546 -1.875,-0.3125 -0.65625,-0.20312 -1.08984,-0.4414 -1.28125,-0.70312"
       id="path1172" />
    <path
       style="fill:#00613a;fill-opacity:1;fill-rule:nonzero;stroke:none"
       d="m 493.44141,150.32422 c 0.53125,0 0.98828,0.1875 1.36718,0.5664 0.36719,0.375 0.5625,0.83204 0.5625,1.36719 0,0.53125 -0.19531,0.98828 -0.5625,1.3711 -0.3789,0.3789 -0.83593,0.57031 -1.36718,0.57031 -0.53516,0 -0.9961,-0.19141 -1.375,-0.57031 -0.3711,-0.38282 -0.5586,-0.83985 -0.5586,-1.3711 0,-0.53515 0.1875,-0.99219 0.5586,-1.36719 0.3789,-0.3789 0.83984,-0.5664 1.375,-0.5664"
       id="path1174" />
    <path
       style="fill:#00613a;fill-opacity:1;fill-rule:nonzero;stroke:none"
       d="m 499.39844,153.11719 0.87109,-2.31641 c 1.36328,0.89063 2.46094,1.33984 3.29297,1.33984 1.50781,0 2.27734,-0.63671 2.27734,-1.90625 0,-0.91406 -0.73437,-1.6914 -2.19922,-2.34375 -1.11718,-0.51562 -1.88281,-0.91015 -2.26953,-1.17578 -0.39453,-0.26172 -0.73828,-0.57031 -1.02343,-0.90625 -0.28516,-0.33984 -0.50391,-0.70312 -0.64454,-1.08203 -0.13281,-0.38281 -0.21093,-0.79297 -0.21093,-1.23437 0,-1.12891 0.42187,-2.01172 1.23828,-2.64844 0.82422,-0.63672 1.90234,-0.95313 3.23437,-0.95313 0.9961,0 2.26953,0.31641 3.80469,0.95313 l -0.70312,2.26562 c -0.96485,-0.77343 -1.94141,-1.16406 -2.91797,-1.16406 -0.59375,0 -1.08594,0.14063 -1.48438,0.41797 -0.39062,0.26953 -0.58984,0.62109 -0.58984,1.03906 0,0.88672 0.5,1.5586 1.51172,2.01172 l 1.74218,0.80469 c 1.07813,0.48437 1.86719,1.04297 2.34375,1.67187 0.4961,0.625 0.73829,1.41016 0.73829,2.35157 0,1.23437 -0.4375,2.21093 -1.30079,2.91015 -0.87109,0.69922 -2.0625,1.04688 -3.60546,1.04688 -1.46485,0 -2.82422,-0.35938 -4.10547,-1.08203"
       id="path1176" />
    <path
       style="fill:#00613a;fill-opacity:1;fill-rule:nonzero;stroke:none"
       d="m 513.50781,134.92969 c 0.42969,0 0.78125,0.14453 1.07813,0.4375 0.29687,0.30078 0.4414,0.65625 0.4414,1.07031 0,0.41797 -0.14453,0.77344 -0.4414,1.07422 -0.29688,0.29297 -0.64844,0.4414 -1.07813,0.4414 -0.41015,0 -0.76562,-0.14843 -1.05859,-0.4414 -0.29688,-0.30078 -0.44531,-0.65625 -0.44531,-1.07422 0,-0.42188 0.14453,-0.78125 0.4414,-1.07031 0.28906,-0.29297 0.64453,-0.4375 1.0625,-0.4375 z m -1.33984,19.00781 v -11.73438 h -1.88672 v -2.05859 h 4.33594 v 13.79297 z m 0,0"
       id="path1178" />
  </g>
  <rect
     style="fill:none;fill-rule:evenodd;stroke-width:0.75"
     id="rect1264"
     width="464.31845"
     height="139.83545"
     x="0"
     y="-3.5527137e-15" />
</svg>
