<?xml version="1.0" encoding="UTF-8"?>
<svg xmlns="http://www.w3.org/2000/svg" xmlns:xlink="http://www.w3.org/1999/xlink" width="566.9291pt" height="187.0866pt" viewBox="0 0 566.9291 187.0866" version="1.1">
<defs>
<clipPath id="clip1">
  <path d="M 0 0 L 566.929688 0 L 566.929688 187.085938 L 0 187.085938 Z M 0 0 "/>
</clipPath>
</defs>
<g id="surface1">
<g clip-path="url(#clip1)" clip-rule="nonzero">
<path style=" stroke:none;fill-rule:evenodd;fill:rgb(100%,100%,100%);fill-opacity:1;" d="M 0 0 L 566.929688 0 L 566.929688 187.085938 L 0 187.085938 Z M 0 0 "/>
</g>
<path style=" stroke:none;fill-rule:nonzero;fill:rgb(0%,38.12561%,23.373413%);fill-opacity:1;" d="M 227.519531 116.410156 L 227.519531 27.730469 L 242.300781 27.730469 L 242.300781 104.097656 L 309.480469 104.097656 L 309.480469 116.410156 Z M 227.519531 116.410156 "/>
<path style=" stroke:none;fill-rule:nonzero;fill:rgb(0%,38.12561%,23.373413%);fill-opacity:1;" d="M 151.121094 116.636719 L 51.902344 116.636719 L 109.015625 27.734375 L 207.824219 27.734375 L 163.566406 96.882812 L 84.542969 96.882812 L 116.332031 47.496094 L 175.605469 47.496094 L 156.703125 77.132812 L 117.195312 77.132812 L 123.210938 67.25 L 152.835938 67.25 L 159.289062 57.367188 L 119.757812 57.367188 L 100.875 87.011719 L 160.144531 87.011719 L 191.917969 37.609375 L 112.902344 37.609375 L 68.222656 106.765625 L 157.125 106.765625 Z M 151.121094 116.636719 "/>
<path style=" stroke:none;fill-rule:nonzero;fill:rgb(0%,38.12561%,23.373413%);fill-opacity:1;" d="M 321.597656 116.417969 L 321.597656 27.734375 L 393.273438 27.734375 C 399.929688 27.734375 404.726562 29.089844 407.671875 31.792969 C 410.59375 34.496094 412.070312 38.867188 412.070312 44.890625 L 412.070312 64.800781 C 412.070312 70.800781 410.59375 75.136719 407.671875 77.855469 C 404.726562 80.574219 399.929688 81.921875 393.273438 81.921875 L 336.382812 81.921875 L 336.382812 116.417969 Z M 387.453125 39.164062 L 336.382812 39.164062 L 336.382812 70.285156 L 387.453125 70.285156 C 391.101562 70.285156 393.621094 69.585938 394.992188 68.183594 C 396.367188 66.769531 397.066406 64.355469 397.066406 60.921875 L 397.066406 48.515625 C 397.066406 45.09375 396.367188 42.679688 394.992188 41.273438 C 393.621094 39.863281 391.101562 39.164062 387.453125 39.164062 "/>
<path style=" stroke:none;fill-rule:nonzero;fill:rgb(0%,38.12561%,23.373413%);fill-opacity:1;" d="M 423.871094 116.417969 L 423.871094 27.734375 L 495.546875 27.734375 C 502.21875 27.734375 507 29.089844 509.953125 31.792969 C 512.878906 34.496094 514.359375 38.867188 514.359375 44.890625 L 514.359375 64.800781 C 514.359375 70.800781 512.878906 75.136719 509.953125 77.855469 C 507 80.574219 502.21875 81.921875 495.546875 81.921875 L 438.65625 81.921875 L 438.65625 116.417969 Z M 489.730469 39.164062 L 438.65625 39.164062 L 438.65625 70.285156 L 489.730469 70.285156 C 493.394531 70.285156 495.894531 69.585938 497.277344 68.183594 C 498.640625 66.769531 499.351562 64.355469 499.351562 60.921875 L 499.351562 48.515625 C 499.351562 45.09375 498.640625 42.679688 497.277344 41.273438 C 495.894531 39.863281 493.394531 39.164062 489.730469 39.164062 "/>
<path style=" stroke:none;fill-rule:nonzero;fill:rgb(0%,38.12561%,23.373413%);fill-opacity:1;" d="M 227.53125 153.9375 L 227.53125 153.296875 L 235.648438 137.386719 L 227.65625 137.386719 L 227.65625 135.070312 L 239.191406 135.070312 L 239.191406 135.714844 L 231.050781 151.621094 L 239.476562 151.621094 L 239.476562 153.9375 Z M 227.53125 153.9375 "/>
<path style=" stroke:none;fill-rule:nonzero;fill:rgb(0%,38.12561%,23.373413%);fill-opacity:1;" d="M 250.058594 147.167969 C 249.289062 146.996094 248.746094 146.90625 248.441406 146.90625 C 247.203125 146.90625 246.199219 147.230469 245.414062 147.863281 C 244.632812 148.5 244.242188 149.253906 244.242188 150.117188 C 244.242188 151.554688 245.09375 152.265625 246.78125 152.265625 C 248.015625 152.265625 249.113281 151.679688 250.058594 150.5 Z M 250.304688 152.363281 C 249.320312 153.589844 247.816406 154.203125 245.792969 154.203125 C 244.714844 154.203125 243.777344 153.808594 242.984375 153.019531 C 242.191406 152.234375 241.792969 151.261719 241.792969 150.089844 C 241.792969 148.691406 242.40625 147.507812 243.628906 146.542969 C 244.851562 145.574219 246.410156 145.09375 248.316406 145.09375 C 248.824219 145.09375 249.410156 145.203125 250.058594 145.429688 C 250.058594 143.191406 249.070312 142.078125 247.074219 142.078125 C 245.546875 142.078125 244.371094 142.488281 243.542969 143.3125 L 242.519531 141.265625 C 242.976562 140.886719 243.621094 140.566406 244.4375 140.292969 C 245.257812 140.023438 246.042969 139.890625 246.796875 139.890625 C 248.792969 139.890625 250.242188 140.347656 251.152344 141.25 C 252.058594 142.164062 252.515625 143.613281 252.515625 145.589844 L 252.515625 150.542969 C 252.515625 151.75 252.875 152.558594 253.589844 152.964844 L 253.589844 154.1875 C 252.601562 154.1875 251.851562 154.042969 251.359375 153.765625 C 250.867188 153.484375 250.511719 153.011719 250.304688 152.363281 "/>
<path style=" stroke:none;fill-rule:nonzero;fill:rgb(0%,38.12561%,23.373413%);fill-opacity:1;" d="M 258.808594 143.125 L 258.808594 151.15625 C 258.972656 151.390625 259.296875 151.617188 259.789062 151.824219 C 260.289062 152.035156 260.773438 152.140625 261.246094 152.140625 C 264.292969 152.140625 265.808594 150.421875 265.808594 146.988281 C 265.808594 145.242188 265.449219 143.96875 264.726562 143.160156 C 264 142.351562 262.851562 141.949219 261.257812 141.949219 C 260.914062 141.949219 260.496094 142.070312 260.003906 142.308594 C 259.503906 142.554688 259.105469 142.820312 258.808594 143.125 Z M 258.808594 153.1875 L 258.808594 159.355469 L 256.371094 159.355469 L 256.371094 140.144531 L 258.808594 140.144531 L 258.808594 141.28125 C 259.742188 140.355469 260.867188 139.890625 262.175781 139.890625 C 264.140625 139.890625 265.648438 140.496094 266.75 141.71875 C 267.847656 142.9375 268.386719 144.726562 268.386719 147.074219 C 268.386719 149.167969 267.839844 150.882812 266.742188 152.214844 C 265.636719 153.535156 264.046875 154.203125 261.96875 154.203125 C 261.382812 154.203125 260.761719 154.097656 260.097656 153.890625 C 259.425781 153.6875 258.996094 153.449219 258.808594 153.1875 "/>
<path style=" stroke:none;fill-rule:nonzero;fill:rgb(0%,38.12561%,23.373413%);fill-opacity:1;" d="M 276.75 141.949219 C 275.65625 141.949219 274.746094 142.300781 273.996094 143.003906 C 273.300781 143.675781 272.894531 144.511719 272.800781 145.503906 L 280.445312 145.503906 C 280.445312 144.515625 280.128906 143.695312 279.515625 143.03125 C 278.835938 142.308594 277.910156 141.949219 276.75 141.949219 Z M 282.6875 147.285156 L 272.742188 147.285156 C 272.742188 148.894531 273.183594 150.140625 274.070312 151.007812 C 274.84375 151.757812 275.859375 152.140625 277.082031 152.140625 C 278.484375 152.140625 279.648438 151.730469 280.589844 150.917969 L 281.617188 152.679688 C 281.230469 153.0625 280.65625 153.386719 279.878906 153.65625 C 278.898438 154.023438 277.808594 154.203125 276.605469 154.203125 C 274.867188 154.203125 273.394531 153.613281 272.1875 152.433594 C 270.835938 151.140625 270.164062 149.398438 270.164062 147.207031 C 270.164062 144.929688 270.859375 143.105469 272.238281 141.730469 C 273.476562 140.5 274.9375 139.890625 276.621094 139.890625 C 278.59375 139.890625 280.140625 140.441406 281.253906 141.546875 C 282.335938 142.617188 282.878906 144.027344 282.878906 145.789062 C 282.878906 146.332031 282.816406 146.824219 282.6875 147.285156 "/>
<path style=" stroke:none;fill-rule:nonzero;fill:rgb(0%,38.12561%,23.373413%);fill-opacity:1;" d="M 285.652344 150.039062 L 285.652344 134.488281 L 288.09375 134.488281 L 288.09375 149.628906 C 288.09375 150.367188 288.316406 150.949219 288.738281 151.375 C 289.164062 151.800781 289.71875 152.007812 290.402344 152.007812 L 290.402344 154.199219 C 287.234375 154.199219 285.652344 152.8125 285.652344 150.039062 "/>
<path style=" stroke:none;fill-rule:nonzero;fill:rgb(0%,38.12561%,23.373413%);fill-opacity:1;" d="M 297.007812 134.929688 C 297.4375 134.929688 297.796875 135.074219 298.085938 135.367188 C 298.382812 135.667969 298.527344 136.023438 298.527344 136.4375 C 298.527344 136.855469 298.382812 137.210938 298.085938 137.511719 C 297.796875 137.804688 297.4375 137.953125 297.007812 137.953125 C 296.59375 137.953125 296.234375 137.804688 295.949219 137.511719 C 295.652344 137.210938 295.511719 136.855469 295.511719 136.4375 C 295.511719 136.015625 295.652344 135.65625 295.949219 135.367188 C 296.234375 135.074219 296.59375 134.929688 297.007812 134.929688 Z M 291.734375 159.355469 L 291.734375 157.164062 C 293.410156 157.164062 294.570312 156.90625 295.195312 156.394531 C 295.8125 155.886719 296.128906 155.046875 296.128906 153.878906 L 296.128906 142.203125 L 293.386719 142.203125 L 293.386719 140.144531 L 298.570312 140.144531 L 298.570312 153.828125 C 298.570312 155.722656 298.015625 157.117188 296.898438 158.011719 C 295.777344 158.902344 294.058594 159.355469 291.734375 159.355469 "/>
<path style=" stroke:none;fill-rule:nonzero;fill:rgb(0%,38.12561%,23.373413%);fill-opacity:1;" d="M 305.4375 134.929688 C 305.855469 134.929688 306.21875 135.074219 306.519531 135.367188 C 306.808594 135.667969 306.960938 136.023438 306.960938 136.4375 C 306.960938 136.855469 306.808594 137.210938 306.519531 137.511719 C 306.21875 137.804688 305.855469 137.953125 305.4375 137.953125 C 305.023438 137.953125 304.675781 137.804688 304.378906 137.511719 C 304.074219 137.210938 303.941406 136.855469 303.941406 136.4375 C 303.941406 136.015625 304.074219 135.65625 304.371094 135.367188 C 304.667969 135.074219 305.019531 134.929688 305.4375 134.929688 Z M 304.101562 153.9375 L 304.101562 142.203125 L 302.203125 142.203125 L 302.203125 140.144531 L 306.546875 140.144531 L 306.546875 153.9375 Z M 304.101562 153.9375 "/>
<path style=" stroke:none;fill-rule:nonzero;fill:rgb(0%,38.12561%,23.373413%);fill-opacity:1;" d="M 317.488281 153.117188 L 318.34375 150.800781 C 319.714844 151.691406 320.8125 152.140625 321.640625 152.140625 C 323.160156 152.140625 323.917969 151.503906 323.917969 150.234375 C 323.917969 149.320312 323.183594 148.542969 321.726562 147.890625 C 320.601562 147.375 319.84375 146.980469 319.445312 146.714844 C 319.058594 146.453125 318.722656 146.144531 318.4375 145.808594 C 318.140625 145.46875 317.929688 145.105469 317.785156 144.726562 C 317.640625 144.34375 317.578125 143.933594 317.578125 143.492188 C 317.578125 142.363281 317.996094 141.480469 318.816406 140.84375 C 319.640625 140.207031 320.71875 139.890625 322.046875 139.890625 C 323.050781 139.890625 324.3125 140.207031 325.851562 140.84375 L 325.15625 143.109375 C 324.1875 142.335938 323.203125 141.945312 322.21875 141.945312 C 321.636719 141.945312 321.144531 142.085938 320.753906 142.363281 C 320.351562 142.632812 320.15625 142.984375 320.15625 143.402344 C 320.15625 144.289062 320.65625 144.960938 321.65625 145.414062 L 323.410156 146.21875 C 324.484375 146.703125 325.269531 147.261719 325.761719 147.890625 C 326.246094 148.515625 326.492188 149.300781 326.492188 150.242188 C 326.492188 151.476562 326.058594 152.453125 325.191406 153.152344 C 324.324219 153.851562 323.121094 154.199219 321.578125 154.199219 C 320.132812 154.199219 318.765625 153.839844 317.488281 153.117188 "/>
<path style=" stroke:none;fill-rule:nonzero;fill:rgb(0%,38.12561%,23.373413%);fill-opacity:1;" d="M 334.75 141.949219 C 333.652344 141.949219 332.746094 142.300781 332.007812 143.003906 C 331.300781 143.675781 330.894531 144.511719 330.8125 145.503906 L 338.445312 145.503906 C 338.445312 144.515625 338.140625 143.695312 337.523438 143.03125 C 336.839844 142.308594 335.921875 141.949219 334.75 141.949219 Z M 340.691406 147.285156 L 330.75 147.285156 C 330.75 148.894531 331.191406 150.140625 332.074219 151.007812 C 332.847656 151.757812 333.859375 152.140625 335.085938 152.140625 C 336.476562 152.140625 337.65625 151.730469 338.589844 150.917969 L 339.621094 152.679688 C 339.246094 153.0625 338.667969 153.386719 337.882812 153.65625 C 336.90625 154.023438 335.808594 154.203125 334.605469 154.203125 C 332.875 154.203125 331.394531 153.613281 330.1875 152.433594 C 328.84375 151.140625 328.167969 149.398438 328.167969 147.207031 C 328.167969 144.929688 328.867188 143.105469 330.238281 141.730469 C 331.476562 140.5 332.941406 139.890625 334.632812 139.890625 C 336.597656 139.890625 338.140625 140.441406 339.265625 141.546875 C 340.34375 142.617188 340.882812 144.027344 340.882812 145.789062 C 340.882812 146.332031 340.808594 146.824219 340.691406 147.285156 "/>
<path style=" stroke:none;fill-rule:nonzero;fill:rgb(0%,38.12561%,23.373413%);fill-opacity:1;" d="M 359.898438 153.9375 L 359.898438 145.917969 C 359.898438 144.449219 359.675781 143.421875 359.234375 142.832031 C 358.796875 142.246094 358.050781 141.949219 357.007812 141.949219 C 356.457031 141.949219 355.878906 142.117188 355.265625 142.449219 C 354.648438 142.789062 354.179688 143.199219 353.859375 143.6875 L 353.859375 153.9375 L 351.410156 153.9375 L 351.410156 140.144531 L 353.074219 140.144531 L 353.859375 141.921875 C 354.660156 140.566406 355.980469 139.890625 357.8125 139.890625 C 360.828125 139.890625 362.351562 141.726562 362.351562 145.402344 L 362.351562 153.9375 Z M 359.898438 153.9375 "/>
<path style=" stroke:none;fill-rule:nonzero;fill:rgb(0%,38.12561%,23.373413%);fill-opacity:1;" d="M 373.386719 147.167969 C 372.617188 146.996094 372.070312 146.90625 371.769531 146.90625 C 370.535156 146.90625 369.523438 147.230469 368.738281 147.863281 C 367.957031 148.5 367.574219 149.253906 367.574219 150.117188 C 367.574219 151.554688 368.417969 152.265625 370.109375 152.265625 C 371.339844 152.265625 372.429688 151.679688 373.386719 150.5 Z M 373.621094 152.363281 C 372.644531 153.589844 371.152344 154.203125 369.128906 154.203125 C 368.039062 154.203125 367.101562 153.808594 366.308594 153.019531 C 365.515625 152.234375 365.121094 151.261719 365.121094 150.089844 C 365.121094 148.691406 365.734375 147.507812 366.949219 146.542969 C 368.175781 145.574219 369.742188 145.09375 371.636719 145.09375 C 372.152344 145.09375 372.734375 145.203125 373.386719 145.429688 C 373.386719 143.191406 372.394531 142.078125 370.394531 142.078125 C 368.875 142.078125 367.699219 142.488281 366.871094 143.3125 L 365.835938 141.265625 C 366.304688 140.886719 366.941406 140.566406 367.765625 140.292969 C 368.59375 140.023438 369.371094 139.890625 370.113281 139.890625 C 372.113281 139.890625 373.574219 140.347656 374.480469 141.25 C 375.382812 142.164062 375.828125 143.613281 375.828125 145.589844 L 375.828125 150.542969 C 375.828125 151.75 376.199219 152.558594 376.917969 152.964844 L 376.917969 154.1875 C 375.921875 154.1875 375.179688 154.042969 374.683594 153.765625 C 374.183594 153.484375 373.832031 153.011719 373.621094 152.363281 "/>
<path style=" stroke:none;fill-rule:nonzero;fill:rgb(0%,38.12561%,23.373413%);fill-opacity:1;" d="M 400.394531 154.199219 L 399.75 154.199219 L 395.703125 144.808594 L 391.675781 154.199219 L 391.027344 154.199219 L 386.085938 140.109375 L 388.707031 140.109375 L 391.660156 149.164062 L 395.328125 140.109375 L 395.972656 140.109375 L 399.761719 149.164062 L 402.9375 140.109375 L 405.34375 140.109375 Z M 400.394531 154.199219 "/>
<path style=" stroke:none;fill-rule:nonzero;fill:rgb(0%,38.12561%,23.373413%);fill-opacity:1;" d="M 420.023438 154.199219 L 419.378906 154.199219 L 415.339844 144.808594 L 411.304688 154.199219 L 410.664062 154.199219 L 405.734375 140.109375 L 408.339844 140.109375 L 411.292969 149.164062 L 414.964844 140.109375 L 415.609375 140.109375 L 419.398438 149.164062 L 422.5625 140.109375 L 424.96875 140.109375 Z M 420.023438 154.199219 "/>
<path style=" stroke:none;fill-rule:nonzero;fill:rgb(0%,38.12561%,23.373413%);fill-opacity:1;" d="M 439.660156 154.199219 L 439.015625 154.199219 L 434.972656 144.808594 L 430.9375 154.199219 L 430.300781 154.199219 L 425.351562 140.109375 L 427.976562 140.109375 L 430.921875 149.164062 L 434.605469 140.109375 L 435.234375 140.109375 L 439.027344 149.164062 L 442.203125 140.109375 L 444.613281 140.109375 Z M 439.660156 154.199219 "/>
<path style=" stroke:none;fill-rule:nonzero;fill:rgb(0%,38.12561%,23.373413%);fill-opacity:1;" d="M 446.570312 150.324219 C 447.101562 150.324219 447.554688 150.511719 447.933594 150.890625 C 448.308594 151.265625 448.496094 151.722656 448.496094 152.257812 C 448.496094 152.789062 448.308594 153.246094 447.933594 153.628906 C 447.554688 154.007812 447.101562 154.199219 446.570312 154.199219 C 446.03125 154.199219 445.578125 154.007812 445.199219 153.628906 C 444.820312 153.246094 444.632812 152.789062 444.632812 152.257812 C 444.632812 151.722656 444.820312 151.265625 445.199219 150.890625 C 445.578125 150.511719 446.03125 150.324219 446.570312 150.324219 "/>
<path style=" stroke:none;fill-rule:nonzero;fill:rgb(0%,38.12561%,23.373413%);fill-opacity:1;" d="M 453.628906 150.039062 L 453.628906 134.488281 L 456.066406 134.488281 L 456.066406 149.628906 C 456.066406 150.367188 456.277344 150.949219 456.707031 151.375 C 457.132812 151.800781 457.695312 152.007812 458.386719 152.007812 L 458.386719 154.199219 C 455.21875 154.199219 453.628906 152.8125 453.628906 150.039062 "/>
<path style=" stroke:none;fill-rule:nonzero;fill:rgb(0%,38.12561%,23.373413%);fill-opacity:1;" d="M 463.660156 143.125 L 463.660156 151.15625 C 463.824219 151.390625 464.148438 151.617188 464.636719 151.824219 C 465.140625 152.035156 465.625 152.140625 466.097656 152.140625 C 469.140625 152.140625 470.652344 150.421875 470.652344 146.988281 C 470.652344 145.242188 470.300781 143.96875 469.570312 143.160156 C 468.859375 142.351562 467.703125 141.949219 466.113281 141.949219 C 465.757812 141.949219 465.347656 142.070312 464.851562 142.308594 C 464.351562 142.554688 463.953125 142.820312 463.660156 143.125 Z M 463.660156 153.1875 L 463.660156 159.355469 L 461.210938 159.355469 L 461.210938 140.144531 L 463.660156 140.144531 L 463.660156 141.28125 C 464.585938 140.355469 465.714844 139.890625 467.03125 139.890625 C 468.988281 139.890625 470.5 140.496094 471.601562 141.71875 C 472.691406 142.9375 473.238281 144.726562 473.238281 147.074219 C 473.238281 149.167969 472.683594 150.882812 471.582031 152.214844 C 470.488281 153.535156 468.894531 154.203125 466.820312 154.203125 C 466.234375 154.203125 465.605469 154.097656 464.945312 153.890625 C 464.28125 153.6875 463.847656 153.449219 463.660156 153.1875 "/>
<path style=" stroke:none;fill-rule:nonzero;fill:rgb(0%,38.12561%,23.373413%);fill-opacity:1;" d="M 478.363281 143.125 L 478.363281 151.15625 C 478.515625 151.390625 478.84375 151.617188 479.34375 151.824219 C 479.839844 152.035156 480.324219 152.140625 480.792969 152.140625 C 483.835938 152.140625 485.359375 150.421875 485.359375 146.988281 C 485.359375 145.242188 485.003906 143.96875 484.28125 143.160156 C 483.550781 142.351562 482.394531 141.949219 480.808594 141.949219 C 480.46875 141.949219 480.054688 142.070312 479.542969 142.308594 C 479.046875 142.554688 478.65625 142.820312 478.363281 143.125 Z M 478.363281 153.1875 L 478.363281 159.355469 L 475.917969 159.355469 L 475.917969 140.144531 L 478.363281 140.144531 L 478.363281 141.28125 C 479.289062 140.355469 480.417969 139.890625 481.730469 139.890625 C 483.675781 139.890625 485.207031 140.496094 486.296875 141.71875 C 487.382812 142.9375 487.929688 144.726562 487.929688 147.074219 C 487.929688 149.167969 487.382812 150.882812 486.277344 152.214844 C 485.1875 153.535156 483.601562 154.203125 481.519531 154.203125 C 480.9375 154.203125 480.3125 154.097656 479.644531 153.890625 C 478.988281 153.6875 478.554688 153.449219 478.363281 153.1875 "/>
<path style=" stroke:none;fill-rule:nonzero;fill:rgb(0%,38.12561%,23.373413%);fill-opacity:1;" d="M 493.441406 150.324219 C 493.972656 150.324219 494.429688 150.511719 494.808594 150.890625 C 495.175781 151.265625 495.371094 151.722656 495.371094 152.257812 C 495.371094 152.789062 495.175781 153.246094 494.808594 153.628906 C 494.429688 154.007812 493.972656 154.199219 493.441406 154.199219 C 492.90625 154.199219 492.445312 154.007812 492.066406 153.628906 C 491.695312 153.246094 491.507812 152.789062 491.507812 152.257812 C 491.507812 151.722656 491.695312 151.265625 492.066406 150.890625 C 492.445312 150.511719 492.90625 150.324219 493.441406 150.324219 "/>
<path style=" stroke:none;fill-rule:nonzero;fill:rgb(0%,38.12561%,23.373413%);fill-opacity:1;" d="M 499.398438 153.117188 L 500.269531 150.800781 C 501.632812 151.691406 502.730469 152.140625 503.5625 152.140625 C 505.070312 152.140625 505.839844 151.503906 505.839844 150.234375 C 505.839844 149.320312 505.105469 148.542969 503.640625 147.890625 C 502.523438 147.375 501.757812 146.980469 501.371094 146.714844 C 500.976562 146.453125 500.632812 146.144531 500.347656 145.808594 C 500.0625 145.46875 499.84375 145.105469 499.703125 144.726562 C 499.570312 144.34375 499.492188 143.933594 499.492188 143.492188 C 499.492188 142.363281 499.914062 141.480469 500.730469 140.84375 C 501.554688 140.207031 502.632812 139.890625 503.964844 139.890625 C 504.960938 139.890625 506.234375 140.207031 507.769531 140.84375 L 507.066406 143.109375 C 506.101562 142.335938 505.125 141.945312 504.148438 141.945312 C 503.554688 141.945312 503.0625 142.085938 502.664062 142.363281 C 502.273438 142.632812 502.074219 142.984375 502.074219 143.402344 C 502.074219 144.289062 502.574219 144.960938 503.585938 145.414062 L 505.328125 146.21875 C 506.40625 146.703125 507.195312 147.261719 507.671875 147.890625 C 508.167969 148.515625 508.410156 149.300781 508.410156 150.242188 C 508.410156 151.476562 507.972656 152.453125 507.109375 153.152344 C 506.238281 153.851562 505.046875 154.199219 503.503906 154.199219 C 502.039062 154.199219 500.679688 153.839844 499.398438 153.117188 "/>
<path style=" stroke:none;fill-rule:nonzero;fill:rgb(0%,38.12561%,23.373413%);fill-opacity:1;" d="M 513.507812 134.929688 C 513.9375 134.929688 514.289062 135.074219 514.585938 135.367188 C 514.882812 135.667969 515.027344 136.023438 515.027344 136.4375 C 515.027344 136.855469 514.882812 137.210938 514.585938 137.511719 C 514.289062 137.804688 513.9375 137.953125 513.507812 137.953125 C 513.097656 137.953125 512.742188 137.804688 512.449219 137.511719 C 512.152344 137.210938 512.003906 136.855469 512.003906 136.4375 C 512.003906 136.015625 512.148438 135.65625 512.445312 135.367188 C 512.734375 135.074219 513.089844 134.929688 513.507812 134.929688 Z M 512.167969 153.9375 L 512.167969 142.203125 L 510.28125 142.203125 L 510.28125 140.144531 L 514.617188 140.144531 L 514.617188 153.9375 Z M 512.167969 153.9375 "/>
</g>
</svg>
