<?xml version="1.0" encoding="UTF-8" standalone="no"?>
<svg
   version="1.1"
   width="410.34009pt"
   height="123.53062pt"
   viewBox="0 0 410.34011 123.53062"
   id="svg12"
   sodipodi:docname="LPT-logo.svg"
   inkscape:version="1.1.2 (b8e25be8, 2022-02-05)"
   xmlns:inkscape="http://www.inkscape.org/namespaces/inkscape"
   xmlns:sodipodi="http://sodipodi.sourceforge.net/DTD/sodipodi-0.dtd"
   xmlns="http://www.w3.org/2000/svg"
   xmlns:svg="http://www.w3.org/2000/svg">
  <defs
     id="defs16" />
  <sodipodi:namedview
     id="namedview14"
     pagecolor="#ffffff"
     bordercolor="#666666"
     borderopacity="1.0"
     inkscape:pageshadow="2"
     inkscape:pageopacity="0.0"
     inkscape:pagecheckerboard="0"
     inkscape:document-units="pt"
     showgrid="false"
     inkscape:zoom="0.45790753"
     inkscape:cx="195.45431"
     inkscape:cy="236.9474"
     inkscape:window-width="1280"
     inkscape:window-height="747"
     inkscape:window-x="163"
     inkscape:window-y="25"
     inkscape:window-maximized="0"
     inkscape:current-layer="svg12" />
  <g
     enable-background="new"
     id="g10"
     transform="translate(-80.899218,-126.87608)">
    <clipPath
       id="cp0">
      <path
         transform="matrix(1,0,0,-1,9,850.8898)"
         d="M -9,-9 H 605 V 851 H -9 Z"
         fill-rule="evenodd"
         id="path2" />
    </clipPath>
    <g
       clip-path="url(#cp0)"
       id="g8">
      <g
         id="Layer-1"
         data-name="Layer 1">
        <path
           transform="matrix(1,0,0,-1,9,850.8898)"
           d="m 196.469,708.8108 h 1.1625 v -0.6219 c 0,-1.2441 0.2979,-2.1634 0.7577,-2.8398 0.7574,-1.0814 1.9738,-1.514 3.1365,-1.514 1.8672,0 3.8946,1.0812 3.8946,4.3538 v 12.7108 h -4.5162 v 1.0814 h 5.6792 v -13.7644 c 0,-4.0576 -2.5954,-5.4905 -5.0576,-5.4905 -2.4602,0 -5.0567,1.4329 -5.0567,5.4905 z m 22.4728,2.488 h 0.8918 v 0.4598 c 0,3.0018 -1.5407,4.0297 -3.7046,4.0297 -2.3522,0 -3.8673,-1.2983 -3.8673,-1.2983 l -0.6486,0.9193 c 0,0 1.6226,1.4882 4.5703,1.4882 3.1102,0 4.7869,-1.7311 4.7869,-5.1117 v -8.7353 h -1.1367 v 1.7847 c 0,0.7308 0.1083,1.2172 0.1083,1.2172 h -0.0533 c 0.0272,0 -1.2172,-3.3264 -4.7328,-3.3264 -2.1911,0 -4.5978,1.2166 -4.5978,3.9214 0,4.5972 5.9769,4.6514 8.3838,4.6514 z m -3.7321,-7.5181 v 0 c 2.948,0 4.6239,3.0558 4.6239,5.7331 v 0.7311 h -0.8652 c -2.2983,0 -7.2204,0 -7.2204,-3.5156 0,-1.434 1.1634,-2.9486 3.4617,-2.9486 z m 8.437,12.7919 h 1.2172 l 4.1644,-10.6015 c 0.2438,-0.6486 0.4592,-1.4602 0.4592,-1.4602 h 0.0553 c 0,0 0.2157,0.8116 0.4598,1.4602 l 4.1644,10.6015 h 1.1902 l -5.301,-13.5221 h -1.0809 z m 14.5766,0 h 1.1353 v -2.3799 c 0,-0.622 -0.1074,-1.109 -0.1074,-1.109 h 0.0533 c 0.4603,1.2711 2.353,3.8138 5.7342,3.8138 3.5147,0 4.4617,-2.0829 4.4617,-5.2736 v -8.5734 h -1.1361 v 8.1672 c 0,2.353 -0.2971,4.5706 -3.3256,4.5706 -2.5424,0 -4.7869,-1.7853 -5.4632,-4.2996 -0.163,-0.5684 -0.2169,-1.1906 -0.2169,-1.8391 v -6.5991 h -1.1353 z m 21.8503,0.3246 c 3.8671,0 7.0033,-3.0566 7.0033,-7.0044 0,-4.0297 -3.1362,-7.1671 -7.0033,-7.1671 -3.8667,0 -7.0038,3.1374 -7.0038,7.1671 0,3.9478 3.1371,7.0044 7.0038,7.0044 z m 0,-13.0621 v 0 c 3.2179,0 5.8142,2.6235 5.8142,6.0577 0,3.3531 -2.5963,5.8952 -5.8142,5.8952 -3.217,0 -5.8133,-2.5421 -5.8133,-5.8952 0,-3.4342 2.5963,-6.0577 5.8133,-6.0577 z m 18.2526,12.737 h 1.1358 v -1.6223 c 0,-0.6219 -0.081,-1.0814 -0.081,-1.0814 h 0.0544 c 0,0 1.1086,3.0288 4.8679,3.0288 3.6236,0 5.8414,-2.8939 5.8414,-7.0858 0,-4.2996 -2.516,-7.0857 -6.0041,-7.0857 -3.5155,0 -4.7324,3.056 -4.7324,3.056 h -0.0544 c 0,0 0.1082,-0.4864 0.1082,-1.1894 v -6.9503 h -1.1358 z m 5.8144,-12.737 v 0 c 2.6504,0 4.8138,2.1898 4.8138,5.9763 0,3.6511 -1.9471,5.9766 -4.7049,5.9766 -2.4883,0 -4.8141,-1.758 -4.8141,-6.0038 0,-3.001 1.6767,-5.9491 4.7052,-5.9491 z m 15.8474,13.0621 c 3.867,0 7.0044,-3.0566 7.0044,-7.0044 0,-4.0297 -3.1374,-7.1671 -7.0044,-7.1671 -3.8673,0 -7.0047,3.1374 -7.0047,7.1671 0,3.9478 3.1374,7.0044 7.0047,7.0044 z m 0,-13.0621 v 0 c 3.2179,0 5.8144,2.6235 5.8144,6.0577 0,3.3531 -2.5965,5.8952 -5.8144,5.8952 -3.2182,0 -5.815,-2.5421 -5.815,-5.8952 0,-3.4342 2.5968,-6.0577 5.815,-6.0577 z m 15.9287,13.0621 c 3.4073,0 4.6786,-3.0566 4.6786,-3.0566 h 0.0539 c 0,0 -0.1083,0.4873 -0.1083,1.1092 v 7.0316 h 1.1364 v -18.9312 h -1.1364 v 1.7042 c 0,0.6222 0.1083,1.0273 0.1083,1.0273 h -0.0539 c 0,0 -1.1636,-3.056 -4.8951,-3.056 -3.6241,0 -5.8414,2.8941 -5.8414,7.0857 0,4.3005 2.5149,7.0858 6.0579,7.0858 z m -0.1627,-13.0621 v 0 c 2.4886,0 4.8141,1.7572 4.8141,6.003 0,3.0027 -1.5418,5.9499 -4.7064,5.9499 -2.6492,0 -4.8132,-2.1903 -4.8132,-5.9766 0,-3.6513 1.9474,-5.9763 4.7055,-5.9763 z m 11.8177,12.7375 v -14.0632 c 0,-4.4892 -2.9203,-5.0029 -4.2994,-5.0029 -0.4064,0 -0.676,0.0539 -0.676,0.0539 v 1.055 c 0,0 0.2423,-0.0544 0.595,-0.0544 1.0808,0 3.2445,0.4331 3.2445,3.9212 v 14.0904 z m -1.2442,5.4091 v 0 h 1.353 v -1.9749 h -1.353 z m 11.6294,-5.0845 c 3.6774,0 5.5163,-2.8939 5.5163,-6.1662 0,-0.2976 -0.0539,-0.7302 -0.0539,-0.7302 H 332.574 c 0,-3.9212 2.6506,-6.1657 5.788,-6.1657 2.5968,0 4.191,1.7034 4.191,1.7034 l 0.6225,-0.9462 c 0,0 -1.8921,-1.8666 -4.8135,-1.8666 -3.814,0 -6.9775,2.7586 -6.9775,7.0591 0,4.5703 3.1102,7.1124 6.5724,7.1124 z m 4.3266,-5.8419 v 0 c -0.1355,3.2998 -2.1099,4.7874 -4.3543,4.7874 -2.4886,0 -4.7863,-1.6228 -5.2736,-4.7874 z m 5.4351,4.4084 h -1.7855 v 1.0281 h 1.7855 v 3.8401 h 1.1353 v -3.8401 h 3.543 v -1.0281 h -3.543 v -7.4367 c 0,-3.5702 2.137,-4.03 3.2187,-4.03 0.3793,0 0.6214,0.0539 0.6214,0.0539 v -1.054 c 0,0 -0.2699,-0.0547 -0.6755,-0.0547 -1.4068,0 -4.2999,0.514 -4.2999,5.0029 z m 9.195,1.1089 v -14.0632 c 0,-4.4892 -2.9213,-5.0029 -4.3004,-5.0029 -0.4056,0 -0.6763,0.0539 -0.6763,0.0539 v 1.055 c 0,0 0.2437,-0.0544 0.5955,-0.0544 1.0817,0 3.2445,0.4331 3.2445,3.9212 v 14.0904 z m -1.2444,5.4091 v 0 h 1.3519 v -1.9749 h -1.3519 z m 11.6289,-5.0845 c 3.6774,0 5.5168,-2.8939 5.5168,-6.1662 0,-0.2976 -0.0539,-0.7302 -0.0539,-0.7302 h -10.8456 c 0,-3.9212 2.6506,-6.1657 5.7877,-6.1657 2.5969,0 4.1925,1.7034 4.1925,1.7034 l 0.6211,-0.9462 c 0,0 -1.8924,-1.8666 -4.8136,-1.8666 -3.8128,0 -6.9774,2.7586 -6.9774,7.0591 0,4.5703 3.1107,7.1124 6.5724,7.1124 z m 4.3265,-5.8419 v 0 c -0.1349,3.2998 -2.1098,4.7874 -4.3543,4.7874 -2.4877,0 -4.7863,-1.6228 -5.273,-4.7874 z M 197.9909,693.3954 h 4.7333 v -15.2801 h 7.8965 v -4.0567 h -12.6298 z m 19.3629,-5.409 v -14.279 c 0,-4.6789 -4.3818,-5.2739 -6.5443,-5.2739 -0.758,0 -1.2441,0.0817 -1.2441,0.0817 v 3.8939 c 0,0 0.2432,-0.0269 0.5949,-0.0269 0.9193,0 2.5155,0.2163 2.5155,1.7847 v 13.8195 z m -4.6247,5.409 v 0 h 4.5706 v -3.651 h -4.5706 z m 7.897,-5.4088 h 4.6789 v -8.1669 c 0,-1.2985 0.5128,-1.8394 1.4871,-1.8394 2.0012,0 2.9477,1.7578 2.9477,3.8404 v 6.1659 h 4.6789 v -13.928 h -4.4898 v 1.2175 c 0,0.4598 0.0547,0.8654 0.0547,0.8654 h -0.0547 c -0.7572,-1.4879 -2.4874,-2.4072 -4.3543,-2.4072 -2.7584,0 -4.9485,1.2986 -4.9485,5.2192 z m 17.2531,5.4088 h 4.6789 v -5.3818 c 0,-0.7027 -0.0539,-1.1897 -0.0539,-1.1897 h 0.0539 c 0,0 1.2985,1.487 3.7587,1.487 3.786,0 6.2742,-2.9744 6.2742,-7.3015 0,-4.4084 -2.7844,-7.2751 -6.4902,-7.2751 -2.5687,0 -3.8126,1.5682 -3.8126,1.5682 h -0.0544 c 0,0 0.0266,-0.351 0.0266,-0.7841 v -0.4598 h -4.3812 z m 7.2751,-15.7938 v 0 c 1.4604,0 2.7315,1.1897 2.7315,3.3262 0,2.0826 -1.1086,3.4345 -2.7315,3.4345 -1.4062,0 -2.7314,-1.0273 -2.7314,-3.4345 0,-1.6767 0.8926,-3.3262 2.7314,-3.3262 z m 9.7623,15.7938 h 4.6788 v -13.5759 c 0,-1.3252 0.2424,-1.7853 1.2977,-1.7853 0.298,0 0.5675,0.0278 0.5675,0.0278 v -4.0575 c 0,0 -0.6488,-0.0808 -1.4062,-0.0808 -2.4877,0 -5.1378,0.5947 -5.1378,5.2736 z m 13.6012,-5.409 v -14.279 c 0,-4.6789 -4.381,-5.2739 -6.5435,-5.2739 -0.7577,0 -1.2442,0.0817 -1.2442,0.0817 v 3.8939 c 0,0 0.2433,-0.0269 0.5959,-0.0269 0.9181,0 2.5135,0.2163 2.5135,1.7847 v 13.8195 z m -4.6239,5.409 v 0 h 4.57 v -3.651 h -4.57 z M 279.0102,682.74 h 0.1899 v 0.2435 c 0,1.1625 -0.8926,1.5415 -2.0551,1.5415 -1.7595,0 -3.761,-1.3249 -3.761,-1.3249 l -1.622,3.2989 c 0,0 2.4066,1.8114 5.8419,1.8114 3.9212,0 6.2748,-2.1357 6.2748,-5.6787 v -8.5725 h -4.2727 v 0.8385 c 0,0.4597 0.0533,0.8645 0.0533,0.8645 h -0.0533 c 0,0 -1.0278,-2.0276 -3.9492,-2.0276 -2.5957,0 -4.7327,1.7306 -4.7327,4.489 0,4.0566 5.9216,4.5164 8.0861,4.5164 z m -2.0551,-5.436 v 0 c 1.2175,0 2.2995,1.3252 2.2995,2.4613 v 0.2974 h -0.4337 c -1.4874,0 -3.191,-0.4332 -3.191,-1.5962 0,-0.6483 0.4062,-1.1625 1.3252,-1.1625 z m 10.1684,10.6826 h 4.4893 v -1.2172 c 0,-0.4597 -0.0539,-0.8654 -0.0539,-0.8654 h 0.0539 c 0.6491,1.0817 1.9732,2.4069 4.4353,2.4069 2.812,0 5.0029,-1.2977 5.0029,-5.2197 v -9.0326 h -4.6786 v 8.168 c 0,1.2977 -0.5139,1.8386 -1.5412,1.8386 -1.4607,0 -2.3527,-0.8107 -2.7592,-2.0013 -0.1888,-0.5408 -0.2699,-1.163 -0.2699,-1.8388 v -6.1665 h -4.6786 z m 18.1185,-9.06 c 0,0 1.5418,-1.4057 3.5433,-1.4057 0.7027,0 1.3788,0.189 1.3788,0.6488 0,1.2166 -6.5171,1.3524 -6.5171,5.8961 0,2.6229 2.5143,4.2451 5.7333,4.2451 3.2443,0 4.8949,-1.5956 4.8949,-1.5956 l -1.5962,-3.3264 c 0,0 -1.3519,1.1364 -3.2987,1.1364 -0.7035,0 -1.3802,-0.19 -1.3802,-0.677 0,-1.0539 6.5183,-1.2163 6.5183,-5.7061 0,-2.3797 -2.1104,-4.4079 -5.7067,-4.4079 -3.4886,0 -5.5712,2.0557 -5.5712,2.0557 z m 11.8179,14.4688 h 4.6786 v -10.0065 h 1.3258 l 2.7575,4.5977 h 5.0845 l -4.083,-6.3286 v -0.0536 l 4.6508,-7.5458 h -5.3274 l -2.9475,5.4091 h -1.4607 v -5.4091 h -4.6786 z m 23.23,-10.6554 h 0.1893 v 0.2435 c 0,1.1625 -0.8929,1.5415 -2.0548,1.5415 -1.7586,0 -3.7596,-1.3249 -3.7596,-1.3249 l -1.6228,3.2989 c 0,0 2.4066,1.8114 5.8416,1.8114 3.9217,0 6.2745,-2.1357 6.2745,-5.6787 v -8.5725 h -4.2727 v 0.8385 c 0,0.4597 0.0542,0.8645 0.0542,0.8645 h -0.0542 c 0,0 -1.0281,-2.0276 -3.9484,-2.0276 -2.5959,0 -4.733,1.7306 -4.733,4.489 0,4.0566 5.9225,4.5164 8.0859,4.5164 z m -2.0552,-5.436 v 0 c 1.2167,0 2.2989,1.3252 2.2989,2.4613 v 0.2974 h -0.4331 c -1.4868,0 -3.1904,-0.4332 -3.1904,-1.5962 0,-0.6483 0.4051,-1.1625 1.3246,-1.1625 z m 16.361,10.6826 h 4.2189 v -0.7035 c 0,-0.4592 -0.0539,-0.8921 -0.0539,-0.8921 h 0.0539 c 0,0 1.2707,1.9199 4.2182,1.9199 3.7871,0 6.275,-2.9744 6.275,-7.3015 0,-4.4084 -2.7864,-7.2751 -6.4916,-7.2751 -2.2711,0 -3.5422,1.3252 -3.5422,1.3252 h -0.0544 c 0,0 0.0544,-0.4864 0.0544,-1.1891 v -5.2206 h -4.6783 z m 7.2752,-10.385 v 0 c 1.4592,0 2.7309,1.1897 2.7309,3.3262 0,2.0826 -1.1087,3.4345 -2.7309,3.4345 -1.4063,0 -2.7321,-1.0273 -2.7321,-3.4345 0,-1.6767 0.8927,-3.3262 2.7321,-3.3262 z m 16.9823,5.1384 h 0.1894 v 0.2435 c 0,1.1625 -0.8924,1.5415 -2.0554,1.5415 -1.7572,0 -3.7585,-1.3249 -3.7585,-1.3249 l -1.6228,3.2989 c 0,0 2.4072,1.8114 5.8408,1.8114 3.9226,0 6.2747,-2.1357 6.2747,-5.6787 v -8.5725 h -4.2726 v 0.8385 c 0,0.4597 0.0533,0.8645 0.0533,0.8645 h -0.0533 c 0,0 -1.0276,-2.0276 -3.949,-2.0276 -2.5954,0 -4.7324,1.7306 -4.7324,4.489 0,4.0566 5.9227,4.5164 8.0858,4.5164 z m -2.0554,-5.436 v 0 c 1.2175,0 2.2989,1.3252 2.2989,2.4613 v 0.2974 h -0.4328 c -1.4868,0 -3.1907,-0.4332 -3.1907,-1.5962 0,-0.6483 0.4054,-1.1625 1.3246,-1.1625 z m 10.1688,10.6826 h 4.4892 v -2.3533 c 0,-0.4595 -0.0544,-0.8645 -0.0544,-0.8645 h 0.0544 c 0.5944,1.8926 2.3522,3.4616 4.4345,3.4616 0.271,0 0.5408,-0.0544 0.5408,-0.0544 v -4.5978 c 0,0 -0.3775,0.0814 -0.9459,0.0814 -1.1092,0 -2.9208,-0.3518 -3.5966,-2.4336 -0.1627,-0.5145 -0.2435,-1.1361 -0.2435,-1.8935 v -5.2739 h -4.6785 z m 11.6282,5.4088 h 4.6798 v -10.0065 h 1.3246 l 2.7581,4.5977 h 5.0842 l -4.0839,-6.3286 v -0.0536 l 4.6517,-7.5458 h -5.328 l -2.9472,5.4091 h -1.4595 v -5.4091 h -4.6798 z m 16.1992,-5.409 h 4.6789 v -13.9278 h -4.6789 z m 0.0538,5.409 v 0 h 4.5701 v -3.651 h -4.5701 z m 8.0856,-5.4088 h 4.4889 v -2.3533 c 0,-0.4595 -0.0533,-0.8645 -0.0533,-0.8645 h 0.0533 c 0.5953,1.8926 2.3536,3.4616 4.436,3.4616 0.2704,0 0.5414,-0.0544 0.5414,-0.0544 v -4.5978 c 0,0 -0.3793,0.0814 -0.9471,0.0814 -1.1089,0 -2.9202,-0.3518 -3.5966,-2.4336 -0.1627,-0.5145 -0.2443,-1.1361 -0.2443,-1.8935 v -5.2739 h -4.6783 z m 11.6288,-2e-4 h 4.6795 v -13.9278 h -4.6795 z m 0.0542,5.409 v 0 h 4.5697 v -3.651 h -4.5697 z m 9.0051,-14.4688 c 0,0 1.5417,-1.4063 3.5433,-1.4063 0.7021,0 1.3793,0.1899 1.3793,0.6497 0,1.2163 -6.5182,1.3524 -6.5182,5.8949 0,2.6232 2.5149,4.246 5.7327,4.246 3.2457,0 4.8955,-1.5956 4.8955,-1.5956 l -1.5956,-3.3264 c 0,0 -1.3525,1.1358 -3.2999,1.1358 -0.7029,0 -1.379,-0.1891 -1.379,-0.6764 0,-1.0542 6.5171,-1.2163 6.5171,-5.7055 0,-2.38 -2.1084,-4.4085 -5.7061,-4.4085 -3.4875,0 -5.5701,2.0551 -5.5701,2.0551 z m -1.2447,14.4688 v 0 h 3.6513 l 1.2716,-2.2169 h 0.0547 l 1.2711,2.2169 h 3.6496 l -2.6765,-4.0572 h -4.5436 z m 19.7966,-5.0845 c 3.7862,0 5.5446,-2.1092 5.5446,-2.1092 l -1.9747,-3.1371 c 0,0 -1.3521,1.3521 -3.2723,1.3521 -2.2175,0 -3.3267,-1.6767 -3.3267,-3.3265 0,-1.6497 1.1353,-3.4613 3.4886,-3.4613 1.9477,0 3.8137,1.6769 3.8137,1.6769 l 1.7031,-3.2731 c 0,0 -2.0824,-2.2984 -5.9763,-2.2984 -4.9768,0 -7.7621,3.4614 -7.7621,7.3024 0,3.7318 2.7589,7.2742 7.7621,7.2742 z m -5.4907,5.0845 v 0 h 3.6513 l 1.2713,-2.2169 h 0.0539 l 1.2713,2.2169 h 3.651 l -2.6778,-4.0572 h -4.5423 z M 477.3708,682.74 h 0.1899 v 0.2435 c 0,1.1625 -0.8921,1.5415 -2.0551,1.5415 -1.7584,0 -3.7593,-1.3249 -3.7593,-1.3249 l -1.6229,3.2989 c 0,0 2.4066,1.8114 5.8417,1.8114 3.9217,0 6.2742,-2.1357 6.2742,-5.6787 v -8.5725 h -4.2727 v 0.8385 c 0,0.4597 0.0539,0.8645 0.0539,0.8645 h -0.0539 c 0,0 -1.0281,-2.0276 -3.9481,-2.0276 -2.5968,0 -4.7333,1.7306 -4.7333,4.489 0,4.0566 5.923,4.5164 8.0856,4.5164 z m -2.0554,-5.436 v 0 c 1.2177,0 2.2997,1.3252 2.2997,2.4613 v 0.2974 h -0.4337 c -1.4868,0 -3.1907,-0.4332 -3.1907,-1.5962 0,-0.6483 0.4054,-1.1625 1.3247,-1.1625 z m -277.865,-18.2789 h 4.6785 v -13.9283 h -4.6785 z m 0.0533,5.4096 v 0 h 4.5705 v -3.6527 h -4.5705 z m 8.0863,-5.4096 h 4.489 v -1.2178 c 0,-0.4606 -0.0541,-0.866 -0.0541,-0.866 h 0.0541 c 0.6494,1.0826 1.9743,2.4072 4.4354,2.4072 2.8128,0 5.004,-1.2983 5.004,-5.2191 v -9.0326 h -4.6789 v 8.1671 c 0,1.2986 -0.5148,1.8386 -1.5423,1.8386 -1.4602,0 -2.3522,-0.811 -2.7581,-2.0007 -0.1894,-0.5409 -0.2702,-1.1631 -0.2702,-1.8388 v -6.1662 H 205.59 Z m 24.0948,-3.8951 h -1.7847 v 3.6507 h 1.9202 v 4.0048 h 4.5434 v -4.0048 h 2.9205 V 655.13 h -2.9205 v -4.273 c 0,-1.5678 1.5962,-1.7847 2.488,-1.7847 0.3789,0 0.6222,0.0267 0.6222,0.0267 v -4.0572 c 0,0 -0.514,-0.08 -1.2714,-0.08 -2.2175,0 -6.5177,0.595 -6.5177,5.2736 z m 10.52,3.8951 h 4.4895 v -2.3536 c 0,-0.4601 -0.0545,-0.866 -0.0545,-0.866 h 0.0545 c 0.595,1.8938 2.3533,3.4614 4.4345,3.4614 0.271,0 0.542,-0.053 0.542,-0.053 v -4.5981 c 0,0 -0.379,0.0816 -0.9474,0.0816 -1.1083,0 -2.9205,-0.352 -3.5966,-2.4347 -0.1624,-0.5127 -0.2432,-1.1358 -0.2432,-1.8918 v -5.2741 h -4.6788 z m 10.8172,-11.6022 5.1112,6.4097 c 0.7021,0.8648 1.2178,1.2699 1.2178,1.2699 v 0.0547 c 0,0 -0.3521,-0.0547 -1.2178,-0.0547 h -4.8954 v 3.9226 h 12.4398 v -2.3536 l -5.0839,-6.41 c -0.6755,-0.8377 -1.2427,-1.2708 -1.2427,-1.2708 v -0.0533 c 0,0 0.3512,0.0817 1.2427,0.0817 h 5.2186 v -3.9223 H 251.022 Z m 1.325,17.0115 v 0 h 3.651 l 1.271,-2.217 h 0.0539 l 1.2708,2.217 h 3.6501 l -2.677,-4.0575 h -4.5422 z m 14.1692,-5.4093 h 4.4878 v -1.2178 c 0,-0.4606 -0.0541,-0.866 -0.0541,-0.866 h 0.0541 c 0.6506,1.0826 1.9752,2.4072 4.4354,2.4072 2.8137,0 5.0049,-1.2983 5.0049,-5.2191 v -9.0326 h -4.6798 v 8.1671 c 0,1.2986 -0.5139,1.8386 -1.5423,1.8386 -1.4596,0 -2.3522,-0.811 -2.7575,-2.0007 -0.1891,-0.5409 -0.271,-1.1631 -0.271,-1.8388 v -6.1662 h -4.6775 z m 17.1992,0 h 4.6786 v -13.9283 h -4.6786 z m 0.0533,5.4096 v 0 h 4.5706 v -3.6527 h -4.5706 z m 14.8204,-5.0862 c 3.786,0 5.544,-2.109 5.544,-2.109 l -1.974,-3.1374 c 0,0 -1.3525,1.3525 -3.2724,1.3525 -2.2172,0 -3.3267,-1.6767 -3.3267,-3.3268 0,-1.6492 1.1361,-3.4619 3.4883,-3.4619 1.9471,0 3.8143,1.6778 3.8143,1.6778 l 1.7042,-3.2723 c 0,0 -2.0829,-2.2995 -5.9777,-2.2995 -4.9754,0 -7.7613,3.4622 -7.7613,7.3023 0,3.7313 2.7582,7.2743 7.7613,7.2743 z m 14.4136,0 c 4.1114,0 6.4369,-2.8655 6.4369,-6.7331 0,-0.4609 -0.1077,-1.4613 -0.1077,-1.4613 h -8.7891 c 0.3509,-1.7036 1.7578,-2.4882 3.2443,-2.4882 2.0015,0 3.8403,1.4057 3.8403,1.4057 l 1.7312,-3.2712 c 0,0 -2.2445,-2.0285 -5.95,-2.0285 -4.9756,0 -7.6532,3.5969 -7.6532,7.3023 0,4.0833 2.7581,7.2743 7.2473,7.2743 z m 1.7317,-5.5159 v 0 c 0,1.0542 -0.7299,2.0007 -1.8394,2.0007 -1.3524,0 -2.0013,-0.9737 -2.2445,-2.0007 z m 7.7882,-5.2472 h 3.3797 l -2.5965,-6.3284 h -2.5954 z m 19.0103,10.3575 c 3.4083,0 4.6785,-3.0552 4.6785,-3.0552 h 0.0545 c 0,0 -0.1078,0.4864 -0.1078,1.1075 v 7.0336 h 1.1359 v -18.932 h -1.1359 v 1.7036 c 0,0.6225 0.1078,1.027 0.1078,1.027 h -0.0545 c 0,0 -1.1625,-3.0555 -4.894,-3.0555 -3.6235,0 -5.8416,2.8936 -5.8416,7.0858 0,4.2998 2.5149,7.0852 6.0571,7.0852 z m -0.1616,-13.0612 v 0 c 2.4879,0 4.8141,1.7572 4.8141,6.0032 0,3.0019 -1.5418,5.9499 -4.7058,5.9499 -2.6504,0 -4.8138,-2.1909 -4.8138,-5.9771 0,-3.6511 1.9468,-5.976 4.7055,-5.976 z m 23.095,13.0612 c 3.8667,0 7.0035,-3.0552 7.0035,-7.0042 0,-4.0297 -3.1368,-7.1668 -7.0035,-7.1668 -3.8668,0 -7.0042,3.1371 -7.0042,7.1668 0,3.949 3.1374,7.0042 7.0042,7.0042 z m 0,-13.0612 v 0 c 3.2184,0 5.8144,2.6223 5.8144,6.057 0,3.3531 -2.596,5.8961 -5.8144,5.8961 -3.2185,0 -5.8145,-2.543 -5.8145,-5.8961 0,-3.4347 2.596,-6.057 5.8145,-6.057 z m 23.176,13.0612 c 3.8679,0 7.0036,-3.0552 7.0036,-7.0042 0,-4.0297 -3.1357,-7.1668 -7.0036,-7.1668 -3.8673,0 -7.0044,3.1371 -7.0044,7.1668 0,3.949 3.1371,7.0042 7.0044,7.0042 z m 0,-13.0612 v 0 c 3.2176,0 5.815,2.6223 5.815,6.057 0,3.3531 -2.5974,5.8961 -5.815,5.8961 -3.2184,0 -5.815,-2.543 -5.815,-5.8961 0,-3.4347 2.5966,-6.057 5.815,-6.057 z m -190.1919,13.1434 h 4.6785 v -13.9283 h -4.6785 z m 0.0533,5.4096 v 0 h 4.5705 v -3.6527 h -4.5705 z m 8.0863,-5.4096 h 4.489 v -1.2178 c 0,-0.4606 -0.0541,-0.866 -0.0541,-0.866 h 0.0541 c 0.6494,1.0826 1.9743,2.4072 4.4354,2.4072 2.8128,0 5.004,-1.2983 5.004,-5.2191 v -9.0326 h -4.6789 v 8.1671 c 0,1.2986 -0.5148,1.8386 -1.5423,1.8386 -1.4602,0 -2.3522,-0.811 -2.7581,-2.0007 -0.1894,-0.5409 -0.2702,-1.1631 -0.2702,-1.8388 v -6.1662 H 205.59 Z m 24.0948,-3.8951 h -1.7847 v 3.6507 h 1.9202 v 4.0048 h 4.5434 v -4.0048 h 2.9205 V 655.13 h -2.9205 v -4.273 c 0,-1.5678 1.5962,-1.7847 2.488,-1.7847 0.3789,0 0.6222,0.0267 0.6222,0.0267 v -4.0572 c 0,0 -0.514,-0.08 -1.2714,-0.08 -2.2175,0 -6.5177,0.595 -6.5177,5.2736 z m 10.52,3.8951 h 4.4895 v -2.3536 c 0,-0.4601 -0.0545,-0.866 -0.0545,-0.866 h 0.0545 c 0.595,1.8938 2.3533,3.4614 4.4345,3.4614 0.271,0 0.542,-0.053 0.542,-0.053 v -4.5981 c 0,0 -0.379,0.0816 -0.9474,0.0816 -1.1083,0 -2.9205,-0.352 -3.5966,-2.4347 -0.1624,-0.5127 -0.2432,-1.1358 -0.2432,-1.8918 v -5.2741 h -4.6788 z m 10.8172,-11.6022 5.1112,6.4097 c 0.7021,0.8648 1.2178,1.2699 1.2178,1.2699 v 0.0547 c 0,0 -0.3521,-0.0547 -1.2178,-0.0547 h -4.8954 v 3.9226 h 12.4398 v -2.3536 l -5.0839,-6.41 c -0.6755,-0.8377 -1.2427,-1.2708 -1.2427,-1.2708 v -0.0533 c 0,0 0.3512,0.0817 1.2427,0.0817 h 5.2186 v -3.9223 H 251.022 Z m 1.325,17.0115 v 0 h 3.651 l 1.271,-2.217 h 0.0539 l 1.2708,2.217 h 3.6501 l -2.677,-4.0575 h -4.5422 z m 14.1692,-5.4093 h 4.4878 v -1.2178 c 0,-0.4606 -0.0541,-0.866 -0.0541,-0.866 h 0.0541 c 0.6506,1.0826 1.9752,2.4072 4.4354,2.4072 2.8137,0 5.0049,-1.2983 5.0049,-5.2191 v -9.0326 h -4.6798 v 8.1671 c 0,1.2986 -0.5139,1.8386 -1.5423,1.8386 -1.4596,0 -2.3522,-0.811 -2.7575,-2.0007 -0.1891,-0.5409 -0.271,-1.1631 -0.271,-1.8388 v -6.1662 h -4.6775 z m 17.1992,0 h 4.6786 v -13.9283 h -4.6786 z m 0.0533,5.4096 v 0 h 4.5706 v -3.6527 h -4.5706 z m 14.8204,-5.0862 c 3.786,0 5.544,-2.109 5.544,-2.109 l -1.974,-3.1374 c 0,0 -1.3525,1.3525 -3.2724,1.3525 -2.2172,0 -3.3267,-1.6767 -3.3267,-3.3268 0,-1.6492 1.1361,-3.4619 3.4883,-3.4619 1.9471,0 3.8143,1.6778 3.8143,1.6778 l 1.7042,-3.2723 c 0,0 -2.0829,-2.2995 -5.9777,-2.2995 -4.9754,0 -7.7613,3.4622 -7.7613,7.3023 0,3.7313 2.7582,7.2743 7.7613,7.2743 z m 14.4136,0 c 4.1114,0 6.4369,-2.8655 6.4369,-6.7331 0,-0.4609 -0.1077,-1.4613 -0.1077,-1.4613 h -8.7891 c 0.3509,-1.7036 1.7578,-2.4882 3.2443,-2.4882 2.0015,0 3.8403,1.4057 3.8403,1.4057 l 1.7312,-3.2712 c 0,0 -2.2445,-2.0285 -5.95,-2.0285 -4.9756,0 -7.6532,3.5969 -7.6532,7.3023 0,4.0833 2.7581,7.2743 7.2473,7.2743 z m 1.7317,-5.5159 v 0 c 0,1.0542 -0.7299,2.0007 -1.8394,2.0007 -1.3524,0 -2.0013,-0.9737 -2.2445,-2.0007 z m 7.7882,-5.2472 h 3.3797 l -2.5965,-6.3284 h -2.5954 z m 19.0103,10.3575 c 3.4083,0 4.6785,-3.0552 4.6785,-3.0552 h 0.0545 c 0,0 -0.1078,0.4864 -0.1078,1.1075 v 7.0336 h 1.1359 v -18.932 h -1.1359 v 1.7036 c 0,0.6225 0.1078,1.027 0.1078,1.027 h -0.0545 c 0,0 -1.1625,-3.0555 -4.894,-3.0555 -3.6235,0 -5.8416,2.8936 -5.8416,7.0858 0,4.2998 2.5149,7.0852 6.0571,7.0852 z m -0.1616,-13.0612 v 0 c 2.4879,0 4.8141,1.7572 4.8141,6.0032 0,3.0019 -1.5418,5.9499 -4.7058,5.9499 -2.6504,0 -4.8138,-2.1909 -4.8138,-5.9771 0,-3.6511 1.9468,-5.976 4.7055,-5.976 z m 23.095,13.0612 c 3.8667,0 7.0035,-3.0552 7.0035,-7.0042 0,-4.0297 -3.1368,-7.1668 -7.0035,-7.1668 -3.8668,0 -7.0042,3.1371 -7.0042,7.1668 0,3.949 3.1374,7.0042 7.0042,7.0042 z m 0,-13.0612 v 0 c 3.2184,0 5.8144,2.6223 5.8144,6.057 0,3.3531 -2.596,5.8961 -5.8144,5.8961 -3.2185,0 -5.8145,-2.543 -5.8145,-5.8961 0,-3.4347 2.596,-6.057 5.8145,-6.057 z m 23.176,13.0612 c 3.8679,0 7.0036,-3.0552 7.0036,-7.0042 0,-4.0297 -3.1357,-7.1668 -7.0036,-7.1668 -3.8673,0 -7.0044,3.1371 -7.0044,7.1668 0,3.949 3.1371,7.0042 7.0044,7.0042 z m 0,-13.0612 v 0 c 3.2176,0 5.815,2.6223 5.815,6.057 0,3.3531 -2.5974,5.8961 -5.815,5.8961 -3.2184,0 -5.815,-2.543 -5.815,-5.8961 0,-3.4347 2.5966,-6.057 5.815,-6.057 z m -231.5746,46.5517 c 17.4571,15.2747 30.7199,31.0402 30.7199,31.0402 0,0 1.3991,1.4836 1.3991,-0.4669 0,-1.9505 0.0851,-78.4185 0.0851,-78.4185 l -48.4322,-44.1051 c 0,0 -20.0191,15.9378 -67.9402,37.5741 -0.0868,0.0388 30.9166,3.604 30.9166,3.604 l 18.6174,2.1203 c 0,0 -0.1375,25.0622 0.0442,25.1515 13.7393,6.7706 22.7024,13.0986 34.5901,23.5004 z m -29.9832,-48.6142 v 0 l -38.3083,-6.0208 -1.6166,0.5255 -4.4047,-0.5663 7.6779,-3.193 4.2026,1.2124 -2.1424,0.7268 38.3083,7.477 v 23.2778 l -3.7168,-1.819 z m 9.536,0.1607 v 0 l -38.1461,-9.4555 -1.8187,0.6463 -4.1216,-1.334 8.4053,-3.475 4.6069,1.819 -2.3437,0.8484 37.7016,11.0324 v 28.6926 l -4.2837,-2.3437 z m 10.7892,0.0816 v 0 l -37.2166,-13.4566 -2.101,0.7271 -4.4048,-2.0602 8.89,-3.839 4.809,2.1407 -2.5466,1.2532 38.0259,15.4367 v 36.2897 l -5.4559,-3.8393 z m 12.85,0.2019 v 0 l -37.2169,-18.9117 -2.3031,0.9698 -4.8492,-2.2626 10.466,-4.8895 4.4448,2.5455 -2.5864,1.2929 37.6212,21.3372 0.0411,45.3407 -5.6971,-4.8089 z m 13.214,0.0816 v 0 l -36.8124,-25.2567 -3.0716,1.374 -4.2831,-2.6669 12.2037,-6.7079 4.2434,3.2315 -4.1629,2.2641 37.4595,28.0034 -0.0399,54.11 -5.5766,-3.9603 z m 180.4252,2.1867 h -1.3745 v -1.558 h 1.3745 z m 23.1917,0 h -1.3745 v -1.558 h 1.3745 z m 23.1916,0 h -1.3748 v -1.558 h 1.3748 z"
           fill="#00a650"
           id="path5" />
      </g>
    </g>
  </g>
</svg>
