<?xml version="1.0" encoding="UTF-8" standalone="no"?>
<!-- Generator: Adobe Illustrator 22.1.0, SVG Export Plug-In . SVG Version: 6.00 Build 0)  -->

<svg
   version="1.1"
   id="Layer_1"
   x="0px"
   y="0px"
   viewBox="0 0 449.95001 449.85001"
   xml:space="preserve"
   sodipodi:docname="instagram-logo-bw.svg"
   width="449.95001"
   height="449.85001"
   inkscape:version="1.1.2 (b8e25be8, 2022-02-05)"
   xmlns:inkscape="http://www.inkscape.org/namespaces/inkscape"
   xmlns:sodipodi="http://sodipodi.sourceforge.net/DTD/sodipodi-0.dtd"
   xmlns="http://www.w3.org/2000/svg"
   xmlns:svg="http://www.w3.org/2000/svg"><defs
   id="defs9" /><sodipodi:namedview
   id="namedview7"
   pagecolor="#ffffff"
   bordercolor="#666666"
   borderopacity="1.0"
   inkscape:pageshadow="2"
   inkscape:pageopacity="0.0"
   inkscape:pagecheckerboard="0"
   showgrid="false"
   inkscape:zoom="1.0253906"
   inkscape:cx="224.30476"
   inkscape:cy="224.79238"
   inkscape:window-width="1159"
   inkscape:window-height="747"
   inkscape:window-x="0"
   inkscape:window-y="25"
   inkscape:window-maximized="0"
   inkscape:current-layer="Layer_1" />
<g
   id="g4"
   transform="translate(-31.025,-31.025)">
	<path
   d="m 256.1,140.7 c -63.8,0 -115.3,51.5 -115.3,115.3 0,63.8 51.5,115.3 115.3,115.3 63.8,0 115.3,-51.5 115.3,-115.3 0,-63.8 -51.5,-115.3 -115.3,-115.3 z m 0,190.3 c -41.3,0 -75,-33.6 -75,-75 0,-41.4 33.6,-75 75,-75 41.4,0 75,33.6 75,75 0,41.4 -33.8,75 -75,75 z M 403,135.9 c 0,15 -12,26.9 -26.9,26.9 -15,0 -26.9,-12 -26.9,-26.9 0,-14.9 12,-26.9 26.9,-26.9 14.9,0 26.9,12.1 26.9,26.9 z m 76.4,27.3 c -1.7,-36 -9.9,-68 -36.3,-94.3 C 416.8,42.6 384.9,34.4 348.8,32.6 311.7,30.5 200.3,30.5 163.2,32.6 127.3,34.3 95.3,42.5 68.9,68.8 42.5,95.1 34.4,127 32.6,163.1 c -2.1,37.1 -2.1,148.5 0,185.6 1.7,36 9.9,68 36.3,94.3 26.4,26.3 58.2,34.5 94.3,36.3 37.1,2.1 148.5,2.1 185.6,0 36,-1.7 68,-9.9 94.3,-36.3 26.3,-26.3 34.5,-58.2 36.3,-94.3 2.1,-37.1 2.1,-148.3 0,-185.5 z m -48,225.4 c -7.8,19.7 -23,34.8 -42.8,42.8 -29.6,11.7 -99.9,9 -132.6,9 -32.7,0 -103.1,2.6 -132.6,-9 -19.7,-7.8 -34.8,-23 -42.8,-42.8 -11.7,-29.6 -9,-99.9 -9,-132.6 0,-32.7 -2.6,-103.1 9,-132.6 7.8,-19.7 23,-34.8 42.8,-42.8 29.6,-11.7 99.9,-9 132.6,-9 32.7,0 103.1,-2.6 132.6,9 19.7,7.8 34.8,23 42.8,42.8 11.7,29.6 9,99.9 9,132.6 0,32.7 2.8,103.1 -9,132.6 z"
   id="path2" />
</g>
</svg>
