<?xml version="1.0" encoding="UTF-8" standalone="no"?>
<svg
   width="191.21432pt"
   height="195.73012pt"
   viewBox="0 0 191.21433 195.73012"
   version="1.1"
   id="svg354"
   sodipodi:docname="Slovan-logo-new.svg"
   inkscape:version="1.1.2 (b8e25be8, 2022-02-05)"
   xmlns:inkscape="http://www.inkscape.org/namespaces/inkscape"
   xmlns:sodipodi="http://sodipodi.sourceforge.net/DTD/sodipodi-0.dtd"
   xmlns="http://www.w3.org/2000/svg"
   xmlns:svg="http://www.w3.org/2000/svg">
  <defs
     id="defs358" />
  <sodipodi:namedview
     id="namedview356"
     pagecolor="#ffffff"
     bordercolor="#666666"
     borderopacity="1.0"
     inkscape:pageshadow="2"
     inkscape:pageopacity="1"
     inkscape:pagecheckerboard="true"
     inkscape:document-units="pt"
     showgrid="false"
     inkscape:zoom="1.2038523"
     inkscape:cx="-27.412001"
     inkscape:cy="130.83"
     inkscape:window-width="1280"
     inkscape:window-height="677"
     inkscape:window-x="0"
     inkscape:window-y="25"
     inkscape:window-maximized="0"
     inkscape:current-layer="svg354" />
  <g
     id="surface1"
     transform="translate(-46.125411,-43.868028)">
    <path
       style="fill:#caebe8;fill-opacity:1;fill-rule:evenodd;stroke:none"
       d="m 146.69531,170.03516 c 5.46094,0.0859 9.75781,2.33984 16.78516,-1.4336 10.75,-5.76562 20.73828,-21.34375 22.10547,-37.52734 1.28906,-15.29297 -9.15235,-32.757814 -19.67578,-36.894532 -18.46094,-7.257813 -24.65625,-26.328126 -24.65625,-26.328126 -6.65235,11.785157 -13.46485,20.222657 -23.28907,24.050782 -13.17968,5.132812 -23.292965,18.917966 -24.203121,35.707036 -1.246094,22.99609 16.078121,37.0664 21.925781,39.93359 6.19531,3.03515 13.60547,1.66797 16.78906,2.27344 z m 0,0"
       id="path181" />
    <path
       style="fill:#caebe8;fill-opacity:1;fill-rule:evenodd;stroke:none"
       d="m 52.480469,112.32422 c 1.8125,0.58984 1.085937,2.37109 0.699219,2.24609 L 50.730469,113.625 c -0.90625,-0.29297 -0.222657,-1.94141 1.75,-1.30078 m 4.910156,9.22266 c 1.117187,0.49218 2.046875,-1.91016 2.34375,-2.81641 0.261719,-0.81641 0.933594,-2.87891 -0.04687,-3.34375 -0.863281,-0.42578 -1.109375,0.78906 -1.894531,0.53516 -1.082031,-0.20704 -2.574219,-0.5586 -2.40625,-1.07813 0.246093,-1.625 2.738281,-0.81641 4.027343,-0.83984 1.472657,-0.0937 2.328126,-1 2.828126,-2.54297 0.984374,-3.02735 -0.945313,-3.65235 -1.460938,-2.52735 -0.355469,0.64063 -1.484375,0.125 -2.628906,0.17969 -1.855469,-0.15625 -2.011719,1.64453 -2.621094,1.30078 -0.386719,-0.1289 -0.363281,-1.97265 -1.949219,-2.48828 -3.5,-1.13672 -4.773437,2.77735 -5.476562,5.84766 -0.347657,1.07031 -2.050781,4.08984 -0.53125,4.71484 0.996093,0.47266 0.683593,-1.1875 2.628906,-0.55859 l 5.367187,1.74609 c 1.941407,0.62891 0.953126,1.45703 1.820313,1.8711"
       id="path183" />
    <path
       style="fill:#caebe8;fill-opacity:1;fill-rule:evenodd;stroke:none"
       d="m 62.589844,101.61328 c -1.3125,0.0781 -3.496094,-0.16406 -4.753906,-0.99219 -1.957032,-1.33984 -0.582032,-2.765621 0.40625,-2.859371 1.753906,-0.339844 4.238281,0.203125 5.535156,1.054687 1.007812,0.691406 0.894531,2.667974 -1.1875,2.796874 m 3.617187,1.00391 c 1.617188,-3.042971 0.902344,-7.472659 -2.378906,-8.914065 -8.199219,-3.585937 -13.472656,7.761715 -6.632813,11.878905 5.335938,2.51563 8.121094,-1.28515 9.011719,-2.96484"
       id="path185" />
    <path
       style="fill:#caebe8;fill-opacity:1;fill-rule:evenodd;stroke:none"
       d="m 67.753906,93.746094 c 0.585938,0.59375 0.226563,1.515625 0.773438,1.929687 0.859375,0.644531 2.089844,-0.988281 2.664062,-1.746093 0.671875,-0.894532 2.035156,-2.9375 1.289063,-3.5 -0.761719,-0.574219 -1.53125,0.214843 -2.078125,-0.199219 -0.734375,-0.375 -1.347656,-1.191407 -0.289063,-1.40625 2.183594,-0.40625 4.507813,0.113281 5.089844,-0.660157 l 2.148437,-2.855468 c 0.402344,-0.535156 0.296876,-1.296875 -0.316406,-1.601563 -0.632812,-0.300781 -0.734375,0.304688 -2.179687,0.40625 l -6.027344,0.457031 c -1.265625,0.101563 -1.160156,-1.90625 -1.304687,-2.855468 -0.125,-0.953125 1.726562,-1.824219 0.53125,-2.726563 -0.761719,-0.574219 -1.832032,0.378907 -2.730469,1.574219 -0.902344,1.199219 -1.597657,2.585938 -0.921875,3.273438 0.535156,0.402343 1.058594,-0.0625 1.324218,1.171874 0.585938,1.789063 0.605469,2.664063 -0.753906,1.464844 -1.34375,-1.171875 -0.300781,-1.417968 -1.058594,-1.992187 -0.984374,-0.738281 -2.214843,0.890625 -2.730468,1.578125 -0.574219,0.757812 -1.933594,2.796875 -0.949219,3.539062 0.859375,0.648438 0.542969,-0.957031 3.359375,1.011719 1.503906,0.957031 2.949219,2.046875 2.949219,2.046875 0.535156,0.402344 0.761719,0.570312 1.210937,1.089844"
       id="path187" />
    <path
       style="fill:#caebe8;fill-opacity:1;fill-rule:evenodd;stroke:none"
       d="m 80.40625,77.648438 c -1.269531,-0.351563 -3.257812,-1.292969 -4.175781,-2.484376 -1.414063,-1.902343 0.351562,-2.800781 1.316406,-2.570312 1.765625,0.25 3.9375,1.574219 4.890625,2.796875 0.726562,0.988281 -0.01953,2.816406 -2.03125,2.257813 M 83.5,79.777344 c 2.519531,-2.351563 3.28125,-6.773438 0.648438,-9.203125 -6.585938,-6.058594 -15.265626,2.953125 -10.136719,9.070312 4.226562,4.121094 8.09375,1.429688 9.488281,0.132813"
       id="path189" />
    <path
       style="fill:#caebe8;fill-opacity:1;fill-rule:evenodd;stroke:none"
       d="m 88.09375,72.671875 c 0.257812,0.652344 -0.574219,0.859375 -0.308594,1.503906 0.257813,0.652344 1.152344,0.535157 2.40625,-0.277343 1.257813,-0.816407 2.050782,-1.652344 1.609375,-2.332032 -0.371093,-0.574218 -1.058593,0.203125 -1.679687,-0.527344 -0.492188,-0.5 -0.863282,-1.074218 -1.230469,-1.636718 -0.6875,-1.058594 -0.644531,-1.738282 0.503906,-1.03125 0.816407,0.488281 1.855469,1.117187 3.25,1.996094 1.382813,0.871093 1.769531,0.46875 1.488281,-0.964844 l -0.480468,-3.292969 c -0.121094,-1.707031 0.4375,-1.589844 1.226562,-0.113281 l 0.367188,0.5625 c 1.113281,1.714844 -0.0078,1.476562 0.351562,2.546875 0.585938,0.902343 2.417969,-0.289063 3.214844,-0.808594 2.31641,-1.5 2.32813,-1.976563 2.14453,-2.507813 -0.21484,-0.847656 -1.36328,-0.09766 -2.101561,-1.238281 -1.210938,-1.371093 -2.351563,-3.386719 -3.449219,-5.3125 -0.816406,-1.253906 0.4375,-1.585937 -0.277344,-2.421875 -0.636718,-0.722656 -2.425781,0.273438 -2.910156,0.585938 -0.914062,0.59375 -1.375,1.375 -1.304688,2.484375 0.06641,0.589843 0.394532,2.871093 0.492188,3.769531 0.113281,1.230469 -0.496094,1.292969 -1.539062,0.6875 l -3.359376,-1.929688 c -0.78125,-0.460937 -1.769531,-0.152343 -2.449218,0.289063 -0.957032,0.789063 -2.734375,1.777344 -1.871094,2.851563 0.914062,0.6875 1.464844,-0.46875 2.738281,1.496093 l 0.746094,1.148438 c 0.996094,1.789062 2.125,3.53125 2.421875,4.472656"
       id="path191" />
    <path
       style="fill:#caebe8;fill-opacity:1;fill-rule:evenodd;stroke:none"
       d="m 101.95703,63.527344 c 0.19922,1.105468 -0.53906,1.128906 -0.5039,1.863281 0.3789,0.855469 1.07031,0.410156 1.9414,0.02344 l 5.51172,-2.457031 c 1.26953,-0.5625 2.24609,-0.707031 2.74609,-0.929687 0.75391,-0.335938 0.5,-5.3125 -1.39062,-4.46875 -1.17188,0.707031 0.56641,2.613281 -2.44141,3.953125 -0.88281,0.394531 -1.70312,1.203125 -2.64062,-0.90625 -0.51563,-1.152344 -0.6211,-1.703125 0.004,-1.984375 1.3711,-0.609375 1.28516,1.546875 2.23438,0.988281 1.15234,-0.515625 0.25391,-2.535156 -0.0273,-3.164063 -0.33204,-0.742187 -1.13672,-2.210937 -2.21875,-1.878906 -1.19922,0.683594 0.97265,1.835938 -0.83985,2.488282 -0.68359,0.457031 -1.1875,-0.667969 -1.47265,-1.308594 -0.33594,-0.753906 -0.48438,-1.441406 0.99609,-2.097656 2.89453,-1.289063 2.74609,0.722656 3.94531,0.03516 1.36719,-0.609375 -0.53515,-3.195313 -1.625,-3.304688 -0.60937,-0.01953 -0.45703,0.664063 -2.41015,1.378906 -1.86719,0.832032 -4.01563,1.789063 -5.757818,2.5625 -0.867187,0.386719 -1.316406,1.03125 -0.921874,1.605469 0.328124,0.742188 1.230468,-0.257812 1.90625,0.945313 0.527343,0.839844 0.984374,1.527344 1.484372,2.652344 0.46094,0.683593 1.28907,2.890624 1.48047,4.003906"
       id="path193" />
    <path
       style="fill:#caebe8;fill-opacity:1;fill-rule:evenodd;stroke:none"
       d="m 118.99609,50.335938 c -0.28125,-1.058594 0.66797,-1.3125 1.51563,-0.261719 0.42187,0.484375 1.3125,1.230469 2.36328,0.382812 1.19922,-0.886719 -0.46094,-3.28125 -1.59375,-3.835937 -1.30078,-0.636719 -1.25781,0.0625 -2.30078,0.34375 l -5.72266,1.53125 c -1.1914,0.320312 -1.13281,-0.550782 -2.14062,0.992187 -0.98047,1.523438 -0.4336,4.109375 0.80859,4.046875 1.25,-0.04297 1.375,-1.675781 1.57813,-2.003906 0.35156,-0.804688 0.96093,-1.113281 1.24609,-0.05859 0.46094,1.183594 0.99609,3.722656 1.34375,5.503906 0.39453,2.007813 -1.19922,1.304688 -1.01953,2.515626 0.21484,1.347656 3.01953,0.597656 4.19141,0.28125 2.66796,-0.714844 3.62109,-1.375 3.37109,-2.308594 -0.31641,-1.175782 -1.67969,0.175781 -2.17188,-1.660156 l -0.67968,-2.53125 z m 0,0"
       id="path195" />
    <path
       style="fill:#caebe8;fill-opacity:1;fill-rule:evenodd;stroke:none"
       d="m 125.71484,56.949219 c 0.10157,0.804687 1.48047,0.902343 2.5625,0.769531 1.53125,-0.1875 2.84766,-0.617188 2.5586,-1.804688 -0.34766,-0.652343 -0.83985,-0.183593 -1.21485,-0.953124 -0.17578,-0.386719 -0.46484,-1.59375 -0.42968,-2.460938 -0.004,-1.082031 0.70703,-0.90625 1.47265,-0.304688 1.1875,0.84375 3.61719,2.460938 5.27344,3.640626 1.36719,1.042968 2.67187,1.292968 2.51172,-1.140626 -0.13672,-2.167968 -0.6875,-4.472656 -0.78125,-7.386718 -0.0742,-1.765625 1.07812,-1.355469 1.08203,-2.457032 -0.008,-1.097656 -1.51172,-1.054687 -2.75,-0.90625 -1.08594,0.136719 -2.55469,0.457032 -2.4375,1.398438 -0.004,1.105469 1.15234,0.550781 1.4375,1.742188 0.29687,1.238281 0.66797,3.109374 -0.84375,2.070312 -2.28125,-1.542969 -3.91797,-2.585938 -4.97656,-3.414062 -0.76172,-0.582032 -1.23047,-0.808594 -2.71875,-0.625 -2.02735,0.25 -2.48438,1 -2.38672,1.804687 0.25391,0.925781 1.24219,0.128906 1.71875,1.71875 0.43359,1.347656 0.69922,3.515625 0.86328,5.851563 0.23438,1.902343 -1.10937,1.109374 -0.94141,2.457031"
       id="path197" />
    <path
       style="fill:#caebe8;fill-opacity:1;fill-rule:evenodd;stroke:none"
       d="m 146.75,53.289062 c -0.60547,-1.167968 -1.26953,-3.265624 -1.02734,-4.746093 0.42968,-2.332031 2.28906,-1.65625 2.77734,-0.792969 1.02344,1.464844 1.53516,3.957031 1.28906,5.484375 -0.22656,1.203125 -2.07031,1.90625 -3.03906,0.05469 m 0.55469,3.714844 c 3.4375,0.238282 7.1914,-2.21875 7.17578,-5.800781 -0.0625,-8.949219 -12.57422,-9.152344 -13.54688,-1.230469 -0.13281,5.902344 4.47266,6.898438 6.3711,7.03125"
       id="path199" />
    <path
       style="fill:#caebe8;fill-opacity:1;fill-rule:evenodd;stroke:none"
       d="m 173.49609,59.300781 c -1.3125,1.277344 -3.52343,0.519531 -3.08593,-0.765625 l 2.24218,-6.503906 c 0.48828,-1.417969 2.69922,-0.226562 2.77735,1.664062 0.0156,1.195313 -0.0742,1.886719 -0.33594,2.65625 -0.31641,0.914063 -0.99219,2.449219 -1.59766,2.949219 m -7.28125,-2.078125 c -0.40234,1.164063 -1.55468,0.339844 -1.86328,1.238282 -0.17969,0.515624 0.16406,1.195312 1.24219,1.417968 2.00391,0.558594 2.47656,0.855469 5.30859,1.828125 2.23047,0.769531 6.72657,1.605469 8.55078,-3.707031 1.65235,-4.792969 -1.11718,-6.898438 -4.19921,-7.960938 -1.19532,-0.414062 -2.40625,-0.679687 -4.97266,-1.710937 -0.51563,-0.179687 -2.05078,-0.707031 -2.28906,0.367187 -0.0859,0.679688 1.16797,0.828126 0.63281,1.949219 -0.17578,0.515625 -0.54297,1.578125 -0.54297,1.578125 z m 0,0"
       id="path201" />
    <path
       style="fill:#caebe8;fill-opacity:1;fill-rule:evenodd;stroke:none"
       d="m 188.07812,60.105469 c -0.92578,1.664062 -2.53515,0.609375 -2.33593,0.257812 l 1.39453,-2.226562 c 0.46094,-0.832031 1.94922,0.15625 0.9414,1.96875 m -9.98828,3.058593 c -0.69922,1.003907 1.48047,2.375 2.3125,2.835938 0.75,0.417969 2.64844,1.46875 3.29297,0.59375 0.58203,-0.761719 -0.5625,-1.238281 -0.16015,-1.960938 0.40625,-1.023437 1.03906,-2.421874 1.51562,-2.15625 1.54688,0.554688 0.27734,2.847657 0.0547,4.113282 -0.1875,1.464844 0.53906,2.476562 1.95703,3.261718 2.78125,1.542969 3.76562,-0.230468 2.75391,-0.949218 -0.5586,-0.472656 0.16406,-1.484375 0.32812,-2.621094 0.51172,-1.785156 -1.22656,-2.285156 -0.76953,-2.820312 0.19141,-0.351563 2,0.02734 2.80859,-1.433594 1.78516,-3.222656 -1.8164,-5.21875 -4.69531,-6.492188 -0.98047,-0.542968 -3.625,-2.792968 -4.52344,-1.421875 C 182.30859,55 184,55.007812 183.00781,56.796875 l -2.73828,4.941406 c -0.98828,1.785157 -1.61328,0.65625 -2.17969,1.425781"
       id="path203" />
    <path
       style="fill:#caebe8;fill-opacity:1;fill-rule:evenodd;stroke:none"
       d="m 193.12891,68.082031 c -2.41797,2.980469 0.28515,6.214844 1.875,7.5 2.03515,1.648438 5.3789,2.972657 7.89062,-0.128906 l 3.10156,-3.832031 c 0.6875,-0.851563 1.5586,0.03516 2.10157,-0.410156 0.78125,-0.769532 -0.83204,-2.074219 -1.46094,-2.585938 -1.38281,-1.117188 -2.375,-1.402344 -2.71875,-0.980469 -0.70703,0.652344 0.8164,1.371094 -0.0469,2.4375 l -3.09765,3.828125 c -1.82813,2.257813 -6.21875,-0.597656 -3.45313,-4.015625 l 2.50391,-3.09375 c 0.60937,-0.75 1.39062,0.242188 1.99609,-0.308593 0.82813,-0.574219 -0.082,-1.832032 -1.80078,-3.226563 -0.95703,-0.777344 -3.25391,-2.453125 -3.58594,-0.976563 -0.13672,0.59375 0.40625,1.210938 -0.10937,1.839844 l -2.33594,2.886719 z m 0,0"
       id="path205" />
    <path
       style="fill:#caebe8;fill-opacity:1;fill-rule:evenodd;stroke:none"
       d="m 215.75,73.390625 c -0.58594,-0.628906 -0.49219,-2.933594 -1.76563,-2.875 -0.67187,0.07422 -0.82812,1.898437 -0.1289,4.042969 0.19531,0.417968 0.29297,0.519531 0.87109,0.726562 2.46094,0.859375 3.62891,0.710938 3.75781,-0.15625 0.13282,-1.0625 -2.17968,-1.144531 -2.73437,-1.738281 m -9.00781,7.3125 c 0.72265,1.183594 0.77734,2.433594 -0.46875,2.101563 -1.51953,-0.4375 -2.03516,-2.796876 -1.6211,-3.929688 0.46094,-1.175781 0.0937,-1.964844 -0.68359,-1.792969 -0.59375,0.210938 -1.92578,1.988281 -2.04297,2.84375 -0.23437,1.328125 1.42969,3.316407 2.10938,4.046875 3.07812,3.507813 6.28515,2.371094 7.08984,1.429688 2.21484,-2.066406 0.73047,-4.457032 -0.14453,-6.605469 -0.81641,-1.902344 0.76562,-2.015625 1.39844,-1.132813 1.11718,1.199219 -0.0391,4.003907 1.50781,4.246094 1.26172,0.125 2.1875,-1.675781 2.04687,-3.039062 -0.0547,-0.863282 -0.96093,-0.828125 -1.21484,-1.511719 -0.27344,-0.679687 -1.09766,-1.769531 -1.37109,-2.066406 -1.70313,-1.824219 -4.19922,-2.488281 -6.39454,-0.609375 -1.79296,1.671875 -0.97265,4.808594 -0.21093,6.019531"
       id="path207" />
    <path
       style="fill:#caebe8;fill-opacity:1;fill-rule:evenodd;stroke:none"
       d="m 220.76562,90.40625 c 0.89454,-0.625 1.45704,0.179688 0.76172,1.335938 -0.3125,0.558593 -0.70703,1.652343 0.44532,2.351562 1.24609,0.824219 2.93359,-1.554688 3.0625,-2.808594 0.15234,-1.441406 -0.48829,-1.164062 -1.10547,-2.042968 l -3.40235,-4.855469 c -0.70703,-1.011719 0.13282,-1.253907 -1.66406,-1.671875 -1.76562,-0.402344 -4.00391,0.996094 -3.52734,2.144531 0.46875,1.15625 2.04687,0.71875 2.42578,0.796875 0.875,0.05469 1.375,0.523438 0.48047,1.148438 -0.95703,0.839843 -3.15625,2.207031 -4.70703,3.144531 -1.75782,1.058593 -1.64063,-0.679688 -2.71875,-0.09766 -1.19141,0.664063 0.47265,3.039063 1.17187,4.035157 1.58203,2.265625 2.52734,2.933593 3.32031,2.378906 0.9961,-0.695313 -0.73828,-1.519531 0.81641,-2.609375 l 2.14844,-1.503906 z m 0,0"
       id="path209" />
    <path
       style="fill:#caebe8;fill-opacity:1;fill-rule:evenodd;stroke:none"
       d="m 218.97266,103.73828 c -0.7461,0.94922 -0.48829,2.78906 1.59765,2.76563 l 9.75391,0.13281 c 1.51953,0.0469 1.24609,1.37891 2.03906,1.16406 0.55078,-0.11719 1.05859,-0.64844 0.0625,-2.78125 -0.68359,-1.47265 -1.46094,-2.46875 -2.12891,-2.3125 -0.85937,0.10938 0.0273,1.34766 -1.13281,1.44141 l -2.72265,0.0664 c -1.33204,0.0156 -1.39844,-0.74609 -0.76172,-1.33593 l 1.78515,-2.03907 c 0.57422,-0.72656 1.14844,0.20704 1.64453,-0.0234 1.23438,-0.26563 -0.0312,-2.980472 -0.39453,-3.757816 -0.63281,-1.355469 -1.97656,-3.277344 -2.98047,-2.515625 -0.67578,0.46875 0.46094,0.988281 -0.66406,2.117187 l -1.60547,1.796875 z m 0,0"
       id="path211" />
    <path
       style="fill:#caebe8;fill-opacity:1;fill-rule:evenodd;stroke:none"
       d="m 226.90234,117.08594 c 0.90625,-0.95313 2.67188,-2.26563 4.15625,-2.51563 2.33985,-0.35547 2.3086,1.625 1.65235,2.36719 -1.05078,1.44531 -3.24219,2.74219 -4.76953,3.00391 -1.21094,0.17968 -2.47266,-1.33985 -1.03907,-2.85547 m -3.32812,1.73437 c 0.89062,3.32813 4.4375,6.07813 7.8164,4.89844 8.44141,-2.97656 4.5625,-14.87109 -3.24609,-13.21484 -5.625,1.80078 -5.0625,6.47656 -4.57031,8.3164"
       id="path213" />
    <path
       style="fill:#caebe8;fill-opacity:1;fill-rule:evenodd;stroke:none"
       d="m 95.054688,188.38672 c 1.628906,0.33594 2.773437,1.30859 1.460937,2.13281 -1.628906,0.97266 -4.113281,-0.50391 -4.769531,-1.79687 -0.65625,-1.36329 -1.648438,-1.6836 -2.132813,-0.85938 -0.300781,0.69141 0.167969,3.3125 0.824219,4.11719 0.972656,1.28906 4.078125,1.45703 5.273438,1.45703 5.593752,0.16797 7.222652,-3.57422 7.054692,-5.05078 0,-3.62891 -3.312505,-4.28516 -5.910161,-5.27735 -2.339844,-0.83984 -1.144531,-2.32031 0.148437,-2.15234 1.960938,0 3.480474,3.3125 4.957034,2.15234 1.14062,-1.00781 0.32031,-3.29296 -0.99219,-4.28515 -0.80469,-0.65625 -1.515625,0.16797 -2.320312,-0.16797 -0.820313,-0.31641 -2.449219,-0.48828 -2.9375,-0.48828 -2.992188,0 -5.613282,1.64844 -5.761719,5.10937 0,2.9375 3.421875,4.79297 5.105469,5.10938"
       id="path215" />
    <path
       style="fill:#caebe8;fill-opacity:1;fill-rule:evenodd;stroke:none"
       d="m 105.55859,189.35937 c 0.14844,2.61719 -1.64453,1.47657 -1.64453,2.95704 0.16797,0.95312 0.82422,0.80468 1.64453,0.80468 h 7.22266 c 0.65625,0 1.34766,0.31641 2.17188,0.48438 0.97265,0.14844 2.44921,-1.62891 2.44921,-3.08594 0.16797,-2.99219 -1.96484,-3.16016 -2.28125,-1.47656 -0.16796,1.30859 -1.68359,1.96094 -2.99609,1.79297 -1.30859,-0.16797 -1.45703,-0.82422 -1.45703,-1.47657 v -7.26171 c 0,-1.96485 1.79297,-0.98829 1.625,-2.44922 0,-1.3086 -3.42188,-1.47657 -4.45313,-1.47657 -2.78515,0 -4.39453,0.82422 -4.24609,1.96094 0.16797,1.14453 2.11328,0 1.96484,2.82813 z m 0,0"
       id="path217" />
    <path
       style="fill:#caebe8;fill-opacity:1;fill-rule:evenodd;stroke:none"
       d="m 124.49219,189.04297 c -0.82031,-1.35156 -1.79688,-3.80078 -1.62891,-5.59766 0.32031,-2.82422 2.60156,-2.16797 3.25781,-1.17578 1.34766,1.66406 2.17188,4.60156 2.00391,6.45313 -0.16797,1.46093 -2.32031,2.45312 -3.63281,0.32031 m 0.97265,4.39453 c 4.13672,0 8.42188,-3.25391 8.10157,-7.53906 -0.82032,-10.70313 -15.8086,-9.89844 -16.3125,-0.33594 0.33593,7.07031 5.92968,7.875 8.21093,7.875"
       id="path219" />
    <path
       style="fill:#caebe8;fill-opacity:1;fill-rule:evenodd;stroke:none"
       d="m 140.36719,192.14844 c 0.65234,1.28906 2.78515,1.94531 3.8164,-0.33594 l 5.08594,-10.53516 c 0.82422,-1.6289 2.13672,-0.65625 2.30469,-1.6289 0.14844,-0.65235 -0.16797,-1.48047 -2.99219,-1.48047 -1.94922,0 -3.42578,0.33984 -3.59375,1.14453 -0.31641,0.99219 1.47656,0.65234 0.99219,1.96484 l -1.3086,2.99219 c -0.65625,1.46094 -1.51953,1.14063 -1.83593,0.14844 l -1.3086,-2.97266 c -0.50781,-0.99219 0.80469,-1.14062 0.80469,-1.79687 0.33594,-1.48047 -3.25781,-1.48047 -4.28516,-1.48047 -1.79687,0 -4.5664,0.48828 -4.24609,1.96484 0.16797,0.97656 1.30859,0 1.96094,1.79688 l 1.14062,2.65625 z m 0,0"
       id="path221" />
    <path
       style="fill:#caebe8;fill-opacity:1;fill-rule:evenodd;stroke:none"
       d="m 157.60156,187.20703 c -1.14062,0 -0.65234,-0.33594 -0.3164,-1.47656 0.65625,-1.96485 1.30859,-1.96485 2.28125,0 0.65625,1.30859 0.65625,1.47656 -0.33594,1.47656 z m -4.9375,2.97656 c -0.82422,1.96094 -2.11719,0.82422 -2.11719,2.12891 0,0.80859 1.14454,1.125 3.08985,1.125 2.82422,0 3.3125,-0.63672 3.3125,-1.29297 0,-0.82031 -1.83594,-0.65234 -1.34766,-1.625 0.16797,-0.65625 0.85938,-0.65625 2.65625,-0.65625 1.79688,0 2.78516,0 2.78516,0.65625 0.35937,0.97266 -1.16016,0.65625 -1.16016,1.625 0,1.29297 2.33985,1.29297 4.13672,1.29297 1.79688,0 4.62109,0 4.76953,-1.29297 0.16797,-1.30859 -1.28906,-0.48437 -1.79297,-1.79297 l -4.45312,-9.07422 c -1.14063,-2.11328 -2.48828,-3.10547 -3.79688,-3.10547 -3.3125,0 -1.96484,2.9336 -3.14453,5.27344 l -0.97265,2.28516 z m 0,0"
       id="path223" />
    <path
       style="fill:#caebe8;fill-opacity:1;fill-rule:evenodd;stroke:none"
       d="m 169.15234,192.14844 c 0,0.97265 1.62891,1.28906 2.9375,1.28906 1.85157,0 3.48047,-0.31641 3.3125,-1.77734 -0.32031,-0.82422 -0.97656,-0.33594 -1.3125,-1.3086 -0.14843,-0.48828 -0.3164,-1.96484 -0.14843,-2.99219 0.14843,-1.29296 0.97265,-0.97656 1.79687,-0.15234 1.29297,1.17969 3.94531,3.46094 5.74219,5.10938 1.48047,1.4375 2.99609,1.92578 3.16406,-0.99219 0.14844,-2.60156 -0.16797,-5.42578 0.14844,-8.90625 0.16797,-2.11328 1.47656,-1.46094 1.64453,-2.76953 0.15234,-1.3086 -1.64453,-1.48047 -3.14063,-1.48047 -1.30859,0 -3.10546,0.17187 -3.10546,1.3125 -0.16797,1.30859 1.28906,0.82422 1.45703,2.28125 0.16797,1.51562 0.33984,3.80078 -1.3086,2.33984 -2.48828,-2.17187 -4.28515,-3.64844 -5.42578,-4.78906 -0.82422,-0.80469 -1.34765,-1.14453 -3.14453,-1.14453 -2.44922,0 -3.10156,0.82812 -3.10156,1.79687 0.16797,1.14453 1.45703,0.33985 1.79297,2.30469 0.32031,1.66406 0.32031,4.28125 0.16797,7.08984 0,2.30079 -1.47657,1.16016 -1.47657,2.78907"
       id="path225" />
    <path
       style="fill:#caebe8;fill-opacity:1;fill-rule:evenodd;stroke:none"
       d="m 49.347656,162.22656 c -2.074218,0.6875 -1.542968,-1.00781 -2.734375,-0.6875 -0.734375,0.33985 -0.46875,0.83594 -0.292969,1.5 l 1.558594,5.81641 c 0.140625,0.52734 0.03516,1.15234 0.07813,1.85156 0.08984,0.81641 1.835938,1.625 3.015625,1.30859 2.445313,-0.51171 2.121094,-2.26562 0.695313,-2.15625 -1.089844,0.14454 -1.945313,-0.93359 -2.089844,-2.02343 -0.148437,-1.08985 0.34375,-1.35547 0.875,-1.4961 l 5.84375,-1.5664 c 1.582031,-0.42188 1.1875,1.23047 2.324219,0.78125 1.054687,-0.28125 0.453125,-3.07422 0.230468,-3.90235 -0.601562,-2.24609 -1.609374,-3.36328 -2.496093,-2.99609 -0.886719,0.38281 0.457031,1.70312 -1.851563,2.19141 -0.390625,0.10546 -0.648437,0.17187 -1.054687,0.28125 z m 0,0"
       id="path227" />
    <path
       style="fill:#caebe8;fill-opacity:1;fill-rule:evenodd;stroke:none"
       d="m 52.789062,176.91797 c -0.421874,-1.04297 0.53125,-0.85547 1.035157,-1.0586 1.746093,-0.83984 1.0625,-2.91796 0.08203,-3.54687 -0.800781,-0.40234 -2.554688,-0.41406 -3.390625,1.51953 -0.828125,1.94922 0.390625,6.05078 2.792969,7.28516 0.9375,0.52734 1.777344,0.77734 3.542968,0.0664 0.546876,-0.22265 3.753907,-1.36718 4.667969,-1.73828 1.386719,-0.55859 1.386719,0.90625 2.273438,0.54688 1.515625,-0.61328 -0.898438,-7.34375 -2.898438,-6.83594 -0.960937,0.53906 0.246094,1.69922 -1.027343,2.21094 -0.910157,0.37109 -2.246094,1.0625 -4.011719,1.77343 -1.246094,0.65625 -2.613281,0.90625 -3.066407,-0.22265"
       id="path229" />
    <path
       style="fill:#caebe8;fill-opacity:1;fill-rule:evenodd;stroke:none"
       d="M 58.542969,184.3125 C 55.253906,186.28906 56.6875,190.25 57.738281,192 c 1.351563,2.24609 4.039063,4.63281 7.464844,2.57812 l 4.222656,-2.53906 c 0.9375,-0.5625 1.453125,0.56641 2.113281,0.33203 1,-0.45703 -0.06641,-2.23437 -0.488281,-2.92968 -0.914062,-1.52344 -1.75,-2.12891 -2.21875,-1.85157 -0.890625,0.3711 0.304688,1.56641 -0.875,2.27344 l -4.226562,2.53906 c -2.484375,1.4961 -5.636719,-2.6914 -1.867188,-4.95703 l 3.410157,-2.04687 c 0.832031,-0.5 1.222656,0.70312 1.984374,0.39062 0.972657,-0.25781 0.550782,-1.75 -0.59375,-3.64844 -0.632812,-1.05859 -2.214843,-3.41796 -3.03125,-2.14453 -0.332031,0.50782 -0.03516,1.27735 -0.730468,1.69532 l -3.183594,1.91406 z m 0,0"
       id="path231" />
    <path
       style="fill:#caebe8;fill-opacity:1;fill-rule:evenodd;stroke:none"
       d="m 75.15625,198.38281 c -0.08203,0.96485 -1.453125,1.92969 -2.023438,1.87891 -0.484374,0.0586 -1.382812,-0.79688 -0.964843,-1.14844 l 2.007812,-1.68359 c 0.617188,-0.33203 1.027344,0.5664 0.980469,0.95312 m -3.839844,3.7461 c -0.359375,1.73046 -2.152344,2.35937 -2.945312,1.41406 -0.628906,-0.53125 -0.398438,-0.90625 0.847656,-1.94922 l 0.761719,-0.64453 c 0.621093,-0.51953 1.414062,0.42187 1.335937,1.17969 m -5.65625,-3.29297 c -1.226562,0.86328 -1.234375,-0.21094 -2.050781,0.29687 -0.636719,0.52735 -0.125,1.52344 0.40625,2.16016 1.601563,1.71094 2.210937,2.4414 3.703125,4.40625 2.890625,3.66406 8.0625,2.3789 7.132812,-1.6875 -0.363281,-1.28125 0.648438,-0.70703 1.433594,-0.83594 2.382813,-0.39062 3.28125,-2.9375 1.15625,-5.47266 -1.773437,-1.89062 -2.492187,-2.7539 -3.960937,-4.71875 -1.070313,-1.05468 -1.6875,-0.72265 -1.78125,-0.64062 -0.945313,0.79297 0.464843,1.39844 -0.789063,2.45312 l -0.550781,0.46094 z m 0,0"
       id="path233" />
    <path
       style="fill:#caebe8;fill-opacity:1;fill-rule:evenodd;stroke:none"
       d="m 75.648438,209.49609 c -1.371094,1.70703 -1.847657,0 -2.671876,0.91407 -0.425781,0.68359 0.0625,0.95703 0.570313,1.41796 l 4.476563,4.02735 c 0.40625,0.36719 0.65625,0.94922 1.074218,1.51172 0.519532,0.63672 2.425782,0.35937 3.238282,-0.54688 1.777343,-1.75781 0.546874,-3.05469 -0.585938,-2.1875 -0.835938,0.71875 -2.140625,0.27735 -2.859375,-0.55469 -0.714844,-0.83593 -0.445313,-1.32421 -0.07813,-1.73046 l 4.050781,-4.5 c 1.09375,-1.21485 1.664063,0.38671 2.375,-0.60938 0.730469,-0.8125 -1.296875,-2.82422 -1.9375,-3.39844 -1.722656,-1.55859 -3.179687,-1.94531 -3.722656,-1.15625 -0.535156,0.80078 1.308594,1.17969 -0.359375,2.84766 -0.273438,0.30078 -0.449219,0.5 -0.730469,0.8125 z m 0,0"
       id="path235" />
    <path
       style="fill:#caebe8;fill-opacity:1;fill-rule:evenodd;stroke:none"
       d="m 86.578125,219.89062 c -0.921875,-0.64453 -0.01953,-1.0039 0.292969,-1.44921 1.007812,-1.65625 -0.703125,-3.02735 -1.867188,-3.02344 -0.890625,0.10156 -2.367187,1.04687 -2.015625,3.12109 0.371094,2.08594 3.625,4.86328 6.3125,4.58985 1.074219,-0.0664 1.914063,-0.3125 3.003907,-1.875 0.339843,-0.48438 2.40625,-3.1875 2.96875,-3.99219 0.863281,-1.22656 1.660156,-0.004 2.203124,-0.78125 0.941407,-1.34375 -4.75,-5.67188 -6.152343,-4.15625 -0.511719,0.97265 1.136719,1.28906 0.347656,2.41406 -0.5625,0.80469 -1.308594,2.10938 -2.398437,3.67188 -0.691407,1.22656 -1.699219,2.17968 -2.695313,1.48046"
       id="path237" />
    <path
       style="fill:#caebe8;fill-opacity:1;fill-rule:evenodd;stroke:none"
       d="m 99.828125,224.44531 c -0.855469,-0.41797 -0.367187,-0.49219 0.300785,-1.22265 1.20703,-1.23438 1.69922,-0.9961 1.71093,0.83203 0.0117,1.22265 -0.0508,1.34765 -0.79296,0.98437 z m -4.789063,0.42578 c -1.335937,1.17188 -1.886718,-0.15625 -2.363281,0.82422 -0.296875,0.60156 0.441407,1.25781 1.902344,1.96875 2.113281,1.03516 2.714844,0.73438 2.953125,0.24219 0.300781,-0.61719 -1.136719,-1.16016 -0.414062,-1.71094 0.363281,-0.42969 0.882812,-0.17578 2.230468,0.48047 1.343754,0.65625 2.085934,1.01953 1.847654,1.50781 -0.0898,0.85938 -1.10937,0.0703 -1.464841,0.79688 -0.46875,0.96875 1.281251,1.82031 2.628911,2.48047 1.34765,0.65625 3.46093,1.6875 4.04687,0.77343 0.60547,-0.91796 -0.78906,-0.83593 -0.6875,-2 l -0.0234,-8.42968 c -0.082,-2 -0.73047,-3.23438 -1.71093,-3.71485 -2.48047,-1.21093 -2.54688,1.48438 -4.285161,2.80469 L 98.140625,222.25 Z m 0,0"
       id="path239" />
    <path
       style="fill:#caebe8;fill-opacity:1;fill-rule:evenodd;stroke:none"
       d="m 108.80469,233.18359 c -0.21094,0.78516 1.03125,1.39063 2.08984,1.67578 1.48828,0.39844 2.8711,0.4961 3.05078,-0.71875 -0.082,-0.73046 -0.71093,-0.48046 -0.77734,-1.33593 -0.0117,-0.42578 0.16797,-1.65235 0.52734,-2.44141 0.39844,-1.00781 0.9961,-0.57422 1.48047,0.26563 0.78516,1.22656 2.4336,3.64062 3.52344,5.35156 0.87891,1.48047 1.99219,2.19922 2.75781,-0.11328 0.6836,-2.06641 1.03516,-4.41016 2.04297,-7.14063 0.59375,-1.66797 1.50391,-0.85937 1.92188,-1.875 0.40625,-1.02344 -1.00391,-1.54687 -2.21094,-1.87109 -1.05469,-0.28125 -2.53906,-0.53125 -2.78516,0.38672 -0.41797,1.01562 0.86328,0.9414 0.6875,2.15234 -0.19531,1.25781 -0.55078,3.13281 -1.5625,1.60156 -1.53515,-2.28515 -2.66015,-3.86328 -3.33594,-5.03125 -0.48828,-0.82422 -0.83984,-1.20703 -2.28515,-1.59375 -1.97266,-0.53125 -2.67969,-0.008 -2.89063,0.77344 -0.10937,0.95703 1.10547,0.58984 0.95313,2.24219 -0.10156,1.41015 -0.66797,3.51953 -1.39453,5.74609 -0.4961,1.85547 -1.44141,0.61719 -1.79297,1.92578"
       id="path241" />
    <path
       style="fill:#caebe8;fill-opacity:1;fill-rule:evenodd;stroke:none"
       d="m 130.69141,233.84766 c -0.94532,-0.082 -0.51954,-0.32422 -0.15625,-1.25 0.6875,-1.58204 1.23046,-1.53516 1.89453,0.16796 0.44922,1.13282 0.4375,1.27344 -0.38672,1.20313 z m -4.31641,2.11328 c -0.82812,1.57031 -1.82031,0.53125 -1.91406,1.61718 -0.0586,0.66797 0.86719,1.01563 2.48437,1.15625 2.34766,0.20704 2.79688,-0.28515 2.84375,-0.83203 0.0586,-0.68359 -1.47656,-0.67578 -1,-1.44922 0.1836,-0.53125 0.76172,-0.48046 2.25391,-0.34765 1.49219,0.1289 2.3125,0.19922 2.26562,0.74609 0.22657,0.83203 -1.01172,0.45703 -1.08203,1.26563 -0.0937,1.07422 1.85156,1.24218 3.34375,1.37109 1.48828,0.13281 3.83594,0.33984 4.05469,-0.72266 0.23437,-1.07421 -1.03906,-0.5 -1.36328,-1.62109 l -3.03906,-7.86328 c -0.79297,-1.83984 -1.83985,-2.75781 -2.92579,-2.85547 -2.75,-0.23828 -1.84375,2.29688 -2.99609,4.15234 l -0.97266,1.82813 z m 0,0"
       id="path243" />
    <path
       style="fill:#caebe8;fill-opacity:1;fill-rule:evenodd;stroke:none"
       d="m 142.34766,235.34766 c -0.21875,1.38281 0.58203,1.07421 1.93359,0.88671 0.95312,-0.0352 2.20312,0.46875 2.60156,-0.62109 l 0.48438,-1.69141 c 0.125,-0.54687 0.24218,-1.23828 -1.69922,-0.90625 l -0.8086,0.0273 c -1.23828,-0.082 -1.50781,-0.21094 -1.89062,0.48828 z m 0,0"
       id="path245" />
    <path
       style="fill:#caebe8;fill-opacity:1;fill-rule:evenodd;stroke:none"
       d="m 155.55469,234.46875 c 1.38672,0.0664 2.44922,0.71875 1.48047,1.56641 -1.21485,1.01562 -3.45704,0.12109 -4.16407,-0.85547 -0.71484,-1.03907 -1.57422,-1.17188 -1.86718,-0.4336 -0.15625,0.61328 0.57031,2.70703 1.21484,3.28516 0.96875,0.9375 3.55078,0.66797 4.53516,0.51172 4.6289,-0.58985 5.48046,-3.88281 5.14843,-5.07813 -0.47265,-2.98828 -3.28515,-3.09765 -5.55468,-3.57422 -2.03516,-0.39062 -1.24219,-1.76171 -0.15625,-1.78906 1.61718,-0.25781 3.29687,2.26953 4.35937,1.1211 0.80859,-0.98047 -0.16797,-2.75 -1.375,-3.39844 -0.74609,-0.4336 -1.22656,0.33594 -1.93359,0.16406 -0.71485,-0.15234 -2.08203,-0.082 -2.48047,-0.0156 -2.46485,0.39062 -4.40625,2.08593 -4.07813,4.95703 0.38282,2.41797 3.44141,3.49609 4.8711,3.53906"
       id="path247" />
    <path
       style="fill:#caebe8;fill-opacity:1;fill-rule:evenodd;stroke:none"
       d="m 165.34766,233.31641 c 0.76171,2.05078 -0.94922,1.57812 -0.58985,2.75781 0.36719,0.71875 0.85156,0.4375 1.50781,0.23828 l 5.75782,-1.76172 c 0.52343,-0.15625 1.15234,-0.0742 1.85156,-0.13672 0.8125,-0.12109 1.55469,-1.89844 1.19922,-3.0625 -0.59375,-2.42578 -2.33594,-2.03906 -2.17969,-0.62109 0.18359,1.08594 -0.86328,1.97656 -1.94922,2.16406 -1.08594,0.18359 -1.36328,-0.30469 -1.52344,-0.82422 l -1.76953,-5.78906 c -0.48047,-1.56641 1.19141,-1.23047 0.69922,-2.35156 -0.3164,-1.04297 -3.08984,-0.34375 -3.91015,-0.0937 -2.22266,0.68359 -3.30469,1.73047 -2.90625,2.60547 0.41406,0.86718 1.68359,-0.51954 2.2539,1.76953 0.1211,0.39062 0.19922,0.64453 0.32031,1.04687 z m 0,0"
       id="path249" />
    <path
       style="fill:#caebe8;fill-opacity:1;fill-rule:evenodd;stroke:none"
       d="m 181.11328,227.36328 c -1.09766,-0.72656 -2.69141,-2.23437 -3.19922,-3.65234 -0.75781,-2.2461 1.19922,-2.55469 2.04297,-2.03907 1.60547,0.78516 3.26172,2.71485 3.78906,4.17188 0.38672,1.16406 -0.89062,2.66797 -2.63281,1.51953 m 2.28516,2.98047 c 3.125,-1.45703 5.21484,-5.42578 3.46484,-8.55078 -4.39453,-7.79688 -15.43359,-1.91016 -12.44531,5.49219 2.74609,5.22656 7.25781,3.86328 8.98047,3.05859"
       id="path251" />
    <path
       style="fill:#caebe8;fill-opacity:1;fill-rule:evenodd;stroke:none"
       d="m 195.35937,222.32031 c 1.0625,0.57031 2.83594,-0.004 2.44532,-2.05469 l -1.5625,-9.6289 c -0.21485,-1.50391 1.14453,-1.46485 0.79687,-2.21094 -0.21484,-0.51562 -0.82422,-0.92969 -2.7539,0.42188 -1.32813,0.93359 -2.17969,1.86718 -1.90625,2.49609 0.2539,0.83203 1.32031,-0.25781 1.61718,0.87109 l 0.53516,2.66797 c 0.25,1.3125 -0.48828,1.50391 -1.17969,0.98047 l -2.3164,-1.40625 c -0.82032,-0.4375 0.004,-1.16406 -0.3125,-1.60937 -0.47657,-1.17188 -2.92969,0.54687 -3.63282,1.03906 -1.22656,0.85937 -2.88281,2.51562 -1.96093,3.37109 0.58203,0.58594 0.89453,-0.625 2.20312,0.28906 l 2.04688,1.26563 z m 0,0"
       id="path253" />
    <path
       style="fill:#caebe8;fill-opacity:1;fill-rule:evenodd;stroke:none"
       d="m 203.61719,214.3125 c 0.55078,0.97656 -0.14063,1.24219 0.13281,1.92578 0.63672,0.68359 1.14453,0.0391 1.84375,-0.61328 l 4.41406,-4.11328 c 1.01563,-0.94922 1.89063,-1.40235 2.28906,-1.77344 0.60547,-0.56641 -1.25,-5.19141 -2.76953,-3.77344 -0.875,1.05078 1.38672,2.28907 -1.01953,4.53516 -0.70703,0.66016 -1.21875,1.6875 -2.79297,0 -0.86328,-0.92188 -1.14062,-1.41016 -0.64062,-1.875 1.09765,-1.02344 1.71875,1.03906 2.43359,0.20312 0.92188,-0.85937 -0.58594,-2.48046 -1.05469,-2.98437 -0.55468,-0.58984 -1.79687,-1.71875 -2.71484,-1.05469 -0.90625,1.04297 1.51953,1.42188 0.0195,2.62891 -0.49609,0.65625 -1.33594,-0.2461 -1.8164,-0.75781 -0.5625,-0.60547 -0.92969,-1.20313 0.25781,-2.3086 2.3164,-2.16015 2.83203,-0.21094 3.74219,-1.25 1.09375,-1.01953 -1.54688,-2.84765 -2.61329,-2.59765 -0.58203,0.17968 -0.21484,0.77734 -1.82812,2.08984 -1.49609,1.39453 -3.21875,3 -4.60938,4.29687 -0.69531,0.64844 -0.91015,1.40235 -0.35156,1.82032 0.55469,0.59375 1.08594,-0.64453 2.10938,0.27343 0.77343,0.6211 1.42968,1.1211 2.26953,2.01954 0.65625,0.5 2.16015,2.3164 2.69922,3.30859"
       id="path255" />
    <path
       style="fill:#caebe8;fill-opacity:1;fill-rule:evenodd;stroke:none"
       d="m 214.28516,206.14453 c 0.64843,0.48828 1.67968,-0.43359 2.33593,-1.30859 0.92969,-1.23047 1.53516,-2.47266 0.47657,-3.09375 -0.70704,-0.20313 -0.71094,0.47656 -1.52735,0.21484 -0.39844,-0.14453 -1.46875,-0.77344 -2.0664,-1.40625 -0.78516,-0.74609 -0.16016,-1.13281 0.80078,-1.26953 1.42968,-0.26563 4.28515,-0.89063 6.28125,-1.26172 1.69922,-0.26172 2.78515,-1.02344 0.92578,-2.60156 -1.65625,-1.40235 -3.69922,-2.60938 -5.85547,-4.56641 -1.32031,-1.17578 -0.22656,-1.71875 -1.01563,-2.48828 -0.79687,-0.75781 -1.80859,0.35547 -2.5625,1.35156 -0.65625,0.8711 -1.44531,2.15235 -0.6875,2.72657 0.78907,0.76562 1.19922,-0.44922 2.25391,0.17187 1.09375,0.64844 2.69922,1.67969 0.90234,2.04688 -2.69531,0.5664 -4.58203,1.02343 -5.91406,1.21093 -0.94922,0.14063 -1.4375,0.32032 -2.33594,1.51953 -1.23046,1.63282 -1.01171,2.48047 -0.36328,2.96875 0.84375,0.46094 0.95703,-0.80468 2.4336,-0.043 1.26953,0.625 3.01172,1.9375 4.80859,3.44531 1.53125,1.15625 0.0273,1.5664 1.10938,2.38281"
       id="path257" />
    <path
       style="fill:#caebe8;fill-opacity:1;fill-rule:evenodd;stroke:none"
       d="m 221.03906,190.46484 c 3.25781,1.79297 1.42969,2.44141 2.5586,2.95703 0.34375,0.20704 1.00781,0.13282 2.2539,-1.66406 0.71485,-1.1914 2.13672,-3.83203 1.21485,-4.38672 -0.74219,-0.60937 -0.99219,0.35157 -1.91016,0.27344 -0.61328,-0.0391 -1.30859,-0.45703 -2.85938,-1.39062 l -2.5664,-1.54297 c -2.17578,-1.47266 -0.70703,-2.33594 -1.71485,-2.77735 -0.64062,-0.23828 -1.5625,0.48047 -2.55078,2.125 -0.99609,1.65625 -1.82422,3.85157 -0.94531,4.23828 0.69531,0.41797 1.10156,-0.77734 2.21875,-0.26953 0.35938,0.21485 1.38672,0.6875 2.42969,1.31641 z m 0,0"
       id="path259" />
    <path
       style="fill:#caebe8;fill-opacity:1;fill-rule:evenodd;stroke:none"
       d="m 228.14844,182.46094 c -0.47657,1.01953 -0.98438,0.19531 -1.48047,-0.0352 -1.80469,-0.70312 -2.85547,1.21484 -2.65235,2.35938 0.25391,0.85937 1.44532,2.15234 3.42579,1.44531 1.99218,-0.72656 4.16015,-4.41406 3.42578,-7.01172 -0.25391,-1.04688 -0.64453,-1.83203 -2.36719,-2.63672 -0.53906,-0.25 -3.5625,-1.8125 -4.45313,-2.23047 -1.35546,-0.63281 -0.28906,-1.6289 -1.15234,-2.03515 -1.48047,-0.69141 -4.75781,5.66796 -3.02344,6.78515 1.05078,0.33203 1.07422,-1.33984 2.31641,-0.76172 0.89453,0.41407 2.30859,0.92188 4.03125,1.72657 1.33203,0.46484 2.44531,1.29296 1.92969,2.39453"
       id="path261" />
    <path
       style="fill:#caebe8;fill-opacity:1;fill-rule:evenodd;stroke:none"
       d="m 230.39844,168.65234 c -0.2461,0.92188 -0.41407,0.45703 -1.26172,-0.0625 -1.44141,-0.95312 -1.30078,-1.47656 0.49219,-1.83593 1.19921,-0.2461 1.33203,-0.21094 1.12109,0.58593 z m 1.32812,4.6211 c 1.40235,1.08593 0.20703,1.8789 1.26172,2.16015 0.64844,0.17578 1.14844,-0.67578 1.57031,-2.24218 0.60938,-2.27344 0.19922,-2.80469 -0.32422,-2.94532 -0.66406,-0.17578 -0.92578,1.33594 -1.60546,0.73438 -0.48829,-0.27735 -0.33985,-0.83594 0.0469,-2.28125 0.39063,-1.44531 0.60156,-2.2461 1.12891,-2.10547 0.86328,-0.0742 0.27734,1.07812 1.0625,1.28906 1.03906,0.27735 1.54687,-1.60547 1.92968,-3.05469 0.39063,-1.44531 1,-3.71875 -0.008,-4.11718 -1.01953,-0.42188 -0.67187,0.92968 -1.83594,1.05468 l -8.26953,1.62891 c -1.94531,0.46484 -3.03515,1.33594 -3.3164,2.39063 -0.71485,2.66406 1.9375,2.21484 3.5664,3.66796 l 1.63282,1.27735 z m 0,0"
       id="path263" />
    <path
       style="fill:#eb212e;fill-opacity:1;fill-rule:evenodd;stroke:none"
       d="m 146.69531,170.03516 c 5.46094,0.0859 9.75781,2.33984 16.78516,-1.4336 10.75,-5.76562 20.73828,-21.34375 22.10547,-37.52734 1.28906,-15.29297 -9.15235,-32.757814 -19.67578,-36.894532 -18.46094,-7.257813 -24.65625,-26.328126 -24.65625,-26.328126 -6.65235,11.785157 -13.46485,20.222657 -23.28907,24.050782 -13.17968,5.132812 -23.292965,18.917966 -24.203121,35.707036 -1.246094,22.99609 16.078121,37.0664 21.925781,39.93359 6.19531,3.03515 13.60547,1.66797 16.78906,2.27344 z m 0,0"
       id="path265" />
    <path
       style="fill:#ffffff;fill-opacity:1;fill-rule:evenodd;stroke:none"
       d="m 132.47656,169.65625 c 0.008,-0.98438 0.0586,-0.33984 0.0586,-0.9375 0,-0.62891 0.0508,-8.67578 0.004,-9.79688 -0.043,-1.12109 -0.26562,-1.79296 -1.43359,-2.78125 -1.16406,-0.98437 -4.41797,-6.21093 -5.67578,-9.39453 -1.25391,-3.1875 -2.91406,-4.28515 -4.125,-6.16797 -1.21094,-1.88281 -2.89063,-4.0625 -3.29688,-5 -1.0039,-2.34375 -2.79687,-5.11718 -3.09375,-6.23437 -0.67187,-2.53516 1.48047,-2.04297 3.13672,-1.19141 1.66016,0.85157 5.31641,6.39453 5.31641,6.39453 0,0 1.03125,1.83594 2.24219,2.28516 1.90625,0.70703 3.79296,2.04297 4.77734,2.66797 0.98828,0.62891 1.07812,1.25781 2.96094,0.13672 1.88281,-1.1211 5.44921,-4.59766 6.70703,-6.25781 1.2539,-1.66016 2.0625,-3.90235 2.73437,-4.50782 0.67188,-0.60937 2.66797,-2.87109 2.9375,-3.45312 0.26953,-0.58203 0.40235,-0.98828 1.52344,-2.15234 1.125,-1.16797 2.01953,-2.75782 2.19922,-3.79297 0.17969,-1.03125 0.3125,-1.75 0.80859,-2.73438 0.49219,-0.98437 3.04688,-5.13672 3.96875,-5.89844 0.92188,-0.76171 2.33203,-0.3125 2.28516,0.53907 -0.043,0.85156 -0.9375,3.52343 -1.52344,4.86718 -0.58203,1.34375 -0.26953,2.55469 -0.49219,4.08204 -0.22265,1.52343 -2.04297,4.55078 -2.80468,5.44921 -0.76172,0.89454 -1.52344,1.92579 -1.7461,3.09375 -0.22656,1.16407 0,2.21875 -0.44922,3.69922 -0.44922,1.48047 -0.49609,2.37891 -0.22656,3.63281 0.26953,1.25782 1.12109,0.3125 0.98828,-0.3125 -0.13672,-0.6289 0.22266,-0.98828 0.94141,-1.97265 0.71875,-0.98828 3.07422,-3.36719 3.69922,-4.26172 0.6289,-0.89844 2.33203,-2.26562 3.67968,-4.46094 1.34375,-2.19922 1.88282,-2.24218 2.95704,-3.14062 1.07812,-0.89844 1.01171,-1.03125 1.14453,-2.44531 0.13672,-1.41407 1.97656,-3.00782 3.90234,-4.125 1.92969,-1.1211 1.16797,1.34375 0.80859,2.51171 -0.35937,1.16407 -1.97265,4.64063 -2.82421,6.34375 -0.85547,1.70704 -1.83985,3.41016 -2.69141,5.58594 -0.85156,2.17578 -1.95313,4.57422 -3.03125,5.875 -1.07422,1.30078 -0.67188,0.98828 -1.16406,2.35547 -0.49219,1.37109 0.17968,1.66016 1.16406,0.89453 0.98828,-0.75781 1.07812,-1.38672 1.75,-2.89062 0.67187,-1.50391 1.59375,-4.21485 2.49219,-5.78516 0.89843,-1.57031 1.70312,-2.84766 2.19531,-4.32812 0.49609,-1.48047 0.98828,-2.96094 2.19922,-4.21485 1.21094,-1.25781 2.24219,0.17578 2.0625,1.34375 -0.17969,1.16406 -0.76172,2.69141 -1.57031,3.94531 -0.80469,1.25782 -1.88282,3.11719 -2.42188,5.17969 -0.53906,2.06641 -4.23828,7.60547 -4.82031,8.76953 -0.58203,1.16797 0.44531,0.98438 0.89453,0.58594 0.44922,-0.40625 3.52344,-5.00391 4.15234,-5.72266 0.625,-0.71875 0.76172,0.97266 0.49219,1.73047 -0.49219,1.38672 -3.72266,6.45703 -4.55469,8.36328 -0.83203,1.90625 -2.75781,2.75 -4.42578,3.35547 -1.67187,0.60938 -1.67187,1.51953 -3.49219,3.79297 -1.82421,2.28125 -6.34765,5.58984 -6.34765,5.58984 l -0.75391,11.26954 z m 0,0"
       id="path267" />
    <path
       style="fill:#eb212e;fill-opacity:1;fill-rule:evenodd;stroke:none"
       d="m 52.480469,112.32422 c 1.8125,0.58984 1.085937,2.37109 0.699219,2.24609 L 50.730469,113.625 c -0.90625,-0.29297 -0.222657,-1.94141 1.75,-1.30078 m 4.910156,9.22266 c 1.117187,0.49218 2.046875,-1.91016 2.34375,-2.81641 0.261719,-0.81641 0.933594,-2.87891 -0.04687,-3.34375 -0.863281,-0.42578 -1.109375,0.78906 -1.894531,0.53516 -1.082031,-0.20704 -2.574219,-0.5586 -2.40625,-1.07813 0.246093,-1.625 2.738281,-0.81641 4.027343,-0.83984 1.472657,-0.0937 2.328126,-1 2.828126,-2.54297 0.984374,-3.02735 -0.945313,-3.65235 -1.460938,-2.52735 -0.355469,0.64063 -1.484375,0.125 -2.628906,0.17969 -1.855469,-0.15625 -2.011719,1.64453 -2.621094,1.30078 -0.386719,-0.1289 -0.363281,-1.97265 -1.949219,-2.48828 -3.5,-1.13672 -4.773437,2.77735 -5.476562,5.84766 -0.347657,1.07031 -2.050781,4.08984 -0.53125,4.71484 0.996093,0.47266 0.683593,-1.1875 2.628906,-0.55859 l 5.367187,1.74609 c 1.941407,0.62891 0.953126,1.45703 1.820313,1.8711"
       id="path269" />
    <path
       style="fill:#eb212e;fill-opacity:1;fill-rule:evenodd;stroke:none"
       d="m 62.589844,101.61328 c -1.3125,0.0781 -3.496094,-0.16406 -4.753906,-0.99219 -1.957032,-1.33984 -0.582032,-2.765621 0.40625,-2.859371 1.753906,-0.339844 4.238281,0.203125 5.535156,1.054687 1.007812,0.691406 0.894531,2.667974 -1.1875,2.796874 m 3.617187,1.00391 c 1.617188,-3.042971 0.902344,-7.472659 -2.378906,-8.914065 -8.199219,-3.585937 -13.472656,7.761715 -6.632813,11.878905 5.335938,2.51563 8.121094,-1.28515 9.011719,-2.96484"
       id="path271" />
    <path
       style="fill:#eb212e;fill-opacity:1;fill-rule:evenodd;stroke:none"
       d="m 67.753906,93.746094 c 0.585938,0.59375 0.226563,1.515625 0.773438,1.929687 0.859375,0.644531 2.089844,-0.988281 2.664062,-1.746093 0.671875,-0.894532 2.035156,-2.9375 1.289063,-3.5 -0.761719,-0.574219 -1.53125,0.214843 -2.078125,-0.199219 -0.734375,-0.375 -1.347656,-1.191407 -0.289063,-1.40625 2.183594,-0.40625 4.507813,0.113281 5.089844,-0.660157 l 2.148437,-2.855468 c 0.402344,-0.535156 0.296876,-1.296875 -0.316406,-1.601563 -0.632812,-0.300781 -0.734375,0.304688 -2.179687,0.40625 l -6.027344,0.457031 c -1.265625,0.101563 -1.160156,-1.90625 -1.304687,-2.855468 -0.125,-0.953125 1.726562,-1.824219 0.53125,-2.726563 -0.761719,-0.574219 -1.832032,0.378907 -2.730469,1.574219 -0.902344,1.199219 -1.597657,2.585938 -0.921875,3.273438 0.535156,0.402343 1.058594,-0.0625 1.324218,1.171874 0.585938,1.789063 0.605469,2.664063 -0.753906,1.464844 -1.34375,-1.171875 -0.300781,-1.417968 -1.058594,-1.992187 -0.984374,-0.738281 -2.214843,0.890625 -2.730468,1.578125 -0.574219,0.757812 -1.933594,2.796875 -0.949219,3.539062 0.859375,0.648438 0.542969,-0.957031 3.359375,1.011719 1.503906,0.957031 2.949219,2.046875 2.949219,2.046875 0.535156,0.402344 0.761719,0.570312 1.210937,1.089844"
       id="path273" />
    <path
       style="fill:#eb212e;fill-opacity:1;fill-rule:evenodd;stroke:none"
       d="m 80.40625,77.648438 c -1.269531,-0.351563 -3.257812,-1.292969 -4.175781,-2.484376 -1.414063,-1.902343 0.351562,-2.800781 1.316406,-2.570312 1.765625,0.25 3.9375,1.574219 4.890625,2.796875 0.726562,0.988281 -0.01953,2.816406 -2.03125,2.257813 M 83.5,79.777344 c 2.519531,-2.351563 3.28125,-6.773438 0.648438,-9.203125 -6.585938,-6.058594 -15.265626,2.953125 -10.136719,9.070312 4.226562,4.121094 8.09375,1.429688 9.488281,0.132813"
       id="path275" />
    <path
       style="fill:#eb212e;fill-opacity:1;fill-rule:evenodd;stroke:none"
       d="m 88.09375,72.671875 c 0.257812,0.652344 -0.574219,0.859375 -0.308594,1.503906 0.257813,0.652344 1.152344,0.535157 2.40625,-0.277343 1.257813,-0.816407 2.050782,-1.652344 1.609375,-2.332032 -0.371093,-0.574218 -1.058593,0.203125 -1.679687,-0.527344 -0.492188,-0.5 -0.863282,-1.074218 -1.230469,-1.636718 -0.6875,-1.058594 -0.644531,-1.738282 0.503906,-1.03125 0.816407,0.488281 1.855469,1.117187 3.25,1.996094 1.382813,0.871093 1.769531,0.46875 1.488281,-0.964844 l -0.480468,-3.292969 c -0.121094,-1.707031 0.4375,-1.589844 1.226562,-0.113281 l 0.367188,0.5625 c 1.113281,1.714844 -0.0078,1.476562 0.351562,2.546875 0.585938,0.902343 2.417969,-0.289063 3.214844,-0.808594 2.31641,-1.5 2.32813,-1.976563 2.14453,-2.507813 -0.21484,-0.847656 -1.36328,-0.09766 -2.101561,-1.238281 -1.210938,-1.371093 -2.351563,-3.386719 -3.449219,-5.3125 -0.816406,-1.253906 0.4375,-1.585937 -0.277344,-2.421875 -0.636718,-0.722656 -2.425781,0.273438 -2.910156,0.585938 -0.914062,0.59375 -1.375,1.375 -1.304688,2.484375 0.06641,0.589843 0.394532,2.871093 0.492188,3.769531 0.113281,1.230469 -0.496094,1.292969 -1.539062,0.6875 l -3.359376,-1.929688 c -0.78125,-0.460937 -1.769531,-0.152343 -2.449218,0.289063 -0.957032,0.789063 -2.734375,1.777344 -1.871094,2.851563 0.914062,0.6875 1.464844,-0.46875 2.738281,1.496093 l 0.746094,1.148438 c 0.996094,1.789062 2.125,3.53125 2.421875,4.472656"
       id="path277" />
    <path
       style="fill:#eb212e;fill-opacity:1;fill-rule:evenodd;stroke:none"
       d="m 101.95703,63.527344 c 0.19922,1.105468 -0.53906,1.128906 -0.5039,1.863281 0.3789,0.855469 1.07031,0.410156 1.9414,0.02344 l 5.51172,-2.457031 c 1.26953,-0.5625 2.24609,-0.707031 2.74609,-0.929687 0.75391,-0.335938 0.5,-5.3125 -1.39062,-4.46875 -1.17188,0.707031 0.56641,2.613281 -2.44141,3.953125 -0.88281,0.394531 -1.70312,1.203125 -2.64062,-0.90625 -0.51563,-1.152344 -0.6211,-1.703125 0.004,-1.984375 1.3711,-0.609375 1.28516,1.546875 2.23438,0.988281 1.15234,-0.515625 0.25391,-2.535156 -0.0273,-3.164063 -0.33204,-0.742187 -1.13672,-2.210937 -2.21875,-1.878906 -1.19922,0.683594 0.97265,1.835938 -0.83985,2.488282 -0.68359,0.457031 -1.1875,-0.667969 -1.47265,-1.308594 -0.33594,-0.753906 -0.48438,-1.441406 0.99609,-2.097656 2.89453,-1.289063 2.74609,0.722656 3.94531,0.03516 1.36719,-0.609375 -0.53515,-3.195313 -1.625,-3.304688 -0.60937,-0.01953 -0.45703,0.664063 -2.41015,1.378906 -1.86719,0.832032 -4.01563,1.789063 -5.757818,2.5625 -0.867187,0.386719 -1.316406,1.03125 -0.921874,1.605469 0.328124,0.742188 1.230468,-0.257812 1.90625,0.945313 0.527343,0.839844 0.984374,1.527344 1.484372,2.652344 0.46094,0.683593 1.28907,2.890624 1.48047,4.003906"
       id="path279" />
    <path
       style="fill:#eb212e;fill-opacity:1;fill-rule:evenodd;stroke:none"
       d="m 118.99609,50.335938 c -0.28125,-1.058594 0.66797,-1.3125 1.51563,-0.261719 0.42187,0.484375 1.3125,1.230469 2.36328,0.382812 1.19922,-0.886719 -0.46094,-3.28125 -1.59375,-3.835937 -1.30078,-0.636719 -1.25781,0.0625 -2.30078,0.34375 l -5.72266,1.53125 c -1.1914,0.320312 -1.13281,-0.550782 -2.14062,0.992187 -0.98047,1.523438 -0.4336,4.109375 0.80859,4.046875 1.25,-0.04297 1.375,-1.675781 1.57813,-2.003906 0.35156,-0.804688 0.96093,-1.113281 1.24609,-0.05859 0.46094,1.183594 0.99609,3.722656 1.34375,5.503906 0.39453,2.007813 -1.19922,1.304688 -1.01953,2.515626 0.21484,1.347656 3.01953,0.597656 4.19141,0.28125 2.66796,-0.714844 3.62109,-1.375 3.37109,-2.308594 -0.31641,-1.175782 -1.67969,0.175781 -2.17188,-1.660156 l -0.67968,-2.53125 z m 0,0"
       id="path281" />
    <path
       style="fill:#eb212e;fill-opacity:1;fill-rule:evenodd;stroke:none"
       d="m 125.71484,56.949219 c 0.10157,0.804687 1.48047,0.902343 2.5625,0.769531 1.53125,-0.1875 2.84766,-0.617188 2.5586,-1.804688 -0.34766,-0.652343 -0.83985,-0.183593 -1.21485,-0.953124 -0.17578,-0.386719 -0.46484,-1.59375 -0.42968,-2.460938 -0.004,-1.082031 0.70703,-0.90625 1.47265,-0.304688 1.1875,0.84375 3.61719,2.460938 5.27344,3.640626 1.36719,1.042968 2.67187,1.292968 2.51172,-1.140626 -0.13672,-2.167968 -0.6875,-4.472656 -0.78125,-7.386718 -0.0742,-1.765625 1.07812,-1.355469 1.08203,-2.457032 -0.008,-1.097656 -1.51172,-1.054687 -2.75,-0.90625 -1.08594,0.136719 -2.55469,0.457032 -2.4375,1.398438 -0.004,1.105469 1.15234,0.550781 1.4375,1.742188 0.29687,1.238281 0.66797,3.109374 -0.84375,2.070312 -2.28125,-1.542969 -3.91797,-2.585938 -4.97656,-3.414062 -0.76172,-0.582032 -1.23047,-0.808594 -2.71875,-0.625 -2.02735,0.25 -2.48438,1 -2.38672,1.804687 0.25391,0.925781 1.24219,0.128906 1.71875,1.71875 0.43359,1.347656 0.69922,3.515625 0.86328,5.851563 0.23438,1.902343 -1.10937,1.109374 -0.94141,2.457031"
       id="path283" />
    <path
       style="fill:#eb212e;fill-opacity:1;fill-rule:evenodd;stroke:none"
       d="m 146.75,53.289062 c -0.60547,-1.167968 -1.26953,-3.265624 -1.02734,-4.746093 0.42968,-2.332031 2.28906,-1.65625 2.77734,-0.792969 1.02344,1.464844 1.53516,3.957031 1.28906,5.484375 -0.22656,1.203125 -2.07031,1.90625 -3.03906,0.05469 m 0.55469,3.714844 c 3.4375,0.238282 7.1914,-2.21875 7.17578,-5.800781 -0.0625,-8.949219 -12.57422,-9.152344 -13.54688,-1.230469 -0.13281,5.902344 4.47266,6.898438 6.3711,7.03125"
       id="path285" />
    <path
       style="fill:#eb212e;fill-opacity:1;fill-rule:evenodd;stroke:none"
       d="m 173.49609,59.300781 c -1.3125,1.277344 -3.52343,0.519531 -3.08593,-0.765625 l 2.24218,-6.503906 c 0.48828,-1.417969 2.69922,-0.226562 2.77735,1.664062 0.0156,1.195313 -0.0742,1.886719 -0.33594,2.65625 -0.31641,0.914063 -0.99219,2.449219 -1.59766,2.949219 m -7.28125,-2.078125 c -0.40234,1.164063 -1.55468,0.339844 -1.86328,1.238282 -0.17969,0.515624 0.16406,1.195312 1.24219,1.417968 2.00391,0.558594 2.47656,0.855469 5.30859,1.828125 2.23047,0.769531 6.72657,1.605469 8.55078,-3.707031 1.65235,-4.792969 -1.11718,-6.898438 -4.19921,-7.960938 -1.19532,-0.414062 -2.40625,-0.679687 -4.97266,-1.710937 -0.51563,-0.179687 -2.05078,-0.707031 -2.28906,0.367187 -0.0859,0.679688 1.16797,0.828126 0.63281,1.949219 -0.17578,0.515625 -0.54297,1.578125 -0.54297,1.578125 z m 0,0"
       id="path287" />
    <path
       style="fill:#eb212e;fill-opacity:1;fill-rule:evenodd;stroke:none"
       d="m 188.07812,60.105469 c -0.92578,1.664062 -2.53515,0.609375 -2.33593,0.257812 l 1.39453,-2.226562 c 0.46094,-0.832031 1.94922,0.15625 0.9414,1.96875 m -9.98828,3.058593 c -0.69922,1.003907 1.48047,2.375 2.3125,2.835938 0.75,0.417969 2.64844,1.46875 3.29297,0.59375 0.58203,-0.761719 -0.5625,-1.238281 -0.16015,-1.960938 0.40625,-1.023437 1.03906,-2.421874 1.51562,-2.15625 1.54688,0.554688 0.27734,2.847657 0.0547,4.113282 -0.1875,1.464844 0.53906,2.476562 1.95703,3.261718 2.78125,1.542969 3.76562,-0.230468 2.75391,-0.949218 -0.5586,-0.472656 0.16406,-1.484375 0.32812,-2.621094 0.51172,-1.785156 -1.22656,-2.285156 -0.76953,-2.820312 0.19141,-0.351563 2,0.02734 2.80859,-1.433594 1.78516,-3.222656 -1.8164,-5.21875 -4.69531,-6.492188 -0.98047,-0.542968 -3.625,-2.792968 -4.52344,-1.421875 C 182.30859,55 184,55.007812 183.00781,56.796875 l -2.73828,4.941406 c -0.98828,1.785157 -1.61328,0.65625 -2.17969,1.425781"
       id="path289" />
    <path
       style="fill:#eb212e;fill-opacity:1;fill-rule:evenodd;stroke:none"
       d="m 193.12891,68.082031 c -2.41797,2.980469 0.28515,6.214844 1.875,7.5 2.03515,1.648438 5.3789,2.972657 7.89062,-0.128906 l 3.10156,-3.832031 c 0.6875,-0.851563 1.5586,0.03516 2.10157,-0.410156 0.78125,-0.769532 -0.83204,-2.074219 -1.46094,-2.585938 -1.38281,-1.117188 -2.375,-1.402344 -2.71875,-0.980469 -0.70703,0.652344 0.8164,1.371094 -0.0469,2.4375 l -3.09765,3.828125 c -1.82813,2.257813 -6.21875,-0.597656 -3.45313,-4.015625 l 2.50391,-3.09375 c 0.60937,-0.75 1.39062,0.242188 1.99609,-0.308593 0.82813,-0.574219 -0.082,-1.832032 -1.80078,-3.226563 -0.95703,-0.777344 -3.25391,-2.453125 -3.58594,-0.976563 -0.13672,0.59375 0.40625,1.210938 -0.10937,1.839844 l -2.33594,2.886719 z m 0,0"
       id="path291" />
    <path
       style="fill:#eb212e;fill-opacity:1;fill-rule:evenodd;stroke:none"
       d="m 215.75,73.390625 c -0.58594,-0.628906 -0.49219,-2.933594 -1.76563,-2.875 -0.67187,0.07422 -0.82812,1.898437 -0.1289,4.042969 0.19531,0.417968 0.29297,0.519531 0.87109,0.726562 2.46094,0.859375 3.62891,0.710938 3.75781,-0.15625 0.13282,-1.0625 -2.17968,-1.144531 -2.73437,-1.738281 m -9.00781,7.3125 c 0.72265,1.183594 0.77734,2.433594 -0.46875,2.101563 -1.51953,-0.4375 -2.03516,-2.796876 -1.6211,-3.929688 0.46094,-1.175781 0.0937,-1.964844 -0.68359,-1.792969 -0.59375,0.210938 -1.92578,1.988281 -2.04297,2.84375 -0.23437,1.328125 1.42969,3.316407 2.10938,4.046875 3.07812,3.507813 6.28515,2.371094 7.08984,1.429688 2.21484,-2.066406 0.73047,-4.457032 -0.14453,-6.605469 -0.81641,-1.902344 0.76562,-2.015625 1.39844,-1.132813 1.11718,1.199219 -0.0391,4.003907 1.50781,4.246094 1.26172,0.125 2.1875,-1.675781 2.04687,-3.039062 -0.0547,-0.863282 -0.96093,-0.828125 -1.21484,-1.511719 -0.27344,-0.679687 -1.09766,-1.769531 -1.37109,-2.066406 -1.70313,-1.824219 -4.19922,-2.488281 -6.39454,-0.609375 -1.79296,1.671875 -0.97265,4.808594 -0.21093,6.019531"
       id="path293" />
    <path
       style="fill:#eb212e;fill-opacity:1;fill-rule:evenodd;stroke:none"
       d="m 220.76562,90.40625 c 0.89454,-0.625 1.45704,0.179688 0.76172,1.335938 -0.3125,0.558593 -0.70703,1.652343 0.44532,2.351562 1.24609,0.824219 2.93359,-1.554688 3.0625,-2.808594 0.15234,-1.441406 -0.48829,-1.164062 -1.10547,-2.042968 l -3.40235,-4.855469 c -0.70703,-1.011719 0.13282,-1.253907 -1.66406,-1.671875 -1.76562,-0.402344 -4.00391,0.996094 -3.52734,2.144531 0.46875,1.15625 2.04687,0.71875 2.42578,0.796875 0.875,0.05469 1.375,0.523438 0.48047,1.148438 -0.95703,0.839843 -3.15625,2.207031 -4.70703,3.144531 -1.75782,1.058593 -1.64063,-0.679688 -2.71875,-0.09766 -1.19141,0.664063 0.47265,3.039063 1.17187,4.035157 1.58203,2.265625 2.52734,2.933593 3.32031,2.378906 0.9961,-0.695313 -0.73828,-1.519531 0.81641,-2.609375 l 2.14844,-1.503906 z m 0,0"
       id="path295" />
    <path
       style="fill:#eb212e;fill-opacity:1;fill-rule:evenodd;stroke:none"
       d="m 218.97266,103.73828 c -0.7461,0.94922 -0.48829,2.78906 1.59765,2.76563 l 9.75391,0.13281 c 1.51953,0.0469 1.24609,1.37891 2.03906,1.16406 0.55078,-0.11719 1.05859,-0.64844 0.0625,-2.78125 -0.68359,-1.47265 -1.46094,-2.46875 -2.12891,-2.3125 -0.85937,0.10938 0.0273,1.34766 -1.13281,1.44141 l -2.72265,0.0664 c -1.33204,0.0156 -1.39844,-0.74609 -0.76172,-1.33593 l 1.78515,-2.03907 c 0.57422,-0.72656 1.14844,0.20704 1.64453,-0.0234 1.23438,-0.26563 -0.0312,-2.980472 -0.39453,-3.757816 -0.63281,-1.355469 -1.97656,-3.277344 -2.98047,-2.515625 -0.67578,0.46875 0.46094,0.988281 -0.66406,2.117187 l -1.60547,1.796875 z m 0,0"
       id="path297" />
    <path
       style="fill:#eb212e;fill-opacity:1;fill-rule:evenodd;stroke:none"
       d="m 226.90234,117.08594 c 0.90625,-0.95313 2.67188,-2.26563 4.15625,-2.51563 2.33985,-0.35547 2.3086,1.625 1.65235,2.36719 -1.05078,1.44531 -3.24219,2.74219 -4.76953,3.00391 -1.21094,0.17968 -2.47266,-1.33985 -1.03907,-2.85547 m -3.32812,1.73437 c 0.89062,3.32813 4.4375,6.07813 7.8164,4.89844 8.44141,-2.97656 4.5625,-14.87109 -3.24609,-13.21484 -5.625,1.80078 -5.0625,6.47656 -4.57031,8.3164"
       id="path299" />
    <path
       style="fill:#eb212e;fill-opacity:1;fill-rule:evenodd;stroke:none"
       d="m 95.054688,188.38672 c 1.628906,0.33594 2.773437,1.30859 1.460937,2.13281 -1.628906,0.97266 -4.113281,-0.50391 -4.769531,-1.79687 -0.65625,-1.36329 -1.648438,-1.6836 -2.132813,-0.85938 -0.300781,0.69141 0.167969,3.3125 0.824219,4.11719 0.972656,1.28906 4.078125,1.45703 5.273438,1.45703 5.593752,0.16797 7.222652,-3.57422 7.054692,-5.05078 0,-3.62891 -3.312505,-4.28516 -5.910161,-5.27735 -2.339844,-0.83984 -1.144531,-2.32031 0.148437,-2.15234 1.960938,0 3.480474,3.3125 4.957034,2.15234 1.14062,-1.00781 0.32031,-3.29296 -0.99219,-4.28515 -0.80469,-0.65625 -1.515625,0.16797 -2.320312,-0.16797 -0.820313,-0.31641 -2.449219,-0.48828 -2.9375,-0.48828 -2.992188,0 -5.613282,1.64844 -5.761719,5.10937 0,2.9375 3.421875,4.79297 5.105469,5.10938"
       id="path301" />
    <path
       style="fill:#eb212e;fill-opacity:1;fill-rule:evenodd;stroke:none"
       d="m 105.55859,189.35937 c 0.14844,2.61719 -1.64453,1.47657 -1.64453,2.95704 0.16797,0.95312 0.82422,0.80468 1.64453,0.80468 h 7.22266 c 0.65625,0 1.34766,0.31641 2.17188,0.48438 0.97265,0.14844 2.44921,-1.62891 2.44921,-3.08594 0.16797,-2.99219 -1.96484,-3.16016 -2.28125,-1.47656 -0.16796,1.30859 -1.68359,1.96094 -2.99609,1.79297 -1.30859,-0.16797 -1.45703,-0.82422 -1.45703,-1.47657 v -7.26171 c 0,-1.96485 1.79297,-0.98829 1.625,-2.44922 0,-1.3086 -3.42188,-1.47657 -4.45313,-1.47657 -2.78515,0 -4.39453,0.82422 -4.24609,1.96094 0.16797,1.14453 2.11328,0 1.96484,2.82813 z m 0,0"
       id="path303" />
    <path
       style="fill:#eb212e;fill-opacity:1;fill-rule:evenodd;stroke:none"
       d="m 124.49219,189.04297 c -0.82031,-1.35156 -1.79688,-3.80078 -1.62891,-5.59766 0.32031,-2.82422 2.60156,-2.16797 3.25781,-1.17578 1.34766,1.66406 2.17188,4.60156 2.00391,6.45313 -0.16797,1.46093 -2.32031,2.45312 -3.63281,0.32031 m 0.97265,4.39453 c 4.13672,0 8.42188,-3.25391 8.10157,-7.53906 -0.82032,-10.70313 -15.8086,-9.89844 -16.3125,-0.33594 0.33593,7.07031 5.92968,7.875 8.21093,7.875"
       id="path305" />
    <path
       style="fill:#eb212e;fill-opacity:1;fill-rule:evenodd;stroke:none"
       d="m 140.36719,192.14844 c 0.65234,1.28906 2.78515,1.94531 3.8164,-0.33594 l 5.08594,-10.53516 c 0.82422,-1.6289 2.13672,-0.65625 2.30469,-1.6289 0.14844,-0.65235 -0.16797,-1.48047 -2.99219,-1.48047 -1.94922,0 -3.42578,0.33984 -3.59375,1.14453 -0.31641,0.99219 1.47656,0.65234 0.99219,1.96484 l -1.3086,2.99219 c -0.65625,1.46094 -1.51953,1.14063 -1.83593,0.14844 l -1.3086,-2.97266 c -0.50781,-0.99219 0.80469,-1.14062 0.80469,-1.79687 0.33594,-1.48047 -3.25781,-1.48047 -4.28516,-1.48047 -1.79687,0 -4.5664,0.48828 -4.24609,1.96484 0.16797,0.97656 1.30859,0 1.96094,1.79688 l 1.14062,2.65625 z m 0,0"
       id="path307" />
    <path
       style="fill:#eb212e;fill-opacity:1;fill-rule:evenodd;stroke:none"
       d="m 157.60156,187.20703 c -1.14062,0 -0.65234,-0.33594 -0.3164,-1.47656 0.65625,-1.96485 1.30859,-1.96485 2.28125,0 0.65625,1.30859 0.65625,1.47656 -0.33594,1.47656 z m -4.9375,2.97656 c -0.82422,1.96094 -2.11719,0.82422 -2.11719,2.12891 0,0.80859 1.14454,1.125 3.08985,1.125 2.82422,0 3.3125,-0.63672 3.3125,-1.29297 0,-0.82031 -1.83594,-0.65234 -1.34766,-1.625 0.16797,-0.65625 0.85938,-0.65625 2.65625,-0.65625 1.79688,0 2.78516,0 2.78516,0.65625 0.35937,0.97266 -1.16016,0.65625 -1.16016,1.625 0,1.29297 2.33985,1.29297 4.13672,1.29297 1.79688,0 4.62109,0 4.76953,-1.29297 0.16797,-1.30859 -1.28906,-0.48437 -1.79297,-1.79297 l -4.45312,-9.07422 c -1.14063,-2.11328 -2.48828,-3.10547 -3.79688,-3.10547 -3.3125,0 -1.96484,2.9336 -3.14453,5.27344 l -0.97265,2.28516 z m 0,0"
       id="path309" />
    <path
       style="fill:#eb212e;fill-opacity:1;fill-rule:evenodd;stroke:none"
       d="m 169.15234,192.14844 c 0,0.97265 1.62891,1.28906 2.9375,1.28906 1.85157,0 3.48047,-0.31641 3.3125,-1.77734 -0.32031,-0.82422 -0.97656,-0.33594 -1.3125,-1.3086 -0.14843,-0.48828 -0.3164,-1.96484 -0.14843,-2.99219 0.14843,-1.29296 0.97265,-0.97656 1.79687,-0.15234 1.29297,1.17969 3.94531,3.46094 5.74219,5.10938 1.48047,1.4375 2.99609,1.92578 3.16406,-0.99219 0.14844,-2.60156 -0.16797,-5.42578 0.14844,-8.90625 0.16797,-2.11328 1.47656,-1.46094 1.64453,-2.76953 0.15234,-1.3086 -1.64453,-1.48047 -3.14063,-1.48047 -1.30859,0 -3.10546,0.17187 -3.10546,1.3125 -0.16797,1.30859 1.28906,0.82422 1.45703,2.28125 0.16797,1.51562 0.33984,3.80078 -1.3086,2.33984 -2.48828,-2.17187 -4.28515,-3.64844 -5.42578,-4.78906 -0.82422,-0.80469 -1.34765,-1.14453 -3.14453,-1.14453 -2.44922,0 -3.10156,0.82812 -3.10156,1.79687 0.16797,1.14453 1.45703,0.33985 1.79297,2.30469 0.32031,1.66406 0.32031,4.28125 0.16797,7.08984 0,2.30079 -1.47657,1.16016 -1.47657,2.78907"
       id="path311" />
    <path
       style="fill:#eb212e;fill-opacity:1;fill-rule:evenodd;stroke:none"
       d="m 49.347656,162.22656 c -2.074218,0.6875 -1.542968,-1.00781 -2.734375,-0.6875 -0.734375,0.33985 -0.46875,0.83594 -0.292969,1.5 l 1.558594,5.81641 c 0.140625,0.52734 0.03516,1.15234 0.07813,1.85156 0.08984,0.81641 1.835938,1.625 3.015625,1.30859 2.445313,-0.51171 2.121094,-2.26562 0.695313,-2.15625 -1.089844,0.14454 -1.945313,-0.93359 -2.089844,-2.02343 -0.148437,-1.08985 0.34375,-1.35547 0.875,-1.4961 l 5.84375,-1.5664 c 1.582031,-0.42188 1.1875,1.23047 2.324219,0.78125 1.054687,-0.28125 0.453125,-3.07422 0.230468,-3.90235 -0.601562,-2.24609 -1.609374,-3.36328 -2.496093,-2.99609 -0.886719,0.38281 0.457031,1.70312 -1.851563,2.19141 -0.390625,0.10546 -0.648437,0.17187 -1.054687,0.28125 z m 0,0"
       id="path313" />
    <path
       style="fill:#eb212e;fill-opacity:1;fill-rule:evenodd;stroke:none"
       d="m 52.789062,176.91797 c -0.421874,-1.04297 0.53125,-0.85547 1.035157,-1.0586 1.746093,-0.83984 1.0625,-2.91796 0.08203,-3.54687 -0.800781,-0.40234 -2.554688,-0.41406 -3.390625,1.51953 -0.828125,1.94922 0.390625,6.05078 2.792969,7.28516 0.9375,0.52734 1.777344,0.77734 3.542968,0.0664 0.546876,-0.22265 3.753907,-1.36718 4.667969,-1.73828 1.386719,-0.55859 1.386719,0.90625 2.273438,0.54688 1.515625,-0.61328 -0.898438,-7.34375 -2.898438,-6.83594 -0.960937,0.53906 0.246094,1.69922 -1.027343,2.21094 -0.910157,0.37109 -2.246094,1.0625 -4.011719,1.77343 -1.246094,0.65625 -2.613281,0.90625 -3.066407,-0.22265"
       id="path315" />
    <path
       style="fill:#eb212e;fill-opacity:1;fill-rule:evenodd;stroke:none"
       d="M 58.542969,184.3125 C 55.253906,186.28906 56.6875,190.25 57.738281,192 c 1.351563,2.24609 4.039063,4.63281 7.464844,2.57812 l 4.222656,-2.53906 c 0.9375,-0.5625 1.453125,0.56641 2.113281,0.33203 1,-0.45703 -0.06641,-2.23437 -0.488281,-2.92968 -0.914062,-1.52344 -1.75,-2.12891 -2.21875,-1.85157 -0.890625,0.3711 0.304688,1.56641 -0.875,2.27344 l -4.226562,2.53906 c -2.484375,1.4961 -5.636719,-2.6914 -1.867188,-4.95703 l 3.410157,-2.04687 c 0.832031,-0.5 1.222656,0.70312 1.984374,0.39062 0.972657,-0.25781 0.550782,-1.75 -0.59375,-3.64844 -0.632812,-1.05859 -2.214843,-3.41796 -3.03125,-2.14453 -0.332031,0.50782 -0.03516,1.27735 -0.730468,1.69532 l -3.183594,1.91406 z m 0,0"
       id="path317" />
    <path
       style="fill:#eb212e;fill-opacity:1;fill-rule:evenodd;stroke:none"
       d="m 75.15625,198.38281 c -0.08203,0.96485 -1.453125,1.92969 -2.023438,1.87891 -0.484374,0.0586 -1.382812,-0.79688 -0.964843,-1.14844 l 2.007812,-1.68359 c 0.617188,-0.33203 1.027344,0.5664 0.980469,0.95312 m -3.839844,3.7461 c -0.359375,1.73046 -2.152344,2.35937 -2.945312,1.41406 -0.628906,-0.53125 -0.398438,-0.90625 0.847656,-1.94922 l 0.761719,-0.64453 c 0.621093,-0.51953 1.414062,0.42187 1.335937,1.17969 m -5.65625,-3.29297 c -1.226562,0.86328 -1.234375,-0.21094 -2.050781,0.29687 -0.636719,0.52735 -0.125,1.52344 0.40625,2.16016 1.601563,1.71094 2.210937,2.4414 3.703125,4.40625 2.890625,3.66406 8.0625,2.3789 7.132812,-1.6875 -0.363281,-1.28125 0.648438,-0.70703 1.433594,-0.83594 2.382813,-0.39062 3.28125,-2.9375 1.15625,-5.47266 -1.773437,-1.89062 -2.492187,-2.7539 -3.960937,-4.71875 -1.070313,-1.05468 -1.6875,-0.72265 -1.78125,-0.64062 -0.945313,0.79297 0.464843,1.39844 -0.789063,2.45312 l -0.550781,0.46094 z m 0,0"
       id="path319" />
    <path
       style="fill:#eb212e;fill-opacity:1;fill-rule:evenodd;stroke:none"
       d="m 75.648438,209.49609 c -1.371094,1.70703 -1.847657,0 -2.671876,0.91407 -0.425781,0.68359 0.0625,0.95703 0.570313,1.41796 l 4.476563,4.02735 c 0.40625,0.36719 0.65625,0.94922 1.074218,1.51172 0.519532,0.63672 2.425782,0.35937 3.238282,-0.54688 1.777343,-1.75781 0.546874,-3.05469 -0.585938,-2.1875 -0.835938,0.71875 -2.140625,0.27735 -2.859375,-0.55469 -0.714844,-0.83593 -0.445313,-1.32421 -0.07813,-1.73046 l 4.050781,-4.5 c 1.09375,-1.21485 1.664063,0.38671 2.375,-0.60938 0.730469,-0.8125 -1.296875,-2.82422 -1.9375,-3.39844 -1.722656,-1.55859 -3.179687,-1.94531 -3.722656,-1.15625 -0.535156,0.80078 1.308594,1.17969 -0.359375,2.84766 -0.273438,0.30078 -0.449219,0.5 -0.730469,0.8125 z m 0,0"
       id="path321" />
    <path
       style="fill:#eb212e;fill-opacity:1;fill-rule:evenodd;stroke:none"
       d="m 86.578125,219.89062 c -0.921875,-0.64453 -0.01953,-1.0039 0.292969,-1.44921 1.007812,-1.65625 -0.703125,-3.02735 -1.867188,-3.02344 -0.890625,0.10156 -2.367187,1.04687 -2.015625,3.12109 0.371094,2.08594 3.625,4.86328 6.3125,4.58985 1.074219,-0.0664 1.914063,-0.3125 3.003907,-1.875 0.339843,-0.48438 2.40625,-3.1875 2.96875,-3.99219 0.863281,-1.22656 1.660156,-0.004 2.203124,-0.78125 0.941407,-1.34375 -4.75,-5.67188 -6.152343,-4.15625 -0.511719,0.97265 1.136719,1.28906 0.347656,2.41406 -0.5625,0.80469 -1.308594,2.10938 -2.398437,3.67188 -0.691407,1.22656 -1.699219,2.17968 -2.695313,1.48046"
       id="path323" />
    <path
       style="fill:#eb212e;fill-opacity:1;fill-rule:evenodd;stroke:none"
       d="m 99.828125,224.44531 c -0.855469,-0.41797 -0.367187,-0.49219 0.300785,-1.22265 1.20703,-1.23438 1.69922,-0.9961 1.71093,0.83203 0.0117,1.22265 -0.0508,1.34765 -0.79296,0.98437 z m -4.789063,0.42578 c -1.335937,1.17188 -1.886718,-0.15625 -2.363281,0.82422 -0.296875,0.60156 0.441407,1.25781 1.902344,1.96875 2.113281,1.03516 2.714844,0.73438 2.953125,0.24219 0.300781,-0.61719 -1.136719,-1.16016 -0.414062,-1.71094 0.363281,-0.42969 0.882812,-0.17578 2.230468,0.48047 1.343754,0.65625 2.085934,1.01953 1.847654,1.50781 -0.0898,0.85938 -1.10937,0.0703 -1.464841,0.79688 -0.46875,0.96875 1.281251,1.82031 2.628911,2.48047 1.34765,0.65625 3.46093,1.6875 4.04687,0.77343 0.60547,-0.91796 -0.78906,-0.83593 -0.6875,-2 l -0.0234,-8.42968 c -0.082,-2 -0.73047,-3.23438 -1.71093,-3.71485 -2.48047,-1.21093 -2.54688,1.48438 -4.285161,2.80469 L 98.140625,222.25 Z m 0,0"
       id="path325" />
    <path
       style="fill:#eb212e;fill-opacity:1;fill-rule:evenodd;stroke:none"
       d="m 108.80469,233.18359 c -0.21094,0.78516 1.03125,1.39063 2.08984,1.67578 1.48828,0.39844 2.8711,0.4961 3.05078,-0.71875 -0.082,-0.73046 -0.71093,-0.48046 -0.77734,-1.33593 -0.0117,-0.42578 0.16797,-1.65235 0.52734,-2.44141 0.39844,-1.00781 0.9961,-0.57422 1.48047,0.26563 0.78516,1.22656 2.4336,3.64062 3.52344,5.35156 0.87891,1.48047 1.99219,2.19922 2.75781,-0.11328 0.6836,-2.06641 1.03516,-4.41016 2.04297,-7.14063 0.59375,-1.66797 1.50391,-0.85937 1.92188,-1.875 0.40625,-1.02344 -1.00391,-1.54687 -2.21094,-1.87109 -1.05469,-0.28125 -2.53906,-0.53125 -2.78516,0.38672 -0.41797,1.01562 0.86328,0.9414 0.6875,2.15234 -0.19531,1.25781 -0.55078,3.13281 -1.5625,1.60156 -1.53515,-2.28515 -2.66015,-3.86328 -3.33594,-5.03125 -0.48828,-0.82422 -0.83984,-1.20703 -2.28515,-1.59375 -1.97266,-0.53125 -2.67969,-0.008 -2.89063,0.77344 -0.10937,0.95703 1.10547,0.58984 0.95313,2.24219 -0.10156,1.41015 -0.66797,3.51953 -1.39453,5.74609 -0.4961,1.85547 -1.44141,0.61719 -1.79297,1.92578"
       id="path327" />
    <path
       style="fill:#eb212e;fill-opacity:1;fill-rule:evenodd;stroke:none"
       d="m 130.69141,233.84766 c -0.94532,-0.082 -0.51954,-0.32422 -0.15625,-1.25 0.6875,-1.58204 1.23046,-1.53516 1.89453,0.16796 0.44922,1.13282 0.4375,1.27344 -0.38672,1.20313 z m -4.31641,2.11328 c -0.82812,1.57031 -1.82031,0.53125 -1.91406,1.61718 -0.0586,0.66797 0.86719,1.01563 2.48437,1.15625 2.34766,0.20704 2.79688,-0.28515 2.84375,-0.83203 0.0586,-0.68359 -1.47656,-0.67578 -1,-1.44922 0.1836,-0.53125 0.76172,-0.48046 2.25391,-0.34765 1.49219,0.1289 2.3125,0.19922 2.26562,0.74609 0.22657,0.83203 -1.01172,0.45703 -1.08203,1.26563 -0.0937,1.07422 1.85156,1.24218 3.34375,1.37109 1.48828,0.13281 3.83594,0.33984 4.05469,-0.72266 0.23437,-1.07421 -1.03906,-0.5 -1.36328,-1.62109 l -3.03906,-7.86328 c -0.79297,-1.83984 -1.83985,-2.75781 -2.92579,-2.85547 -2.75,-0.23828 -1.84375,2.29688 -2.99609,4.15234 l -0.97266,1.82813 z m 0,0"
       id="path329" />
    <path
       style="fill:#eb212e;fill-opacity:1;fill-rule:evenodd;stroke:none"
       d="m 142.34766,235.34766 c -0.21875,1.38281 0.58203,1.07421 1.93359,0.88671 0.95312,-0.0352 2.20312,0.46875 2.60156,-0.62109 l 0.48438,-1.69141 c 0.125,-0.54687 0.24218,-1.23828 -1.69922,-0.90625 l -0.8086,0.0273 c -1.23828,-0.082 -1.50781,-0.21094 -1.89062,0.48828 z m 0,0"
       id="path331" />
    <path
       style="fill:#eb212e;fill-opacity:1;fill-rule:evenodd;stroke:none"
       d="m 155.55469,234.46875 c 1.38672,0.0664 2.44922,0.71875 1.48047,1.56641 -1.21485,1.01562 -3.45704,0.12109 -4.16407,-0.85547 -0.71484,-1.03907 -1.57422,-1.17188 -1.86718,-0.4336 -0.15625,0.61328 0.57031,2.70703 1.21484,3.28516 0.96875,0.9375 3.55078,0.66797 4.53516,0.51172 4.6289,-0.58985 5.48046,-3.88281 5.14843,-5.07813 -0.47265,-2.98828 -3.28515,-3.09765 -5.55468,-3.57422 -2.03516,-0.39062 -1.24219,-1.76171 -0.15625,-1.78906 1.61718,-0.25781 3.29687,2.26953 4.35937,1.1211 0.80859,-0.98047 -0.16797,-2.75 -1.375,-3.39844 -0.74609,-0.4336 -1.22656,0.33594 -1.93359,0.16406 -0.71485,-0.15234 -2.08203,-0.082 -2.48047,-0.0156 -2.46485,0.39062 -4.40625,2.08593 -4.07813,4.95703 0.38282,2.41797 3.44141,3.49609 4.8711,3.53906"
       id="path333" />
    <path
       style="fill:#eb212e;fill-opacity:1;fill-rule:evenodd;stroke:none"
       d="m 165.34766,233.31641 c 0.76171,2.05078 -0.94922,1.57812 -0.58985,2.75781 0.36719,0.71875 0.85156,0.4375 1.50781,0.23828 l 5.75782,-1.76172 c 0.52343,-0.15625 1.15234,-0.0742 1.85156,-0.13672 0.8125,-0.12109 1.55469,-1.89844 1.19922,-3.0625 -0.59375,-2.42578 -2.33594,-2.03906 -2.17969,-0.62109 0.18359,1.08594 -0.86328,1.97656 -1.94922,2.16406 -1.08594,0.18359 -1.36328,-0.30469 -1.52344,-0.82422 l -1.76953,-5.78906 c -0.48047,-1.56641 1.19141,-1.23047 0.69922,-2.35156 -0.3164,-1.04297 -3.08984,-0.34375 -3.91015,-0.0937 -2.22266,0.68359 -3.30469,1.73047 -2.90625,2.60547 0.41406,0.86718 1.68359,-0.51954 2.2539,1.76953 0.1211,0.39062 0.19922,0.64453 0.32031,1.04687 z m 0,0"
       id="path335" />
    <path
       style="fill:#eb212e;fill-opacity:1;fill-rule:evenodd;stroke:none"
       d="m 181.11328,227.36328 c -1.09766,-0.72656 -2.69141,-2.23437 -3.19922,-3.65234 -0.75781,-2.2461 1.19922,-2.55469 2.04297,-2.03907 1.60547,0.78516 3.26172,2.71485 3.78906,4.17188 0.38672,1.16406 -0.89062,2.66797 -2.63281,1.51953 m 2.28516,2.98047 c 3.125,-1.45703 5.21484,-5.42578 3.46484,-8.55078 -4.39453,-7.79688 -15.43359,-1.91016 -12.44531,5.49219 2.74609,5.22656 7.25781,3.86328 8.98047,3.05859"
       id="path337" />
    <path
       style="fill:#eb212e;fill-opacity:1;fill-rule:evenodd;stroke:none"
       d="m 195.35937,222.32031 c 1.0625,0.57031 2.83594,-0.004 2.44532,-2.05469 l -1.5625,-9.6289 c -0.21485,-1.50391 1.14453,-1.46485 0.79687,-2.21094 -0.21484,-0.51562 -0.82422,-0.92969 -2.7539,0.42188 -1.32813,0.93359 -2.17969,1.86718 -1.90625,2.49609 0.2539,0.83203 1.32031,-0.25781 1.61718,0.87109 l 0.53516,2.66797 c 0.25,1.3125 -0.48828,1.50391 -1.17969,0.98047 l -2.3164,-1.40625 c -0.82032,-0.4375 0.004,-1.16406 -0.3125,-1.60937 -0.47657,-1.17188 -2.92969,0.54687 -3.63282,1.03906 -1.22656,0.85937 -2.88281,2.51562 -1.96093,3.37109 0.58203,0.58594 0.89453,-0.625 2.20312,0.28906 l 2.04688,1.26563 z m 0,0"
       id="path339" />
    <path
       style="fill:#eb212e;fill-opacity:1;fill-rule:evenodd;stroke:none"
       d="m 203.61719,214.3125 c 0.55078,0.97656 -0.14063,1.24219 0.13281,1.92578 0.63672,0.68359 1.14453,0.0391 1.84375,-0.61328 l 4.41406,-4.11328 c 1.01563,-0.94922 1.89063,-1.40235 2.28906,-1.77344 0.60547,-0.56641 -1.25,-5.19141 -2.76953,-3.77344 -0.875,1.05078 1.38672,2.28907 -1.01953,4.53516 -0.70703,0.66016 -1.21875,1.6875 -2.79297,0 -0.86328,-0.92188 -1.14062,-1.41016 -0.64062,-1.875 1.09765,-1.02344 1.71875,1.03906 2.43359,0.20312 0.92188,-0.85937 -0.58594,-2.48046 -1.05469,-2.98437 -0.55468,-0.58984 -1.79687,-1.71875 -2.71484,-1.05469 -0.90625,1.04297 1.51953,1.42188 0.0195,2.62891 -0.49609,0.65625 -1.33594,-0.2461 -1.8164,-0.75781 -0.5625,-0.60547 -0.92969,-1.20313 0.25781,-2.3086 2.3164,-2.16015 2.83203,-0.21094 3.74219,-1.25 1.09375,-1.01953 -1.54688,-2.84765 -2.61329,-2.59765 -0.58203,0.17968 -0.21484,0.77734 -1.82812,2.08984 -1.49609,1.39453 -3.21875,3 -4.60938,4.29687 -0.69531,0.64844 -0.91015,1.40235 -0.35156,1.82032 0.55469,0.59375 1.08594,-0.64453 2.10938,0.27343 0.77343,0.6211 1.42968,1.1211 2.26953,2.01954 0.65625,0.5 2.16015,2.3164 2.69922,3.30859"
       id="path341" />
    <path
       style="fill:#eb212e;fill-opacity:1;fill-rule:evenodd;stroke:none"
       d="m 214.28516,206.14453 c 0.64843,0.48828 1.67968,-0.43359 2.33593,-1.30859 0.92969,-1.23047 1.53516,-2.47266 0.47657,-3.09375 -0.70704,-0.20313 -0.71094,0.47656 -1.52735,0.21484 -0.39844,-0.14453 -1.46875,-0.77344 -2.0664,-1.40625 -0.78516,-0.74609 -0.16016,-1.13281 0.80078,-1.26953 1.42968,-0.26563 4.28515,-0.89063 6.28125,-1.26172 1.69922,-0.26172 2.78515,-1.02344 0.92578,-2.60156 -1.65625,-1.40235 -3.69922,-2.60938 -5.85547,-4.56641 -1.32031,-1.17578 -0.22656,-1.71875 -1.01563,-2.48828 -0.79687,-0.75781 -1.80859,0.35547 -2.5625,1.35156 -0.65625,0.8711 -1.44531,2.15235 -0.6875,2.72657 0.78907,0.76562 1.19922,-0.44922 2.25391,0.17187 1.09375,0.64844 2.69922,1.67969 0.90234,2.04688 -2.69531,0.5664 -4.58203,1.02343 -5.91406,1.21093 -0.94922,0.14063 -1.4375,0.32032 -2.33594,1.51953 -1.23046,1.63282 -1.01171,2.48047 -0.36328,2.96875 0.84375,0.46094 0.95703,-0.80468 2.4336,-0.043 1.26953,0.625 3.01172,1.9375 4.80859,3.44531 1.53125,1.15625 0.0273,1.5664 1.10938,2.38281"
       id="path343" />
    <path
       style="fill:#eb212e;fill-opacity:1;fill-rule:evenodd;stroke:none"
       d="m 221.03906,190.46484 c 3.25781,1.79297 1.42969,2.44141 2.5586,2.95703 0.34375,0.20704 1.00781,0.13282 2.2539,-1.66406 0.71485,-1.1914 2.13672,-3.83203 1.21485,-4.38672 -0.74219,-0.60937 -0.99219,0.35157 -1.91016,0.27344 -0.61328,-0.0391 -1.30859,-0.45703 -2.85938,-1.39062 l -2.5664,-1.54297 c -2.17578,-1.47266 -0.70703,-2.33594 -1.71485,-2.77735 -0.64062,-0.23828 -1.5625,0.48047 -2.55078,2.125 -0.99609,1.65625 -1.82422,3.85157 -0.94531,4.23828 0.69531,0.41797 1.10156,-0.77734 2.21875,-0.26953 0.35938,0.21485 1.38672,0.6875 2.42969,1.31641 z m 0,0"
       id="path345" />
    <path
       style="fill:#eb212e;fill-opacity:1;fill-rule:evenodd;stroke:none"
       d="m 228.14844,182.46094 c -0.47657,1.01953 -0.98438,0.19531 -1.48047,-0.0352 -1.80469,-0.70312 -2.85547,1.21484 -2.65235,2.35938 0.25391,0.85937 1.44532,2.15234 3.42579,1.44531 1.99218,-0.72656 4.16015,-4.41406 3.42578,-7.01172 -0.25391,-1.04688 -0.64453,-1.83203 -2.36719,-2.63672 -0.53906,-0.25 -3.5625,-1.8125 -4.45313,-2.23047 -1.35546,-0.63281 -0.28906,-1.6289 -1.15234,-2.03515 -1.48047,-0.69141 -4.75781,5.66796 -3.02344,6.78515 1.05078,0.33203 1.07422,-1.33984 2.31641,-0.76172 0.89453,0.41407 2.30859,0.92188 4.03125,1.72657 1.33203,0.46484 2.44531,1.29296 1.92969,2.39453"
       id="path347" />
    <path
       style="fill:#eb212e;fill-opacity:1;fill-rule:evenodd;stroke:none"
       d="m 230.39844,168.65234 c -0.2461,0.92188 -0.41407,0.45703 -1.26172,-0.0625 -1.44141,-0.95312 -1.30078,-1.47656 0.49219,-1.83593 1.19921,-0.2461 1.33203,-0.21094 1.12109,0.58593 z m 1.32812,4.6211 c 1.40235,1.08593 0.20703,1.8789 1.26172,2.16015 0.64844,0.17578 1.14844,-0.67578 1.57031,-2.24218 0.60938,-2.27344 0.19922,-2.80469 -0.32422,-2.94532 -0.66406,-0.17578 -0.92578,1.33594 -1.60546,0.73438 -0.48829,-0.27735 -0.33985,-0.83594 0.0469,-2.28125 0.39063,-1.44531 0.60156,-2.2461 1.12891,-2.10547 0.86328,-0.0742 0.27734,1.07812 1.0625,1.28906 1.03906,0.27735 1.54687,-1.60547 1.92968,-3.05469 0.39063,-1.44531 1,-3.71875 -0.008,-4.11718 -1.01953,-0.42188 -0.67187,0.92968 -1.83594,1.05468 l -8.26953,1.62891 c -1.94531,0.46484 -3.03515,1.33594 -3.3164,2.39063 -0.71485,2.66406 1.9375,2.21484 3.5664,3.66796 l 1.63282,1.27735 z m 0,0"
       id="path349" />
    <path
       style="fill:#ffffff;fill-opacity:1;fill-rule:evenodd;stroke:none"
       d="m 140.12109,90.96875 c 1.02344,1.019531 2.67969,3.941406 2.67969,3.941406 3.25781,-0.246094 8.60938,-0.292968 10.21875,-0.04687 0.42578,0.0625 1.54688,0.125 0.53516,-0.582031 -3.41016,-2.390625 -10.51172,-3.898438 -13.4336,-3.3125 m -4.96093,0.289062 c -2.14063,0.683594 -5.01172,1.753907 -6.13282,2.484376 -0.52734,0.34375 -1.11718,0.871093 -0.87109,2.476562 0.24219,1.605469 0.48437,2.628906 1.06641,2.824219 0.58593,0.195312 1.58593,-0.566407 2.28906,-0.972657 2.33594,-1.363281 7.49219,-2.332031 7.73437,-2.429687 0.24219,-0.09766 0.58203,-0.09375 0.77735,0.09766 0.19531,0.1875 1.26562,0.582031 0.97656,-0.292969 -0.29297,-0.875 -1.50781,-3.207031 -2.33594,-3.9375 -0.82422,-0.730468 -2.29687,-0.632812 -3.5039,-0.25 m -9.53516,4.570313 c -3.69922,1.902344 -8.66016,8.808596 -9.68359,11.437506 -0.8086,2.08203 1.37109,1.80859 1.94922,1.01953 3.54687,-4.85938 7.10156,-7.19532 8.02734,-7.73438 0.92578,-0.53515 2.04297,-0.48437 1.84766,-1.167969 -0.19532,-0.679687 -0.58204,-2.730468 -0.92188,-3.261718 -0.34375,-0.53125 -0.41406,-0.707032 -1.21875,-0.292969 m 1.99609,5.648436 c -3.65234,1.84766 -6.77343,5.83985 -7.2539,6.66407 -0.48047,0.82812 -0.14453,2.33203 0.24219,4.62109 0.39062,2.28906 1.99609,6.37891 3.69921,9.78125 1.32032,2.63672 3.07422,5.55469 3.65235,6.42578 0.57812,0.87109 1.09375,1.73437 2.47656,0.82031 2.28906,-1.5039 6.76172,-3.9375 7.49609,-4.47265 0.72657,-0.53516 0.88672,-1.07813 0.33985,-2.33594 -1.31641,-3.01172 -3.9375,-7.15234 -4.6211,-8.22266 -0.67968,-1.07031 -1.65625,-4.08593 -2.23828,-5.73828 -0.58594,-1.65625 -2.625,-5.45312 -2.76953,-6.23437 -0.14844,-0.77735 -0.83203,-1.40625 -1.02344,-1.3086 m -10.85156,8.41797 c -0.82812,0.48828 -1.76172,0.96875 -1.89844,2.09375 -0.4375,3.59766 0.33985,10.89453 0.82813,12.20703 0.48437,1.31641 1.41016,2.04688 2.48047,2.53516 1.07422,0.48437 4.28125,2.96484 5.05859,4.52344 0.78125,1.55468 0.875,2.57812 1.16797,2.91796 0.29297,0.34375 0.67969,1.01954 1.36328,0.58594 1.07422,-0.68359 2.87109,-1.36328 1.5586,-3.99219 -1.44532,-2.90234 -3.375,-5.07031 -3.89454,-6.76171 -1.12109,-3.64844 -3.64843,-7.64063 -4.03515,-10.36328 -0.29688,-2.07032 -0.33985,-3.35938 -0.73047,-3.7461 -0.39063,-0.39062 -1.07031,-0.48828 -1.89844,0 m 11.24219,25.49609 c -0.14844,0.33985 -0.4375,1.01954 0.24219,1.36329 0.67578,0.33984 2.23437,1.64843 2.91796,1.84375 0.67969,0.19531 1.3125,0.0508 2.14063,-0.4375 0.82812,-0.48438 4.47266,-3.21094 5.25,-4.76563 0.78125,-1.55859 2.04687,-3.64844 2.53516,-4.42578 0.48437,-0.77734 0.1914,-1.36328 -0.0977,-1.70312 -0.29297,-0.33985 -1.70313,-1.90235 -1.89844,-1.02344 -0.19531,0.875 -1.36328,1.07031 -2.52734,1.80078 -1.16406,0.73047 -4.51953,2.4375 -6.03125,3.60547 -1.50781,1.16797 -2.38672,3.40234 -2.53125,3.74218 m 12.74609,-10.36328 c 0.16797,0.5625 0.92188,1.50782 1.21485,1.60547 0.29296,0.0977 0.73046,0.19141 1.16796,-0.29297 0.4375,-0.48828 1.41407,-1.41015 1.5586,-1.89843 0.0977,-0.32813 0.43359,-1.02344 -0.63672,-0.82813 -1.07422,0.19531 -3.59766,0.4375 -3.30469,1.41406 M 134.33594,111.5 c 0.21484,2.78906 3.15625,6.91016 5.00781,10.99219 0.46875,1.03515 0.63281,1.07422 1.70312,0.8789 1.07032,-0.19531 4.28125,-0.97265 4.96094,-1.46093 0.6836,-0.48828 2.09375,-1.40625 2.33985,-2.86719 0.24218,-1.46094 1.35937,-4.24219 2.42968,-5.74609 1.07422,-1.50391 2.57813,-3.69532 3.64844,-4.03516 1.07031,-0.33984 2.625,-0.40234 3.11328,0.29297 0.58594,0.82812 0.73047,1.74609 0.0508,3.59765 -0.68359,1.84766 -1.36328,3.65235 -1.60547,4.96485 -0.16015,0.86328 -0.0977,1.80078 -0.0977,1.80078 0,0 3.75,0.33984 4.13672,0.29297 0.39062,-0.0508 1.08984,0.25781 1.3164,-1.07031 0.33985,-1.9961 1.84375,-3.69922 3.5,-4.82032 0.99219,-0.67187 1.26563,-0.4414 1.07032,-1.55859 -0.19532,-1.11328 -0.77344,-4.32422 -1.55469,-5.19922 -0.77735,-0.87891 -1.75,-1.03125 -3.40625,-1.07422 -11.38672,-0.29297 -16.59375,0.38672 -24.47266,3.40625 -1.3164,0.3086 -2.1914,0.97266 -2.14062,1.60547 m 0.97265,-2.14062 c 1.99219,-1.07422 8.30078,-3.0625 13.03907,-3.75 3.35546,-0.48829 11.875,-0.77735 12.9414,-0.58204 1.06641,0.19532 1.76172,0.20313 1.40625,-0.78125 -1.16406,-3.25781 -3.64453,-7.492184 -9.53125,-8.171871 -4.26172,-0.496094 -8.95312,0.04687 -12.35937,0.632812 -3.21875,0.550781 -7.00391,1.363281 -10.17188,3.066407 -0.80859,0.437502 -1.07031,0.679692 -0.82422,1.460942 0.24219,0.77734 2.3125,6.70312 2.82813,7.63671 0.72265,1.31641 1.5,1.11719 2.67187,0.48829 m 20.38282,12.0625 c -0.24219,0.39062 -0.80469,1.39843 -1.26563,2.4375 -0.78125,1.75 -2.03906,2.77734 -2.42969,3.9414 -0.39062,1.16406 -1.16797,4.18359 -1.16797,4.18359 0,0 3.25782,-3.30859 4.375,-4.76953 1.1211,-1.45703 2.92188,-3.9414 3.06641,-4.3789 0.14844,-0.4375 0.48828,-1.3711 0,-1.41797 -0.48828,-0.0508 -2.23828,-0.23828 -2.57812,0.004"
       id="path351" />
  </g>
</svg>
