<?xml version="1.0" encoding="UTF-8" standalone="no"?>
<svg
   width="128.88824pt"
   height="139.13039pt"
   viewBox="0 0 128.88825 139.13039"
   version="1.1"
   id="svg354"
   sodipodi:docname="Slovan-logo-new croped.svg"
   inkscape:version="1.1.2 (b8e25be8, 2022-02-05)"
   xmlns:inkscape="http://www.inkscape.org/namespaces/inkscape"
   xmlns:sodipodi="http://sodipodi.sourceforge.net/DTD/sodipodi-0.dtd"
   xmlns="http://www.w3.org/2000/svg"
   xmlns:svg="http://www.w3.org/2000/svg">
  <defs
     id="defs358" />
  <sodipodi:namedview
     id="namedview356"
     pagecolor="#ffffff"
     bordercolor="#666666"
     borderopacity="1.0"
     inkscape:pageshadow="2"
     inkscape:pageopacity="1"
     inkscape:pagecheckerboard="true"
     inkscape:document-units="pt"
     showgrid="false"
     inkscape:zoom="1.2038523"
     inkscape:cx="110.894"
     inkscape:cy="115.04734"
     inkscape:window-width="1280"
     inkscape:window-height="677"
     inkscape:window-x="0"
     inkscape:window-y="25"
     inkscape:window-maximized="0"
     inkscape:current-layer="svg354"
     fit-margin-top="0"
     fit-margin-left="0"
     fit-margin-right="0"
     fit-margin-bottom="0" />
  <g
     id="surface1"
     transform="translate(-76.101973,-66.71813)">
    <path
       id="path181"
       style="fill:#caebe8;fill-opacity:1;fill-rule:evenodd;stroke:none;stroke-width:1.33333"
       transform="matrix(0.75,0,0,0.75,46.125411,43.868028)"
       d="M 126.83789,31.978516 C 117.96809,47.692058 108.88412,58.940755 95.785156,64.044922 78.21225,70.888671 64.729166,89.268855 63.515625,111.6543 61.854166,142.31575 84.95312,161.07747 92.75,164.90039 c 8.26041,4.04687 18.13998,2.22396 22.38477,3.03125 l 18.95898,0.29102 c 7.28125,0.11453 13.00911,3.11914 22.37891,-1.91211 14.33333,-7.6875 27.65169,-28.45704 29.47461,-50.03516 1.71874,-20.390621 -12.20314,-43.677735 -26.23438,-49.193359 -24.61459,-9.677084 -32.875,-35.103515 -32.875,-35.103515 z" />
    <path
       id="path187"
       style="fill:#caebe8;fill-opacity:1;fill-rule:evenodd;stroke:none;stroke-width:1.33333"
       transform="matrix(0.75,0,0,0.75,46.125411,43.868028)"
       d="m 31.753906,56.203125 c -0.118044,0.09624 -0.173517,0.145231 -0.294922,0.244141 2.92e-4,0.01027 -2.89e-4,0.01904 0,0.0293 0.09828,-0.09117 0.196576,-0.182337 0.294922,-0.273437 z" />
    <path
       id="path201"
       style="fill:#caebe8;fill-opacity:1;fill-rule:evenodd;stroke:none;stroke-width:1.33333"
       transform="matrix(0.75,0,0,0.75,46.125411,43.868028)"
       d="m 157.69141,20.314453 c 0.21263,0.445782 0.72413,0.8524 1.59961,1.033203 0.57272,0.159647 1.04232,0.303468 1.47851,0.44336 -0.0746,-0.06135 -0.14816,-0.124008 -0.22265,-0.185547 -1.06265,-0.376729 -1.99449,-0.818143 -2.85547,-1.291016 z" />
    <path
       id="path213"
       style="fill:#caebe8;fill-opacity:1;fill-rule:evenodd;stroke:none;stroke-width:1.33333"
       transform="matrix(0.75,0,0,0.75,46.125411,43.868028)"
       d="m 245.08008,104.90234 c -0.0204,0.005 -0.044,0.009 -0.0645,0.0137 0.11626,0.69138 0.15595,0.82936 0.0645,-0.0137 z" />
    <path
       id="path215"
       style="fill:#caebe8;fill-opacity:1;fill-rule:evenodd;stroke:none;stroke-width:1.33333"
       transform="matrix(0.75,0,0,0.75,46.125411,43.868028)"
       d="m 66.113281,179.06641 c -3.989584,0 -7.483724,2.19792 -7.68164,6.8125 0,3.91666 4.561848,6.39062 6.80664,6.8125 2.171875,0.44792 3.699219,1.74479 1.949219,2.84375 -2.171875,1.29688 -5.484375,-0.67254 -6.359375,-2.39649 -0.875,-1.81772 -2.197917,-2.24349 -2.84375,-1.14453 -0.401041,0.92188 0.222656,4.41536 1.097656,5.48828 1.296875,1.71875 5.4375,1.94336 7.03125,1.94336 7.458336,0.22396 9.630197,-4.76563 9.40625,-6.73437 0,-4.83855 -4.415365,-5.71419 -7.878906,-7.03711 -3.119792,-1.11979 -1.526692,-3.0931 0.197266,-2.86914 2.614584,0 4.640628,4.41602 6.609375,2.86914 1.520826,-1.34375 0.427734,-4.38997 -1.322266,-5.71289 -1.07292,-0.875 -2.020834,0.22331 -3.09375,-0.22461 -1.093751,-0.42188 -3.266927,-0.65039 -3.917969,-0.65039 z" />
    <path
       id="path217"
       style="fill:#caebe8;fill-opacity:1;fill-rule:evenodd;stroke:none;stroke-width:1.33333"
       transform="matrix(0.75,0,0,0.75,46.125411,43.868028)"
       d="m 82.285156,179.07227 c -3.713533,0 -5.858076,1.09765 -5.660156,2.61328 0.22396,1.52604 2.817061,6.4e-4 2.619141,3.77148 v 8.53125 c 0.19792,3.48959 -2.19336,1.9694 -2.19336,3.94336 0.22396,1.27083 1.099613,1.07227 2.19336,1.07227 H 88.875 c 0.875,0 1.795571,0.42252 2.894531,0.64648 1.296867,0.19792 3.265625,-2.17253 3.265625,-4.11523 0.22396,-3.98959 -2.619135,-4.21355 -3.041015,-1.96875 C 91.770194,195.31119 89.75,196.18099 88,195.95703 c -1.744787,-0.22396 -1.943359,-1.09895 -1.943359,-1.96875 v -9.68164 c 0,-2.6198 2.389975,-1.31772 2.166015,-3.26562 0,-1.7448 -4.5625,-1.96875 -5.9375,-1.96875 z" />
    <path
       id="path219"
       style="fill:#caebe8;fill-opacity:1;fill-rule:evenodd;stroke:none;stroke-width:1.33333"
       transform="matrix(0.75,0,0,0.75,46.125411,43.868028)"
       d="m 105.55469,179.01758 c -5.2168,0.0781 -10.380866,3.5332 -10.716799,9.9082 0.447906,9.42708 7.905599,10.5 10.947269,10.5 5.51562,0 11.22981,-4.3392 10.80273,-10.05273 -0.54688,-7.13542 -5.81641,-10.4336 -11.0332,-10.35547 z m -1.06055,4.38476 c 0.86985,-0.009 1.75586,0.5127 2.16602,1.13282 1.79688,2.21874 2.89583,6.13475 2.67187,8.60351 -0.22396,1.94791 -3.09375,3.27148 -4.84375,0.42774 -1.09375,-1.80208 -2.39583,-5.06705 -2.17187,-7.46289 0.22688,-2.00049 1.1919,-2.69148 2.17773,-2.70118 z" />
    <path
       id="path221"
       style="fill:#caebe8;fill-opacity:1;fill-rule:evenodd;stroke:none;stroke-width:1.33333"
       transform="matrix(0.75,0,0,0.75,46.125411,43.868028)"
       d="m 122.5625,179.06641 c -2.39583,0 -6.08919,0.65039 -5.66211,2.61914 0.22396,1.30208 1.74545,6.4e-4 2.61523,2.39648 l 1.51954,3.54102 4.62109,10.08398 c 0.86979,1.71875 3.71289,2.5944 5.08789,-0.44726 l 6.78125,-14.04688 c 1.09896,-2.17187 2.84831,-0.87501 3.07227,-2.17187 0.19792,-0.8698 -0.22266,-1.97461 -3.98828,-1.97461 -2.59898,0 -4.56901,0.45247 -4.79297,1.52539 -0.42188,1.32292 1.97004,0.87109 1.32421,2.62109 l -1.74609,3.98828 c -0.875,1.94792 -2.0254,1.52214 -2.44726,0.19922 l -1.74415,-3.96484 c -0.67708,-1.32292 1.07227,-1.51953 1.07227,-2.39453 0.44792,-1.97396 -4.34309,-1.97461 -5.71289,-1.97461 z" />
    <path
       id="path223"
       style="fill:#caebe8;fill-opacity:1;fill-rule:evenodd;stroke:none;stroke-width:1.33333"
       transform="matrix(0.75,0,0,0.75,46.125411,43.868028)"
       d="m 150.16016,179.07227 c -4.41667,0 -2.61849,3.91146 -4.19141,7.03125 l -1.29687,3.04687 -2.6211,5.9375 c -1.09896,2.61459 -2.82226,1.0983 -2.82226,2.83789 0,1.07812 1.52539,1.5 4.11914,1.5 3.76562,0 4.41796,-0.84961 4.41796,-1.72461 0,-1.09374 -2.44791,-0.86913 -1.79687,-2.16601 0.22396,-0.875 1.14519,-0.875 3.54102,-0.875 2.39584,0 3.71289,0 3.71289,0.875 0.47916,1.29688 -1.54688,0.87435 -1.54688,2.16601 0,1.72396 3.1198,1.72461 5.51563,1.72461 2.39584,0 6.16145,-6.5e-4 6.35937,-1.72461 0.22396,-1.74478 -1.71874,-0.64582 -2.39062,-2.39062 l -5.9375,-12.09766 c -1.52084,-2.81771 -3.3177,-4.14062 -5.0625,-4.14062 z m -0.58399,8.11328 c 0.48893,0 1.0293,0.65494 1.67774,1.96484 0.875,1.74479 0.87565,1.96875 -0.44727,1.96875 h -2.17187 c -1.52083,0 -0.8698,-0.44792 -0.42188,-1.96875 0.4375,-1.3099 0.87435,-1.96484 1.36328,-1.96484 z" />
    <path
       id="path225"
       style="fill:#caebe8;fill-opacity:1;fill-rule:evenodd;stroke:none;stroke-width:1.33333"
       transform="matrix(0.75,0,0,0.75,46.125411,43.868028)"
       d="m 167.52539,179.06641 c -3.26563,0 -4.13475,1.10481 -4.13477,2.39648 0.22397,1.52604 1.94271,0.45248 2.39063,3.07227 0.42708,2.21874 0.42578,5.70833 0.22266,9.45312 0,3.06772 -1.96875,1.54687 -1.96875,3.71875 0,1.29687 2.17319,1.71875 3.91796,1.71875 2.46878,0 4.63998,-0.42123 4.41602,-2.36914 -0.42708,-1.09896 -1.30208,-0.44921 -1.75,-1.74609 -0.19791,-0.65104 -0.42123,-2.61848 -0.19726,-3.98828 0.1979,-1.72395 1.29557,-1.30209 2.39453,-0.20313 1.72396,1.57292 5.26041,4.61458 7.65625,6.8125 1.97396,1.91667 3.99479,2.56641 4.21875,-1.32422 0.19792,-3.46874 -0.22266,-7.23437 0.19921,-11.875 0.22398,-2.8177 1.96745,-1.94662 2.19141,-3.6914 0.20312,-1.7448 -2.1927,-1.97461 -4.1875,-1.97461 -1.74479,0 -4.14062,0.22916 -4.14062,1.75 -0.22396,1.74478 1.7194,1.09831 1.94336,3.04101 0.22396,2.02083 0.45378,5.06902 -1.74415,3.1211 -3.3177,-2.89583 -5.71353,-4.8659 -7.23437,-6.38672 -1.09896,-1.07292 -1.79752,-1.52539 -4.19336,-1.52539 z" />
    <path
       id="path243"
       style="fill:#caebe8;fill-opacity:1;fill-rule:evenodd;stroke:none;stroke-width:1.33333"
       transform="matrix(0.75,0,0,0.75,46.125411,43.868028)"
       d="m 110.0918,259.62109 c -0.0319,0.0714 -0.0651,0.14223 -0.0957,0.21485 0.28318,-0.0353 0.5132,-0.0899 0.70508,-0.15625 -0.007,-0.0112 -0.0143,-0.0221 -0.0215,-0.0332 -0.18722,-0.0172 -0.38794,-0.0211 -0.58789,-0.0254 z m 6.34765,0.6211 c -0.006,0.0248 -0.0137,0.0515 -0.0195,0.0762 0.0247,-0.0231 0.0464,-0.0484 0.0703,-0.0723 -0.0169,-10e-4 -0.0339,-0.002 -0.0508,-0.004 z m -0.0195,0.0762 c -0.0351,0.0328 -0.0881,0.0507 -0.125,0.082 0.0318,0.009 0.0652,0.0169 0.0977,0.0254 0.009,-0.0356 0.0194,-0.0736 0.0273,-0.10742 z" />
    <path
       id="path261"
       style="fill:#caebe8;fill-opacity:1;fill-rule:evenodd;stroke:none;stroke-width:1.33333"
       transform="matrix(0.75,0,0,0.75,46.125411,43.868028)"
       d="m 239.28125,188.77734 c 0.21504,0.1978 0.42192,0.41056 0.64063,0.60157 0.009,-0.0998 -0.005,-0.18338 -0.002,-0.2793 -0.20732,-0.10459 -0.44035,-0.2222 -0.63867,-0.32227 z" />
    <path
       id="path265"
       style="fill:#eb212e;fill-opacity:1;fill-rule:evenodd;stroke:none;stroke-width:1.33333"
       transform="matrix(0.75,0,0,0.75,46.125411,43.868028)"
       d="M 126.83789,31.978516 C 117.96809,47.692058 108.88412,58.940755 95.785156,64.044922 78.21225,70.888671 64.729166,89.268855 63.515625,111.6543 61.854166,142.31575 84.95312,161.07747 92.75,164.90039 c 8.26041,4.04687 18.13998,2.22396 22.38477,3.03125 l 18.95898,0.29102 c 7.28125,0.11453 13.00911,3.11914 22.37891,-1.91211 14.33333,-7.6875 27.65169,-28.45704 29.47461,-50.03516 1.71874,-20.390621 -12.20314,-43.677735 -26.23438,-49.193359 -24.61459,-9.677084 -32.875,-35.103515 -32.875,-35.103515 z" />
    <path
       id="path267"
       style="fill:#ffffff;fill-opacity:1;fill-rule:evenodd;stroke:none;stroke-width:1.33333"
       transform="matrix(0.75,0,0,0.75,46.125411,43.868028)"
       d="m 145.65625,88.777344 c -0.50726,-0.01639 -1.06054,0.136723 -1.52148,0.517578 -1.22916,1.015627 -4.63477,6.552741 -5.29102,7.865234 -0.66145,1.312507 -0.83853,2.271487 -1.07813,3.646484 -0.23956,1.3802 -1.43359,3.49935 -2.93359,5.05664 -1.49479,1.55208 -1.67188,2.0931 -2.03125,2.86914 -0.35937,0.77604 -3.02017,3.79298 -3.91601,4.60547 -0.89583,0.80729 -1.97462,3.79622 -3.64649,6.00977 -1.67709,2.21353 -6.43099,6.84895 -8.9414,8.34375 -2.51043,1.49478 -2.63152,0.6569 -3.94922,-0.18164 -1.31251,-0.83334 -3.82748,-2.61589 -6.36914,-3.5586 -1.61459,-0.59896 -2.99024,-3.04687 -2.99024,-3.04687 0,0 -4.874343,-7.38997 -7.087889,-8.52539 -2.208334,-1.13542 -5.077468,-1.79233 -4.181641,1.58789 0.39584,1.48958 2.786467,5.1875 4.125,8.3125 0.541667,1.25 2.779947,4.15755 4.39453,6.66797 1.61459,2.51042 3.82812,3.97265 5.5,8.22265 1.67708,4.2448 6.01628,11.21485 7.56836,12.52735 1.55729,1.31772 1.85478,2.21224 1.91211,3.70703 0.0624,1.4948 -0.006,12.22395 -0.006,13.0625 0,0.79688 -0.0675,-0.0625 -0.0781,1.25 l 18.95898,0.50586 1.00391,-15.02539 c 0,0 6.03256,-4.41146 8.46484,-7.45313 2.42709,-3.03125 2.42709,-4.24609 4.65625,-5.05859 2.22396,-0.8073 4.79102,-1.93099 5.90039,-4.47266 1.10937,-2.54167 5.41601,-9.30338 6.07227,-11.15234 0.35937,-1.01042 0.17708,-3.26498 -0.65625,-2.30664 -0.83854,0.95833 -4.9362,7.08919 -5.53516,7.63086 -0.59896,0.53125 -1.9694,0.77604 -1.19336,-0.78125 0.77604,-1.55208 5.70897,-8.93815 6.42774,-11.69336 0.71872,-2.75 2.15559,-5.22916 3.22851,-6.90625 1.07812,-1.67187 1.85416,-3.70769 2.09375,-5.25977 0.23959,-1.55729 -1.13541,-3.47005 -2.75,-1.79297 -1.61459,1.67188 -2.27019,3.64714 -2.93164,5.6211 -0.65625,1.97394 -1.72983,3.67578 -2.92773,5.76953 -1.19792,2.09374 -2.42644,5.70963 -3.32227,7.71484 -0.89584,2.0052 -1.01628,2.8431 -2.33398,3.85352 -1.31251,1.02084 -2.20899,0.63476 -1.55274,-1.19336 0.65624,-1.82292 0.12044,-1.40625 1.55274,-3.14063 1.43749,-1.73437 2.9056,-4.93099 4.04101,-7.83203 1.13541,-2.90104 2.4492,-5.17316 3.58985,-7.44922 1.13541,-2.27082 3.28646,-6.90494 3.76562,-8.457029 0.47917,-1.55728 1.4948,-4.84441 -1.07812,-3.34961 -2.56773,1.489574 -5.02084,3.614576 -5.20313,5.499999 -0.17709,1.88541 -0.0899,2.06185 -1.52734,3.25977 -1.4323,1.19792 -2.14974,1.2552 -3.94141,4.1875 -1.79687,2.92709 -4.06772,4.7513 -4.90625,5.94922 -0.83333,1.1927 -3.97526,4.36393 -4.93359,5.68164 -0.95834,1.31249 -1.4362,1.79232 -1.25391,2.63086 0.17708,0.83333 -0.95899,2.0931 -1.31836,0.41601 -0.35937,-1.67187 -0.29622,-2.86979 0.30273,-4.84375 0.59898,-1.97396 0.29558,-3.37955 0.59766,-4.93164 0.29688,-1.55728 1.3125,-2.93228 2.32813,-4.125 1.01561,-1.19791 3.44336,-5.23438 3.74023,-7.26562 0.29688,-2.036479 -0.11979,-3.651697 0.65625,-5.443364 0.78125,-1.791666 1.97392,-5.354821 2.03125,-6.490234 0.0391,-0.709642 -0.67995,-1.209015 -1.52539,-1.236328 z" />
    <path
       id="path273"
       style="fill:#eb212e;fill-opacity:1;fill-rule:evenodd;stroke:none;stroke-width:1.33333"
       transform="matrix(0.75,0,0,0.75,46.125411,43.868028)"
       d="m 31.753906,56.203125 c -0.118044,0.09624 -0.173517,0.145231 -0.294922,0.244141 2.92e-4,0.01027 -2.89e-4,0.01904 0,0.0293 0.09828,-0.09117 0.196576,-0.182337 0.294922,-0.273437 z" />
    <path
       id="path287"
       style="fill:#eb212e;fill-opacity:1;fill-rule:evenodd;stroke:none;stroke-width:1.33333"
       transform="matrix(0.75,0,0,0.75,46.125411,43.868028)"
       d="m 157.69141,20.314453 c 0.21263,0.445782 0.72413,0.8524 1.59961,1.033203 0.57272,0.159647 1.04232,0.303468 1.47851,0.44336 -0.0746,-0.06135 -0.14816,-0.124008 -0.22265,-0.185547 -1.06265,-0.376729 -1.99449,-0.818143 -2.85547,-1.291016 z" />
    <path
       id="path299"
       style="fill:#eb212e;fill-opacity:1;fill-rule:evenodd;stroke:none;stroke-width:1.33333"
       transform="matrix(0.75,0,0,0.75,46.125411,43.868028)"
       d="m 245.08008,104.90234 c -0.0204,0.005 -0.044,0.009 -0.0645,0.0137 0.11626,0.69138 0.15595,0.82936 0.0645,-0.0137 z" />
    <path
       id="path301"
       style="fill:#eb212e;fill-opacity:1;fill-rule:evenodd;stroke:none;stroke-width:1.33333"
       transform="matrix(0.75,0,0,0.75,46.125411,43.868028)"
       d="m 66.113281,179.06641 c -3.989584,0 -7.483724,2.19792 -7.68164,6.8125 0,3.91666 4.561848,6.39062 6.80664,6.8125 2.171875,0.44792 3.699219,1.74479 1.949219,2.84375 -2.171875,1.29688 -5.484375,-0.67254 -6.359375,-2.39649 -0.875,-1.81772 -2.197917,-2.24349 -2.84375,-1.14453 -0.401041,0.92188 0.222656,4.41536 1.097656,5.48828 1.296875,1.71875 5.4375,1.94336 7.03125,1.94336 7.458336,0.22396 9.630197,-4.76563 9.40625,-6.73437 0,-4.83855 -4.415365,-5.71419 -7.878906,-7.03711 -3.119792,-1.11979 -1.526692,-3.0931 0.197266,-2.86914 2.614584,0 4.640628,4.41602 6.609375,2.86914 1.520826,-1.34375 0.427734,-4.38997 -1.322266,-5.71289 -1.07292,-0.875 -2.020834,0.22331 -3.09375,-0.22461 -1.093751,-0.42188 -3.266927,-0.65039 -3.917969,-0.65039 z" />
    <path
       id="path303"
       style="fill:#eb212e;fill-opacity:1;fill-rule:evenodd;stroke:none;stroke-width:1.33333"
       transform="matrix(0.75,0,0,0.75,46.125411,43.868028)"
       d="m 82.285156,179.07227 c -3.713533,0 -5.858076,1.09765 -5.660156,2.61328 0.22396,1.52604 2.817061,6.4e-4 2.619141,3.77148 v 8.53125 c 0.19792,3.48959 -2.19336,1.9694 -2.19336,3.94336 0.22396,1.27083 1.099613,1.07227 2.19336,1.07227 H 88.875 c 0.875,0 1.795571,0.42252 2.894531,0.64648 1.296867,0.19792 3.265625,-2.17253 3.265625,-4.11523 0.22396,-3.98959 -2.619135,-4.21355 -3.041015,-1.96875 C 91.770194,195.31119 89.75,196.18099 88,195.95703 c -1.744787,-0.22396 -1.943359,-1.09895 -1.943359,-1.96875 v -9.68164 c 0,-2.6198 2.389975,-1.31772 2.166015,-3.26562 0,-1.7448 -4.5625,-1.96875 -5.9375,-1.96875 z" />
    <path
       id="path305"
       style="fill:#eb212e;fill-opacity:1;fill-rule:evenodd;stroke:none;stroke-width:1.33333"
       transform="matrix(0.75,0,0,0.75,46.125411,43.868028)"
       d="m 105.55469,179.01758 c -5.2168,0.0781 -10.380866,3.5332 -10.716799,9.9082 0.447906,9.42708 7.905599,10.5 10.947269,10.5 5.51562,0 11.22981,-4.3392 10.80273,-10.05273 -0.54688,-7.13542 -5.81641,-10.4336 -11.0332,-10.35547 z m -1.06055,4.38476 c 0.86985,-0.009 1.75586,0.5127 2.16602,1.13282 1.79688,2.21874 2.89583,6.13475 2.67187,8.60351 -0.22396,1.94791 -3.09375,3.27148 -4.84375,0.42774 -1.09375,-1.80208 -2.39583,-5.06705 -2.17187,-7.46289 0.22688,-2.00049 1.1919,-2.69148 2.17773,-2.70118 z" />
    <path
       id="path307"
       style="fill:#eb212e;fill-opacity:1;fill-rule:evenodd;stroke:none;stroke-width:1.33333"
       transform="matrix(0.75,0,0,0.75,46.125411,43.868028)"
       d="m 122.5625,179.06641 c -2.39583,0 -6.08919,0.65039 -5.66211,2.61914 0.22396,1.30208 1.74545,6.4e-4 2.61523,2.39648 l 1.51954,3.54102 4.62109,10.08398 c 0.86979,1.71875 3.71289,2.5944 5.08789,-0.44726 l 6.78125,-14.04688 c 1.09896,-2.17187 2.84831,-0.87501 3.07227,-2.17187 0.19792,-0.8698 -0.22266,-1.97461 -3.98828,-1.97461 -2.59898,0 -4.56901,0.45247 -4.79297,1.52539 -0.42188,1.32292 1.97004,0.87109 1.32421,2.62109 l -1.74609,3.98828 c -0.875,1.94792 -2.0254,1.52214 -2.44726,0.19922 l -1.74415,-3.96484 c -0.67708,-1.32292 1.07227,-1.51953 1.07227,-2.39453 0.44792,-1.97396 -4.34309,-1.97461 -5.71289,-1.97461 z" />
    <path
       id="path309"
       style="fill:#eb212e;fill-opacity:1;fill-rule:evenodd;stroke:none;stroke-width:1.33333"
       transform="matrix(0.75,0,0,0.75,46.125411,43.868028)"
       d="m 150.16016,179.07227 c -4.41667,0 -2.61849,3.91146 -4.19141,7.03125 l -1.29687,3.04687 -2.6211,5.9375 c -1.09896,2.61459 -2.82226,1.0983 -2.82226,2.83789 0,1.07812 1.52539,1.5 4.11914,1.5 3.76562,0 4.41796,-0.84961 4.41796,-1.72461 0,-1.09374 -2.44791,-0.86913 -1.79687,-2.16601 0.22396,-0.875 1.14519,-0.875 3.54102,-0.875 2.39584,0 3.71289,0 3.71289,0.875 0.47916,1.29688 -1.54688,0.87435 -1.54688,2.16601 0,1.72396 3.1198,1.72461 5.51563,1.72461 2.39584,0 6.16145,-6.5e-4 6.35937,-1.72461 0.22396,-1.74478 -1.71874,-0.64582 -2.39062,-2.39062 l -5.9375,-12.09766 c -1.52084,-2.81771 -3.3177,-4.14062 -5.0625,-4.14062 z m -0.58399,8.11328 c 0.48893,0 1.0293,0.65494 1.67774,1.96484 0.875,1.74479 0.87565,1.96875 -0.44727,1.96875 h -2.17187 c -1.52083,0 -0.8698,-0.44792 -0.42188,-1.96875 0.4375,-1.3099 0.87435,-1.96484 1.36328,-1.96484 z" />
    <path
       id="path311"
       style="fill:#eb212e;fill-opacity:1;fill-rule:evenodd;stroke:none;stroke-width:1.33333"
       transform="matrix(0.75,0,0,0.75,46.125411,43.868028)"
       d="m 167.52539,179.06641 c -3.26563,0 -4.13475,1.10481 -4.13477,2.39648 0.22397,1.52604 1.94271,0.45248 2.39063,3.07227 0.42708,2.21874 0.42578,5.70833 0.22266,9.45312 0,3.06772 -1.96875,1.54687 -1.96875,3.71875 0,1.29687 2.17319,1.71875 3.91796,1.71875 2.46878,0 4.63998,-0.42123 4.41602,-2.36914 -0.42708,-1.09896 -1.30208,-0.44921 -1.75,-1.74609 -0.19791,-0.65104 -0.42123,-2.61848 -0.19726,-3.98828 0.1979,-1.72395 1.29557,-1.30209 2.39453,-0.20313 1.72396,1.57292 5.26041,4.61458 7.65625,6.8125 1.97396,1.91667 3.99479,2.56641 4.21875,-1.32422 0.19792,-3.46874 -0.22266,-7.23437 0.19921,-11.875 0.22398,-2.8177 1.96745,-1.94662 2.19141,-3.6914 0.20312,-1.7448 -2.1927,-1.97461 -4.1875,-1.97461 -1.74479,0 -4.14062,0.22916 -4.14062,1.75 -0.22396,1.74478 1.7194,1.09831 1.94336,3.04101 0.22396,2.02083 0.45378,5.06902 -1.74415,3.1211 -3.3177,-2.89583 -5.71353,-4.8659 -7.23437,-6.38672 -1.09896,-1.07292 -1.79752,-1.52539 -4.19336,-1.52539 z" />
    <path
       id="path329"
       style="fill:#eb212e;fill-opacity:1;fill-rule:evenodd;stroke:none;stroke-width:1.33333"
       transform="matrix(0.75,0,0,0.75,46.125411,43.868028)"
       d="m 110.0918,259.62109 c -0.0319,0.0714 -0.0651,0.14223 -0.0957,0.21485 0.28318,-0.0353 0.5132,-0.0899 0.70508,-0.15625 -0.007,-0.0112 -0.0143,-0.0221 -0.0215,-0.0332 -0.18722,-0.0172 -0.38794,-0.0211 -0.58789,-0.0254 z m 6.34765,0.6211 c -0.006,0.0248 -0.0137,0.0515 -0.0195,0.0762 0.0247,-0.0231 0.0464,-0.0484 0.0703,-0.0723 -0.0169,-10e-4 -0.0339,-0.002 -0.0508,-0.004 z m -0.0195,0.0762 c -0.0351,0.0328 -0.0881,0.0507 -0.125,0.082 0.0318,0.009 0.0652,0.0169 0.0977,0.0254 0.009,-0.0356 0.0194,-0.0736 0.0273,-0.10742 z" />
    <path
       id="path347"
       style="fill:#eb212e;fill-opacity:1;fill-rule:evenodd;stroke:none;stroke-width:1.33333"
       transform="matrix(0.75,0,0,0.75,46.125411,43.868028)"
       d="m 239.28125,188.77734 c 0.21504,0.1978 0.42192,0.41056 0.64063,0.60157 0.009,-0.0998 -0.005,-0.18338 -0.002,-0.2793 -0.20732,-0.10459 -0.44035,-0.2222 -0.63867,-0.32227 z" />
    <path
       id="path351"
       style="fill:#ffffff;fill-opacity:1;fill-rule:evenodd;stroke:none;stroke-width:1.33333"
       transform="matrix(0.75,0,0,0.75,46.125411,43.868028)"
       d="m 127.0293,62.634766 c -0.64064,0.01357 -1.21417,0.06836 -1.70118,0.166015 1.3646,1.359375 3.57227,5.25586 3.57227,5.25586 4.34375,-0.328126 11.47917,-0.390631 13.625,-0.0625 0.56771,0.08333 2.06185,0.165364 0.71289,-0.777344 -3.97852,-2.789063 -11.72453,-4.677023 -16.20898,-4.582031 z m -5.78907,0.162109 c -0.82942,-0.02539 -1.72265,0.133464 -2.52734,0.388672 -2.85417,0.911459 -6.68293,2.338541 -8.17773,3.3125 -0.70312,0.458333 -1.48828,1.162109 -1.16016,3.302734 0.32292,2.140626 0.6458,3.505208 1.42188,3.765625 0.78122,0.260416 2.11327,-0.755208 3.05078,-1.296875 3.11458,-1.817708 9.98959,-3.110026 10.3125,-3.240234 0.32292,-0.130213 0.77668,-0.124354 1.03711,0.130859 0.26041,0.25 1.68814,0.776042 1.30273,-0.390625 -0.39063,-1.166666 -2.01106,-4.276041 -3.11523,-5.25 -0.54948,-0.486978 -1.31511,-0.697265 -2.14454,-0.722656 z m -14.375,6.177734 c -0.19781,0.0023 -0.46289,0.09766 -0.86523,0.304688 -4.93229,2.536459 -11.547536,11.744787 -12.912109,15.25 -1.078134,2.77604 1.828769,2.411455 2.599609,1.359375 4.72916,-6.479173 9.46877,-9.593753 10.70312,-10.3125 1.2344,-0.713533 2.72331,-0.645175 2.4629,-1.556641 -0.26043,-0.906249 -0.7754,-3.641276 -1.22852,-4.349609 -0.28646,-0.442708 -0.43007,-0.699178 -0.75977,-0.695313 z m 31.51954,0.376953 c -4.36939,-0.03882 -8.74024,0.513668 -12.14649,1.09961 -4.29167,0.734375 -9.33854,1.819009 -13.5625,4.089844 -1.07812,0.583336 -1.42576,0.905599 -1.09766,1.947265 0.32292,1.036454 3.08203,8.936854 3.76954,10.181641 0.96353,1.755213 2,1.490877 3.5625,0.652344 2.65625,-1.432294 11.06899,-4.083334 17.38672,-5 4.47392,-0.651054 15.83203,-1.037757 17.2539,-0.777344 1.42188,0.260427 2.34896,0.271491 1.875,-1.041016 -1.55208,-4.343746 -4.85807,-9.990235 -12.70703,-10.896484 -1.42057,-0.165365 -2.87752,-0.242917 -4.33398,-0.25586 z m -29.59961,7.455079 c -0.0497,-0.01249 -0.0931,-0.01235 -0.125,0.0039 -4.86979,2.463547 -9.031252,7.787759 -9.671879,8.886719 -0.640626,1.10416 -0.191408,3.108076 0.324219,6.160156 0.520827,3.05208 2.66081,8.506514 4.93164,13.042964 1.76043,3.51563 4.0983,7.40495 4.86914,8.56641 0.77083,1.16145 1.45899,2.31249 3.30274,1.09375 3.05208,-2.0052 9.01498,-5.24936 9.99414,-5.96289 0.96876,-0.71355 1.18228,-1.43816 0.45312,-3.11524 -1.75521,-4.01562 -5.24869,-9.535791 -6.16016,-10.962885 -0.90622,-1.42708 -2.20833,-5.447257 -2.98437,-7.65039 -0.78125,-2.208334 -3.50065,-7.270834 -3.69336,-8.3125 -0.17318,-0.906909 -0.8921,-1.662553 -1.24023,-1.75 z m 38.98242,6.605468 c -11.64346,-0.03318 -18.10677,1.100262 -27.29883,4.623047 -1.7552,0.411467 -2.92318,1.296879 -2.85547,2.140625 0.28645,3.718747 4.20899,9.213546 6.67774,14.656249 0.625,1.3802 0.8444,1.4323 2.27148,1.17188 1.42709,-0.26042 5.70703,-1.29623 6.61328,-1.94727 0.91147,-0.65104 2.79294,-1.8763 3.1211,-3.82422 0.3229,-1.947914 1.8112,-5.654954 3.23828,-7.660154 1.43229,-2.005214 3.43815,-4.92774 4.86523,-5.38086 1.42708,-0.45312 3.49935,-0.536455 4.15039,0.390625 0.78125,1.10416 0.97451,2.328129 0.0684,4.796875 -0.91145,2.463547 -1.8177,4.869141 -2.14062,6.619141 -0.21354,1.151043 -0.13086,2.402343 -0.13086,2.402343 0,0 4.99999,0.45312 5.51562,0.39063 0.52083,-0.0677 1.45378,0.34309 1.75586,-1.42774 0.45313,-2.661463 2.45768,-4.932933 4.66602,-6.427733 1.32292,-0.895827 1.68814,-0.588538 1.42773,-2.078125 -0.26043,-1.484373 -1.03059,-5.764974 -2.07227,-6.931641 -1.03646,-1.17188 -2.33463,-1.374347 -4.54296,-1.43164 -1.89779,-0.04883 -3.66673,-0.07729 -5.33008,-0.08203 z m -52.091799,4.183594 c -0.429686,-0.01628 -0.932288,0.113933 -1.484375,0.439453 -1.10416,0.65104 -2.348956,1.291016 -2.53125,2.791016 -0.583333,4.79688 0.454429,14.527348 1.105469,16.277348 0.645827,1.75521 1.879561,2.72786 3.306641,3.3789 1.432293,0.64583 5.707684,3.95312 6.744144,6.03125 1.04166,2.07291 1.16796,3.43751 1.55859,3.89063 0.39063,0.45833 0.90495,1.35938 1.81641,0.78125 1.43229,-0.91146 3.82811,-1.81706 2.07812,-5.32227 -1.92709,-3.86979 -4.49868,-6.76042 -5.19141,-9.01562 -1.49478,-4.86459 -4.865228,-10.188163 -5.380854,-13.818363 -0.39584,-2.760427 -0.453783,-4.478514 -0.97461,-4.994141 -0.26042,-0.260413 -0.617188,-0.423176 -1.046875,-0.439453 z m 52.056639,15.660157 c -0.72135,-0.0306 -1.41797,-0.0131 -1.64453,0.14844 -0.32292,0.52082 -1.07291,1.86457 -1.6875,3.25 -1.04167,2.33333 -2.71939,3.70378 -3.24023,5.25586 -0.52083,1.55208 -1.55664,5.57812 -1.55664,5.57812 0,0 4.34441,-4.41145 5.83398,-6.35937 1.4948,-1.94271 3.89518,-5.25456 4.08789,-5.83789 0.19792,-0.58334 0.65104,-1.82814 0,-1.89063 -0.32552,-0.0339 -1.07161,-0.11395 -1.79297,-0.14453 z m -16.69726,3.02539 c -0.12408,-0.001 -0.27474,0.0124 -0.45313,0.0449 -1.43229,0.26042 -4.79688,0.58464 -4.40625,1.88672 0.22396,0.75 1.23047,2.01043 1.6211,2.14063 0.3906,0.13026 0.9733,0.25521 1.55664,-0.39063 0.58333,-0.65104 1.88541,-1.88021 2.07812,-2.53125 0.11398,-0.38282 0.47205,-1.14142 -0.39648,-1.15039 z m -6.76954,3.20313 c -0.14221,0.023 -0.24804,0.12792 -0.29687,0.34765 -0.26041,1.16667 -1.81901,1.42643 -3.37109,2.40039 -1.55208,0.97396 -6.02539,3.2513 -8.04102,4.8086 -2.01041,1.55729 -3.18229,4.53516 -3.375,4.98828 -0.19792,0.45313 -0.58399,1.36002 0.32227,1.81836 0.90104,0.45312 2.97917,2.19855 3.89062,2.45898 0.90625,0.26041 1.7513,0.0671 2.85547,-0.58398 1.10416,-0.64584 5.96355,-4.2806 7,-6.35352 1.04167,-2.07812 2.72785,-4.86589 3.37891,-5.90234 0.64582,-1.03646 0.25656,-1.81641 -0.12891,-2.26953 -0.31738,-0.36818 -1.61807,-1.81277 -2.23438,-1.71289 z" />
  </g>
  <path
     id="rect285"
     style="fill:none;stroke-width:0.75"
     d="m -58.634766,-35.932621 v 97.187984 h 21.739746 c -0.57709,-0.620257 -1.067412,-1.296067 -1.319824,-2.08593 -1.345322,-4.209937 -1.785547,-8.672017 -2.257324,-13.06641 -0.362202,-3.373745 -0.994598,-6.868723 -0.237305,-10.176269 1.637089,-7.150133 4.878899,-13.834819 7.31836,-20.752442 9.810191,-20.005709 6.116233,-15.392529 24.2050784,-35.493164 4.066673,-4.518956 8.013066,-9.336815 13.048828,-12.742675 1.493301,-1.009973 3.026935,-1.955085 4.579101,-2.871094 z m 71.021485,4.753417 c -1.415254,0.821087 -2.8144766,1.668927 -4.1748046,2.579591 -4.868186,3.258978 -8.65764603,7.919256 -12.599121,12.253417 -17.3821664,19.11394 -13.6923604,14.472714 -23.1489264,33.648926 -2.315021,6.164262 -5.395518,12.092413 -6.944824,18.492187 -0.532198,2.19837 -0.296963,4.488994 -0.05713,6.770508 0.642975,-0.721402 1.706564,-1.607331 3.373535,-2.714355 0.157326,-0.316331 0.310169,-0.626196 0.583008,-1.171875 0.392377,-0.784752 0.844162,-1.382425 1.318359,-1.847168 2.619408,-4.277218 6.560197,-9.883203 7.309571,-10.904297 0.73297,-0.998744 1.615567,-3.470542 2.403808,-3.818848 0.408321,-0.396481 0.876153,-0.671605 1.422363,-0.788086 0.20543,-0.903298 0.64341,-1.269471 1.854492,-2.47705 0.01985,-0.08539 0.04537,-0.169636 0.06592,-0.254883 -0.0011,-0.0229 0.0029,-0.04743 0.01904,-0.07617 0.437292,-1.794468 1.025875,-3.559004 1.845703,-5.305664 0.282494,-0.601858 0.83125,-1.037963 1.246582,-1.557129 1.616113,-2.020141 3.4025944,-2.495609 4.6567394,-2.025879 1.116192,-1.366179 2.260256,-2.709997 3.41748,-4.041504 0.408833,-0.589009 0.806091,-1.169072 1.220215,-1.765136 1.026113,-1.476926 2.33031,-2.740153 3.49511697,-4.110352 0.09058,0.102059 0.206149,0.194525 0.306152005,0.2929689978028 C 3.8908984,-4.222173 8.3743544,-8.910684 12.386716,-12.962404 Z m -0.361817,41.907715 c -1.447341,1.379295 -3.1048146,2.954869 -5.4550776,5.228028 -0.364753,0.352786 -0.735321,0.699151 -1.103028,1.048828 0.287929,0.0081 0.55226,0.0205 0.391114,0.09522 -0.261533,0.121269 -0.537564,0.221527 -0.818848,0.313476 -0.01556,0.01472 -0.03131,0.02923 -0.04687,0.04394 0.177096,1.64491 0.0756,3.295972 -0.433593,4.803223 -2.763867,8.181303 -8.406251,15.087481 -12.719238,22.568847 -3.9325934,6.821525 -5.8720554,10.45989 -7.1601574,12.837892 2.056978,-1.41846 4.034232,-2.952037 5.8945324,-4.630372 0.710947,-0.6414 1.291147,-1.413748 1.936523,-2.121094 2.10653,-2.617568 2.715995,-3.082725 4.168945,-5.783204 3.45224497,-6.416406 1.408598,-2.851926 4.10595697,-9.446777 3.39858303,-8.309292 3.13925003,-7.405949 7.08984403,-14.998535 0.385315,-0.584477 0.754165,-1.18046 1.130859,-1.770996 -0.204196,-0.858477 -0.330707,-1.727269 -0.303222,-2.553223 -0.134036,-0.05693 -0.26576,-0.09828 -0.398438,-0.145019 -0.115869,0.04835 -0.448503,-0.15172 -0.333984,-0.120117 0.109886,0.03032 0.222922,0.081 0.333984,0.120117 0.0059,-0.0025 0.0173,0.0024 0.02197,-0.0015 0.138421,-0.114867 0.273672,-0.233208 0.411622,-0.348633 0.08878,-0.783196 0.327696,-1.516985 0.791015,-2.147461 0.7726226,-1.051369 1.6183156,-2.036734 2.4960936,-2.992676 z m -6.9858396,6.685547 c 0.143302,-0.135507 0.284819,-0.27278 0.427734,-0.408691 -0.103347,-0.0029 -0.193099,-0.0064 -0.279784,-0.01172 -0.07498,0.06925 -0.151748,0.141976 -0.222656,0.199219 0.01009,0.07951 0.01619,0.159213 0.0249,0.238769 0.017,-0.0055 0.03287,-0.01205 0.04981,-0.01758 z m -11.200195,1.888184 c -0.08853,0.07218 -0.130138,0.108923 -0.221192,0.183106 2.19e-4,0.0077 -2.16e-4,0.01428 0,0.02197 0.07371,-0.06838 0.147432,-0.136753 0.221192,-0.205078 z M 12.386719,25.46191 c -2.6298916,5.065752 -3.0262356,5.680871 -5.8798826,12.689942 -0.594461,1.460098 -1.002349,2.99313 -1.631836,4.438476 -0.787836,1.808926 -1.689887,3.568671 -2.614746,5.311524 -1.69144703,3.187449 -2.42728703,3.781017 -4.873535,6.890626 -2.075097,2.407448 -4.445696,4.543178 -6.987305,6.462885 H 12.386719 Z M -27.98584,53.696773 c -0.408298,0.46659 -0.820712,0.929865 -1.226074,1.398923 -0.643134,0.63171 -1.37117,2.016742 -2.043457,2.90625 0.101869,0.106102 0.212308,0.208402 0.306152,0.317872 1.758783,2.051715 2.03307,2.63409 2.625,2.935545 h 1.634766 c -0.07851,-0.525735 -0.08283,-1.056525 0.03955,-1.596675 0.133549,-0.589425 0.295034,-1.169332 0.46875,-1.744627 -0.647146,-0.636878 -1.125839,-1.66038 -1.255371,-3.070313 -0.353533,0.524025 -0.601631,0.708863 -0.593261,0.08056 0.0054,-0.408255 0.0276,-0.818332 0.04395,-1.22754 z" />
</svg>
