<?xml version="1.0" encoding="UTF-8" standalone="no"?>
<svg
   version="1.1"
   width="740.6806pt"
   height="92.612396pt"
   viewBox="0 0 740.68059 92.612396"
   id="svg253"
   sodipodi:docname="slovanovakri-w.svg"
   inkscape:version="1.1.2 (b8e25be8, 2022-02-05)"
   xmlns:inkscape="http://www.inkscape.org/namespaces/inkscape"
   xmlns:sodipodi="http://sodipodi.sourceforge.net/DTD/sodipodi-0.dtd"
   xmlns="http://www.w3.org/2000/svg"
   xmlns:svg="http://www.w3.org/2000/svg">
  <defs
     id="defs257" />
  <sodipodi:namedview
     id="namedview255"
     pagecolor="#ffffff"
     bordercolor="#666666"
     borderopacity="1.0"
     inkscape:pageshadow="2"
     inkscape:pageopacity="0.0"
     inkscape:pagecheckerboard="0"
     inkscape:document-units="pt"
     showgrid="false"
     inkscape:zoom="0.37689124"
     inkscape:cx="249.40882"
     inkscape:cy="-545.25014"
     inkscape:window-width="1280"
     inkscape:window-height="677"
     inkscape:window-x="0"
     inkscape:window-y="25"
     inkscape:window-maximized="0"
     inkscape:current-layer="svg253" />
  <g
     enable-background="new"
     id="g251"
     style="fill:#ffffff"
     transform="translate(1.4071171)">
    <g
       id="Layer-1"
       data-name="Layer 1"
       style="fill:#ffffff">
      <path
         id="path188"
         style="fill:#ffffff;stroke-width:1.33333"
         transform="matrix(0.75,0,0,0.75,-1.4071171,0)"
         d="m -142.67188,-1067.9336 c -1.51382,0.9923 -3.0138,2.0128 -4.56445,2.9277 1.44445,-0.063 2.45134,-0.1824 4.07227,-0.2187 0.1071,-0.9334 0.33279,-1.8027 0.49218,-2.709 z m 60.814458,103.6211 0.02148,0.18359 c 0.922388,0.086 1.847623,0.13717 2.769532,0.23047 -0.878488,-0.21606 -1.840573,-0.27252 -2.791016,-0.41406 z m 363.380862,241.55469 c -0.48306,0.55715 -0.95852,1.13376 -1.43164,1.72265 2.20529,1.67883 4.35217,3.29199 6.55273,4.9668 -2.67678,-3.48037 -2.9578,-3.85149 -5.12109,-6.68945 z m -361.845706,116.19726 c -0.248879,0.0288 -0.497532,0.0578 -0.746093,0.0879 l 0.351562,0.35157 c 0.139381,-0.14401 0.261477,-0.29333 0.394531,-0.43946 z" />
      <path
         id="path190"
         style="fill:#ffffff"
         transform="matrix(0.75,0,0,0.75,-1.4071171,0)"
         d="m -142.67188,-1067.9336 c -1.51382,0.9923 -3.0138,2.0128 -4.56445,2.9277 1.44445,-0.063 2.45134,-0.1824 4.07227,-0.2187 0.1071,-0.9334 0.33279,-1.8027 0.49218,-2.709 z m 60.814458,103.6211 0.02148,0.18359 c 0.922388,0.086 1.847623,0.13717 2.769532,0.23047 -0.878488,-0.21606 -1.840573,-0.27252 -2.791016,-0.41406 z m 363.380862,241.55469 c -0.48306,0.55715 -0.95852,1.13376 -1.43164,1.72265 2.20529,1.67883 4.35217,3.29199 6.55273,4.9668 -2.67678,-3.48037 -2.9578,-3.85149 -5.12109,-6.68945 z m -361.845706,116.19726 c -0.248879,0.0288 -0.497532,0.0578 -0.746093,0.0879 l 0.351562,0.35157 c 0.139381,-0.14401 0.261477,-0.29333 0.394531,-0.43946 z" />
    </g>
    <g
       id="g201"
       data-name="Layer 1"
       style="fill:#ffffff" />
    <g
       id="g203"
       data-name="Layer 1"
       style="fill:#ffffff" />
    <g
       id="g205"
       data-name="Foreground"
       style="fill:#ffffff" />
    <g
       id="g207"
       data-name="Foreground"
       style="fill:#ffffff" />
    <g
       id="g209"
       data-name="Layer 1"
       style="fill:#ffffff" />
    <g
       id="g211"
       data-name="#Layer 1"
       style="fill:#ffffff" />
    <g
       id="g213"
       data-name="Layer 1"
       style="fill:#ffffff" />
    <g
       id="g215"
       data-name="Layer 1"
       style="fill:#ffffff" />
    <g
       id="g217"
       data-name="Layer 1"
       style="fill:#ffffff" />
    <g
       id="g219"
       data-name="Layer 1"
       style="fill:#ffffff" />
    <g
       id="g221"
       data-name="Layer 1"
       style="fill:#ffffff" />
    <g
       id="g223"
       data-name="Artwork"
       style="fill:#ffffff" />
    <g
       id="g225"
       data-name="Artwork"
       style="fill:#ffffff" />
    <g
       id="g227"
       data-name="Layer 1"
       style="fill:#ffffff" />
    <g
       id="g249"
       data-name="Layer 1"
       style="fill:#ffffff">
      <path
         id="path229"
         style="fill:#ffffff;stroke-width:1.33333"
         transform="matrix(0.75,0,0,0.75,-1.4071171,0)"
         d="m 108.23828,-328.96484 c 0.34408,2.19656 0.68705,4.3933 1.03125,6.58984 0.82529,0.11056 1.66576,0.17708 2.5293,0.16016 0.54572,-0.50924 0.96622,-0.81809 1.49414,-1.29883 -0.006,-0.75708 -0.0176,-1.51471 -0.0215,-2.27149 -0.0435,-0.51049 -0.0562,-0.73299 -0.0977,-1.22461 -1.67418,-0.641 -3.28711,-1.30348 -4.93555,-1.95507 z m 4.60156,29.36914 c 0.23573,1.50454 0.4719,3.00902 0.70704,4.51367 -0.007,-1.30958 -0.0218,-2.61969 -0.0352,-3.92969 -0.22495,-0.19875 -0.44676,-0.38388 -0.67188,-0.58398 z m -130.818356,133.24218 c -1.401712,0.93718 -2.901618,1.80748 -4.347656,2.71485 0.11676,0.068 0.236052,0.10087 0.353516,0.16015 1.077918,-0.15587 2.227168,-0.24769 3.34375,-0.36914 0.829549,-0.92926 1.002338,-1.70318 0.65039,-2.50586 z" />
      <path
         id="path231"
         style="fill:#ffffff"
         transform="matrix(0.75,0,0,0.75,-1.4071171,0)"
         d="m 108.23828,-328.96484 c 0.34408,2.19656 0.68705,4.3933 1.03125,6.58984 0.82529,0.11056 1.66576,0.17708 2.5293,0.16016 0.54572,-0.50924 0.96622,-0.81809 1.49414,-1.29883 -0.006,-0.75708 -0.0176,-1.51471 -0.0215,-2.27149 -0.0435,-0.51049 -0.0562,-0.73299 -0.0977,-1.22461 -1.67418,-0.641 -3.28711,-1.30348 -4.93555,-1.95507 z m 4.60156,29.36914 c 0.23573,1.50454 0.4719,3.00902 0.70704,4.51367 -0.007,-1.30958 -0.0218,-2.61969 -0.0352,-3.92969 -0.22495,-0.19875 -0.44676,-0.38388 -0.67188,-0.58398 z m -130.818356,133.24218 c -1.401712,0.93718 -2.901618,1.80748 -4.347656,2.71485 0.11676,0.068 0.236052,0.10087 0.353516,0.16015 1.077918,-0.15587 2.227168,-0.24769 3.34375,-0.36914 0.829549,-0.92926 1.002338,-1.70318 0.65039,-2.50586 z" />
      <path
         transform="matrix(1,0,0,-1,-198.2515,389.6269)"
         d="m 241.4032,349.2332 -5.4235,-15.0098 h 15.4721 l 5.2767,15.0098 z m 0,37.9658 h 13.6015 l -8.9764,-25.6048 h 14.9045 l 9.1026,25.6048 h 13.6222 l -9.1236,-25.6048 h 17.4274 l -4.5618,-12.361 h -17.238 L 264.99,334.3496 h 17.8688 l -4.3937,-12.3611 h -17.9107 l -9.1026,-25.6048 h -13.6222 l 9.1236,25.6048 h -15.0307 l -9.1656,-25.6048 h -13.5592 l 8.9974,25.6048 h -17.6796 l 4.6879,12.3611 h 17.3642 l 5.2977,14.8836 H 209.45 l 4.5618,12.361 h 18.2891 z m 57.7477,-61.5526 h 18.6676 V 313.916 h 12.2346 v 18.3734 l -16.5231,1.4295 -14.3791,13.1179 v 26.971 l 13.1176,12.2559 h 21.4424 l 13.2441,-12.2559 v -16.6283 h -16.9019 v 11.9826 h -12.2346 v -17.8897 l 16.5022,-1.4295 14.4,-13.1179 v -27.4547 l -13.1176,-12.2558 h -23.3346 l -13.1176,12.2558 z m 58.3781,-28.6319 v 89.0492 h 18.6676 V 313.916 h 22.199 v -16.9015 z m 66.5765,16.9015 h 12.3611 v 55.2461 h -12.3611 z m -18.6675,-4.6457 v 64.5375 l 13.3069,12.2559 h 23.1452 l 13.244,-12.2559 v -64.5375 l -13.244,-12.2558 h -23.1452 z m 65.6305,-12.2558 -11.2677,89.0492 h 19.4663 l 6.5169,-72.4209 h 2.1651 l 4.9192,72.4209 h 19.1512 l -10.5951,-89.0492 z m 64.7898,33.5511 h 11.2048 l -4.5618,38.8485 h -1.8499 z m -22.3464,-33.5511 13.6012,89.0492 h 29.9143 l 13.1179,-89.0492 h -18.8988 l -2.0393,16.6495 h -15.5143 l -1.8918,-16.6495 z m 62.2883,0 v 89.0492 h 17.5113 l 15.4091,-49.9484 v 49.9484 h 16.3973 v -89.0492 h -16.3973 l -16.6496,53.585 v -53.585 z m 76.3095,16.9015 h 12.361 v 55.2461 h -12.361 z m -18.6676,-4.6457 v 64.5375 l 13.307,12.2559 h 23.1451 l 13.2441,-12.2559 v -64.5375 l -13.2441,-12.2558 h -23.1451 z m 65.6306,-12.2558 -11.2678,89.0492 h 19.4664 l 6.5169,-72.4209 h 2.1651 l 4.9192,72.4209 h 19.1512 l -10.5951,-89.0492 z m 64.7898,33.5511 h 11.2047 l -4.5618,38.8485 h -1.8498 z m -22.3464,-33.5511 13.6012,89.0492 h 29.9143 l 13.1179,-89.0492 h -18.8989 l -2.0392,16.6495 h -15.5143 l -1.8919,-16.6495 z m 62.2882,0 v 89.0492 h 18.6676 v -39.7315 l 14.6103,39.7315 h 19.8235 l -17.6794,-41.8759 19.3193,-47.1733 h -20.5594 l -15.5143,41.14 v -41.14 z m 88.6703,53.1017 v 19.0459 H 880.24 v -19.0459 z m -30.9019,-53.1017 v 89.0492 h 35.5479 l 12.6343,-11.7513 v -23.2923 l -9.9644,-8.8503 11.3516,-8.7032 v -36.4521 h -18.6675 v 36.4521 H 880.24 v -36.4521 z m 57.2848,0 v 89.0492 h 18.6675 v -89.0492 z"
         fill="#231f20"
         id="path233"
         style="fill:#ffffff" />
    </g>
  </g>
  <path
     id="rect1309"
     style="fill:none;fill-rule:evenodd;stroke-width:1"
     transform="scale(0.75)"
     d="M 0,0 V 123.48242 H 405.07617 C 394.28545,101.94112 386.57402,80.808368 372.38867,39.742188 366.12452,21.607656 361.47994,9.3888755 357.74609,0 Z m 442.14844,0 c 1.68642,4.1320404 3.29941,8.0119872 5.32812,13.322266 27.06356,70.840593 22.4806,68.325626 48.47071,110.160154 H 987.57422 V 0 Z" />
</svg>
