<?xml version="1.0" encoding="UTF-8" standalone="no"?>
<svg
   version="1.1"
   width="741.8059pt"
   height="94.98059pt"
   viewBox="0 0 741.8059 94.98059"
   id="svg253"
   sodipodi:docname="slovanovakri-b.svg"
   inkscape:version="1.1.2 (b8e25be8, 2022-02-05)"
   xmlns:inkscape="http://www.inkscape.org/namespaces/inkscape"
   xmlns:sodipodi="http://sodipodi.sourceforge.net/DTD/sodipodi-0.dtd"
   xmlns="http://www.w3.org/2000/svg"
   xmlns:svg="http://www.w3.org/2000/svg">
  <defs
     id="defs257" />
  <sodipodi:namedview
     id="namedview255"
     pagecolor="#ffffff"
     bordercolor="#666666"
     borderopacity="1.0"
     inkscape:pageshadow="2"
     inkscape:pageopacity="0.0"
     inkscape:pagecheckerboard="0"
     inkscape:document-units="pt"
     showgrid="false"
     inkscape:zoom="0.4534542"
     inkscape:cx="498.39654"
     inkscape:cy="65.056185"
     inkscape:window-width="1280"
     inkscape:window-height="677"
     inkscape:window-x="0"
     inkscape:window-y="89"
     inkscape:window-maximized="0"
     inkscape:current-layer="svg253" />
  <g
     enable-background="new"
     id="g251"
     style="fill:#000000">
    <g
       id="Layer-1"
       data-name="Layer 1"
       style="fill:#000000" />
    <g
       id="g201"
       data-name="Layer 1"
       style="fill:#000000" />
    <g
       id="g203"
       data-name="Layer 1"
       style="fill:#000000" />
    <g
       id="g205"
       data-name="Foreground"
       style="fill:#000000" />
    <g
       id="g207"
       data-name="Foreground"
       style="fill:#000000" />
    <g
       id="g209"
       data-name="Layer 1"
       style="fill:#000000" />
    <g
       id="g211"
       data-name="#Layer 1"
       style="fill:#000000" />
    <g
       id="g213"
       data-name="Layer 1"
       style="fill:#000000" />
    <g
       id="g215"
       data-name="Layer 1"
       style="fill:#000000" />
    <g
       id="g217"
       data-name="Layer 1"
       style="fill:#000000" />
    <g
       id="g219"
       data-name="Layer 1"
       style="fill:#000000" />
    <g
       id="g221"
       data-name="Layer 1"
       style="fill:#000000" />
    <g
       id="g223"
       data-name="Artwork"
       style="fill:#000000" />
    <g
       id="g225"
       data-name="Artwork"
       style="fill:#000000" />
    <g
       id="g227"
       data-name="Layer 1"
       style="fill:#000000" />
    <g
       id="g249"
       data-name="Layer 1"
       style="fill:#000000">
      <path
         transform="matrix(1,0,0,-1,-198.2515,389.6269)"
         d="M 241.4032 349.2332 L 235.9797 334.2234 L 251.4518 334.2234 L 256.7285 349.2332 Z M 241.4032 387.199 L 255.0047 387.199 L 246.0283 361.5942 L 260.9328 361.5942 L 270.0354 387.199 L 283.6576 387.199 L 274.534 361.5942 L 291.9614 361.5942 L 287.3996 349.2332 L 270.1616 349.2332 L 264.99 334.3496 L 282.8588 334.3496 L 278.4651 321.9885 L 260.5544 321.9885 L 251.4518 296.3837 L 237.8296 296.3837 L 246.9532 321.9885 L 231.9225 321.9885 L 222.7569 296.3837 L 209.1977 296.3837 L 218.1951 321.9885 L 200.5155 321.9885 L 205.2034 334.3496 L 222.5676 334.3496 L 227.8653 349.2332 L 209.45 349.2332 L 214.0118 361.5942 L 232.3009 361.5942 Z M 299.1509 325.6464 L 317.8185 325.6464 L 317.8185 313.916 L 330.0531 313.916 L 330.0531 332.2894 L 313.53 333.7189 L 299.1509 346.8368 L 299.1509 373.8078 L 312.2685 386.0637 L 333.7109 386.0637 L 346.955 373.8078 L 346.955 357.1795 L 330.0531 357.1795 L 330.0531 369.1621 L 317.8185 369.1621 L 317.8185 351.2724 L 334.3207 349.8429 L 348.7207 336.725 L 348.7207 309.2703 L 335.6031 297.0145 L 312.2685 297.0145 L 299.1509 309.2703 Z M 357.529 297.0145 L 357.529 386.0637 L 376.1966 386.0637 L 376.1966 313.916 L 398.3956 313.916 L 398.3956 297.0145 Z M 424.1055 313.916 L 436.4666 313.916 L 436.4666 369.1621 L 424.1055 369.1621 Z M 405.438 309.2703 L 405.438 373.8078 L 418.7449 386.0637 L 441.8901 386.0637 L 455.1341 373.8078 L 455.1341 309.2703 L 441.8901 297.0145 L 418.7449 297.0145 Z M 471.0685 297.0145 L 459.8008 386.0637 L 479.2671 386.0637 L 485.784 313.6428 L 487.9491 313.6428 L 492.8683 386.0637 L 512.0195 386.0637 L 501.4244 297.0145 Z M 535.8583 330.5656 L 547.0631 330.5656 L 542.5013 369.4141 L 540.6514 369.4141 Z M 513.5119 297.0145 L 527.1131 386.0637 L 557.0274 386.0637 L 570.1453 297.0145 L 551.2465 297.0145 L 549.2072 313.664 L 533.6929 313.664 L 531.8011 297.0145 Z M 575.8002 297.0145 L 575.8002 386.0637 L 593.3115 386.0637 L 608.7206 336.1153 L 608.7206 386.0637 L 625.1179 386.0637 L 625.1179 297.0145 L 608.7206 297.0145 L 592.071 350.5995 L 592.071 297.0145 Z M 652.1097 313.916 L 664.4707 313.916 L 664.4707 369.1621 L 652.1097 369.1621 Z M 633.4421 309.2703 L 633.4421 373.8078 L 646.7491 386.0637 L 669.8942 386.0637 L 683.1383 373.8078 L 683.1383 309.2703 L 669.8942 297.0145 L 646.7491 297.0145 Z M 699.0727 297.0145 L 687.8049 386.0637 L 707.2713 386.0637 L 713.7882 313.6428 L 715.9533 313.6428 L 720.8725 386.0637 L 740.0237 386.0637 L 729.4286 297.0145 Z M 763.8625 330.5656 L 775.0672 330.5656 L 770.5054 369.4141 L 768.6556 369.4141 Z M 741.5161 297.0145 L 755.1173 386.0637 L 785.0316 386.0637 L 798.1495 297.0145 L 779.2506 297.0145 L 777.2114 313.664 L 761.6971 313.664 L 759.8052 297.0145 Z M 803.8043 297.0145 L 803.8043 386.0637 L 822.4719 386.0637 L 822.4719 346.3322 L 837.0822 386.0637 L 856.9057 386.0637 L 839.2263 344.1878 L 858.5456 297.0145 L 837.9862 297.0145 L 822.4719 338.1545 L 822.4719 297.0145 Z M 892.4746 350.1162 L 892.4746 369.1621 L 880.24 369.1621 L 880.24 350.1162 Z M 861.5727 297.0145 L 861.5727 386.0637 L 897.1206 386.0637 L 909.7549 374.3124 L 909.7549 351.0201 L 899.7905 342.1698 L 911.1421 333.4666 L 911.1421 297.0145 L 892.4746 297.0145 L 892.4746 333.4666 L 880.24 333.4666 L 880.24 297.0145 Z M 918.8575 297.0145 L 918.8575 386.0637 L 937.525 386.0637 L 937.525 297.0145 Z "
         fill="#231f20"
         id="path233"
         style="fill:#000000" />
    </g>
  </g>
</svg>
